<svg width="80" height="80" viewBox="0 0 80 80" fill="none" xmlns="http://www.w3.org/2000/svg">
<g clip-path="url(#clip0_28_1116)">
<path d="M22.7608 78.2988C21.0685 79.885 19.1727 80.3538 17.0942 79.4236C15.2234 78.5863 14.2446 77.0413 14.2372 74.9834C14.2151 68.4234 14.2284 61.8648 14.2284 55.3048C14.2284 55.0158 14.2284 54.7284 14.2284 54.3554C13.8613 54.3554 13.5724 54.3554 13.282 54.3554C10.7523 54.3554 8.22115 54.3628 5.69148 54.3524C3.87236 54.3451 2.98934 53.4473 2.97607 51.6267C2.97607 51.5279 2.96575 51.4292 2.97607 51.3319C3.09548 50.2808 2.98639 49.5187 1.74809 49.0219C0.456722 48.503 -0.0798744 47.2308 0.00710138 45.7993C0.101448 44.2441 0.907816 43.1635 2.33776 42.6122C2.85224 42.4132 2.99376 42.1714 2.98492 41.6584C2.95691 39.9882 2.96723 38.318 2.97754 36.6462C2.98786 34.9318 3.90332 34.0075 5.61483 33.9736C6.35191 33.9588 7.09047 33.9471 7.82607 33.978C8.29338 33.9972 8.49387 33.8188 8.67372 33.3795C10.198 29.6395 12.9562 27.4268 16.96 26.8047C17.3698 26.7413 17.7914 26.7295 18.2086 26.7281C20.9845 26.7222 23.7603 26.7118 26.5362 26.7281C31.4245 26.7546 35.3089 29.8651 36.3851 34.637C36.5517 35.3726 36.6136 36.145 36.618 36.8998C36.6431 40.1916 36.6372 43.4834 36.6268 46.7752C36.6165 49.8916 34.8696 52.2871 31.8859 53.2262C31.3803 53.3854 31.342 53.6552 31.342 54.0827C31.3508 61.0348 31.3538 67.987 31.3434 74.9406C31.3405 77.4629 29.8943 79.3749 27.5504 79.8732C25.7106 80.2639 24.1023 79.742 22.7579 78.2973L22.7608 78.2988ZM11.1061 33.9721C12.48 33.9721 13.6815 33.9353 14.8785 33.9913C15.3119 34.0119 15.8382 34.1446 16.1448 34.4217C17.2357 35.4109 18.2676 36.4664 19.2803 37.5366C19.5103 37.7799 19.6931 38.1809 19.6961 38.5111C19.7211 43.0323 19.7241 47.5521 19.7005 52.0734C19.6931 53.3191 18.8278 54.2463 17.6013 54.3082C16.901 54.3436 16.7168 54.5647 16.7197 55.2635C16.7477 61.7012 16.7359 68.1374 16.7404 74.575C16.7404 74.9171 16.7536 75.2679 16.8317 75.5981C17.0868 76.661 18.0951 77.4246 19.1565 77.3981C20.2548 77.3701 21.241 76.5327 21.4282 75.4374C21.4813 75.1264 21.4695 74.8006 21.4695 74.4822C21.4709 68.3894 21.4709 62.2952 21.4709 56.2025C21.4709 54.7033 21.4739 53.2055 21.4709 51.7063C21.4695 51.0223 21.723 50.5108 22.41 50.2955C23.3756 49.9933 24.1068 50.6302 24.1068 51.7903C24.1097 59.3572 24.1082 66.9256 24.1097 74.4925C24.1097 74.7623 24.0979 75.035 24.1244 75.3033C24.2512 76.5593 25.2654 77.5116 26.4713 77.5204C27.7096 77.5293 28.746 76.5504 28.8506 75.262C28.8772 74.9451 28.8668 74.6237 28.8668 74.3038C28.8668 62.3881 28.8668 50.4724 28.8683 38.5568C28.8683 38.2383 28.7961 37.8801 28.914 37.6089C29.0776 37.2344 29.3209 36.7907 29.6555 36.6153C30.5253 36.1583 31.3434 36.8217 31.3464 37.9376C31.3552 41.9179 31.3493 45.8981 31.3508 49.8784C31.3508 50.1378 31.3508 50.3958 31.3508 50.6744C32.8766 50.3206 34.0839 48.814 34.0972 47.1718C34.1281 43.5114 34.1679 39.8481 34.0751 36.1907C33.9881 32.7736 31.2314 29.6779 27.8393 29.3948C24.8129 29.1427 21.7555 29.2592 18.7113 29.2341C18.101 29.2297 17.4789 29.2607 16.8789 29.3698C14.221 29.8533 12.3857 31.3982 11.1076 33.9721H11.1061ZM5.49837 51.8449C5.85069 51.8611 6.09246 51.8803 6.33422 51.8803C9.69532 51.8817 13.0564 51.8655 16.4175 51.895C17.0647 51.9009 17.2593 51.7152 17.2519 51.0651C17.2209 47.9973 17.0824 44.9178 17.2917 41.8633C17.4391 39.7066 16.8273 38.1116 15.1158 36.8954C14.821 36.6861 14.4348 36.487 14.0883 36.4826C11.4628 36.4487 8.83588 36.4635 6.20891 36.4664C5.99516 36.4664 5.78288 36.4944 5.49984 36.5136C5.49984 38.3976 5.48805 40.2344 5.52048 42.0697C5.52343 42.2215 5.80499 42.394 5.98632 42.512C6.51554 42.854 7.15828 43.078 7.58284 43.5159C9.44765 45.4367 8.65898 48.5162 6.12636 49.4508C5.88312 49.5408 5.55881 49.7914 5.52638 50.0051C5.44235 50.5786 5.49837 51.1741 5.49837 51.8434V51.8449ZM4.2984 47.0848C4.2984 47.0848 4.2984 47.0863 4.2984 47.0878C4.4694 47.0878 4.6404 47.0878 4.81141 47.0878C5.59271 47.0892 6.07182 46.6794 6.08214 45.9998C6.09245 45.363 5.6222 44.903 4.89396 44.8691C4.45466 44.85 4.01388 44.8441 3.57606 44.8736C2.92447 44.9178 2.45569 45.422 2.46748 46.019C2.47928 46.6131 2.9687 47.0598 3.63797 47.0833C3.85762 47.0907 4.07727 47.0833 4.2984 47.0833V47.0848Z" fill="#647AA2"/>
<path d="M60.9417 37.8743C56.071 37.7711 51.9788 36.3485 48.4806 33.3545C48.0133 32.9535 47.5828 32.8017 46.9651 32.8783C44.7008 33.1569 42.4306 33.3751 40.1619 33.6139C39.8685 33.6449 39.5737 33.6596 39.2818 33.692C38.726 33.754 38.1511 33.6537 37.9771 33.1112C37.8371 32.6793 37.8415 32.0587 38.0567 31.6754C39.3879 29.299 40.809 26.9743 42.1652 24.6112C42.3377 24.3105 42.4262 23.8594 42.3451 23.5306C39.6857 12.8842 46.604 2.19355 57.4052 0.293355C67.1686 -1.42405 76.5708 4.55369 79.1196 14.0989C82.0164 24.9458 74.6367 36.0758 63.5097 37.6281C62.5633 37.7607 61.6051 37.8123 60.9417 37.8743ZM41.3957 30.9339C41.7083 30.9162 41.894 30.9147 42.0768 30.8941C43.9564 30.6877 45.8359 30.4961 47.7125 30.2631C48.4069 30.1776 48.9184 30.3899 49.4358 30.8558C54.5055 35.4183 60.3668 36.5829 66.6673 34.1874C73.0446 31.7624 76.5649 26.8431 77.159 20.0501C78.0479 9.89312 68.9051 1.26925 58.7968 2.58863C48.6029 3.91833 42.1903 13.6375 44.9868 23.5306C45.1593 24.1409 45.0929 24.6643 44.7612 25.2082C43.7662 26.8431 42.8021 28.4971 41.8277 30.1452C41.695 30.3693 41.577 30.6022 41.3943 30.9354L41.3957 30.9339Z" fill="#647AA2"/>
<path d="M30.2192 14.6296C30.0644 17.0915 28.9204 19.5047 26.5721 21.2619C24.237 23.0102 21.5953 23.0486 19.1614 21.4491C15.7104 19.1818 14.282 14.3731 15.9994 10.8012C17.5192 7.63911 21.1236 5.96593 24.582 6.81505C27.8959 7.63026 30.2958 10.7643 30.2177 14.6281L30.2192 14.6296ZM17.7315 14.1284C17.8332 16.1907 18.6853 17.9303 20.3526 19.2187C21.871 20.3921 23.5795 20.3774 25.1171 19.2319C26.3878 18.2855 27.175 16.9956 27.5539 15.4758C28.0713 13.406 27.5347 11.6135 25.8895 10.2454C24.3107 8.93343 22.5019 8.70493 20.6518 9.57321C18.7811 10.4518 17.82 11.9982 17.7315 14.1284Z" fill="#647AA2"/>
<path d="M53.6167 44.9975C53.6167 46.224 53.627 47.4505 53.6137 48.677C53.6034 49.6588 53.1508 50.129 52.1749 50.1349C49.7219 50.1497 47.2689 50.1497 44.8174 50.1349C43.8518 50.129 43.3992 49.6455 43.3963 48.6608C43.3874 46.2078 43.3874 43.7548 43.3963 41.3017C43.4007 40.3229 43.8547 39.8541 44.8351 39.8482C47.2881 39.8335 49.7411 39.8335 52.1926 39.8482C53.167 39.8541 53.6049 40.3229 53.6152 41.318C53.6285 42.5445 53.6181 43.771 53.6181 44.9975H53.6167ZM51.1312 45.0358C51.1312 44.3739 51.1091 43.7105 51.1386 43.0486C51.1607 42.5607 51.0266 42.3396 50.4855 42.3528C49.1617 42.3853 47.8365 42.3794 46.5112 42.3543C46.0321 42.3455 45.864 42.5032 45.8744 42.9867C45.8994 44.3105 45.8965 45.6373 45.8744 46.9611C45.867 47.4151 45.9805 47.6303 46.4861 47.62C47.835 47.5935 49.1853 47.5994 50.5342 47.6171C50.975 47.623 51.1533 47.4726 51.1356 47.0215C51.1091 46.3596 51.1283 45.6962 51.1298 45.0343L51.1312 45.0358Z" fill="#647AA2"/>
<path d="M43.3922 72.2709C43.3922 71.0179 43.3819 69.7648 43.3966 68.5118C43.4069 67.6111 43.8477 67.1349 44.7528 67.1275C47.2589 67.1054 49.765 67.1054 52.2711 67.1275C53.1733 67.1364 53.6081 67.6081 53.6126 68.5251C53.6258 71.0061 53.6258 73.4886 53.6126 75.9696C53.6081 76.9411 53.1364 77.3966 52.1458 77.3995C49.7134 77.4098 47.281 77.4098 44.8487 77.3995C43.8654 77.3951 43.404 76.9307 43.3951 75.9563C43.3833 74.7283 43.3922 73.4989 43.3922 72.2709ZM51.1271 69.6896H45.885C45.885 71.3142 45.8703 72.8827 45.9071 74.4497C45.9101 74.5986 46.2299 74.8625 46.4068 74.8669C47.8058 74.9008 49.2063 74.9023 50.6067 74.8669C50.7836 74.8625 51.1006 74.5957 51.1035 74.4453C51.1404 72.8783 51.1257 71.3112 51.1257 69.6911L51.1271 69.6896Z" fill="#647AA2"/>
<path d="M48.5443 53.5181C49.7472 53.5181 50.9501 53.5108 52.1545 53.5196C53.1835 53.527 53.608 53.9235 53.6124 54.9274C53.6242 57.407 53.6257 59.888 53.6124 62.369C53.6065 63.2904 53.1702 63.7371 52.2592 63.7429C49.7545 63.7577 47.2499 63.7577 44.7453 63.7429C43.8402 63.7371 43.4024 63.2815 43.3979 62.3631C43.3876 59.8585 43.3862 57.3539 43.3979 54.8493C43.4024 53.9722 43.8417 53.5373 44.7144 53.5255C45.991 53.5093 47.2676 53.5211 48.5457 53.5211L48.5443 53.5181ZM51.0518 61.2324C51.0916 61.0364 51.1196 60.9656 51.1196 60.8934C51.1255 59.8128 51.1299 58.7323 51.1299 57.6517C51.1309 56.5362 50.5786 55.9785 49.473 55.9785C48.3025 55.9785 47.132 55.9785 45.8878 55.9785C45.8878 57.6871 45.8804 59.2792 45.9026 60.8713C45.904 60.9936 46.1237 61.2162 46.2446 61.2177C47.8352 61.2413 49.4258 61.2339 51.0489 61.2339L51.0518 61.2324Z" fill="#647AA2"/>
<path d="M63.0161 72.1324C62.1803 71.2995 61.3459 70.471 60.5159 69.6381C59.8024 68.9231 59.7066 68.2067 60.2417 67.6421C60.7945 67.0568 61.5493 67.1261 62.2879 67.8838C63.109 68.7256 63.8932 69.6042 64.7689 70.5476C65.562 69.7737 66.2018 69.1472 66.843 68.5207C67.1231 68.2465 67.3929 67.959 67.6818 67.6937C68.2951 67.1335 69.0086 67.1114 69.5201 67.6214C70.0199 68.1212 70.0066 68.8848 69.4449 69.4627C68.6754 70.2543 67.8764 71.0179 67.0936 71.7963C66.9742 71.9142 66.874 72.0513 66.7723 72.1736C67.6302 73.0537 68.4749 73.9058 69.2975 74.777C69.5113 75.0026 69.728 75.2679 69.8209 75.5554C69.9992 76.0993 69.8105 76.5843 69.3344 76.9072C68.7963 77.2728 68.245 77.2064 67.7821 76.7745C67.0111 76.0551 66.2725 75.3003 65.5178 74.5618C65.3291 74.376 65.1301 74.2006 64.8809 73.9677C63.9389 74.8891 63.0382 75.7853 62.1213 76.6625C61.4741 77.2831 60.6854 77.2743 60.1901 76.6684C59.7361 76.1141 59.8127 75.4595 60.4157 74.8301C61.2618 73.9456 62.1139 73.0655 63.0191 72.1279L63.0161 72.1324Z" fill="#647AA2"/>
<path d="M62.969 60.5233C63.2948 60.0958 63.5026 59.7552 63.7753 59.4796C65.4662 57.7695 67.1674 56.0698 68.873 54.376C69.5113 53.7421 70.2189 53.6964 70.757 54.2227C71.2877 54.7431 71.2803 55.4964 70.6671 56.1155C68.4042 58.399 66.1325 60.6722 63.8461 62.9306C63.2019 63.5674 62.5651 63.5409 61.9105 62.904C60.9788 61.9974 60.0545 61.082 59.1435 60.1533C58.517 59.5149 58.4742 58.7985 58.9931 58.2604C59.5342 57.6988 60.2624 57.7415 60.9287 58.4049C61.5538 59.027 62.1538 59.6742 62.969 60.5233Z" fill="#647AA2"/>
<path d="M62.8705 46.8048C64.3594 45.2923 65.7333 43.8948 67.1087 42.5002C67.6954 41.9062 68.2836 41.3135 68.8807 40.7298C69.4895 40.1342 70.2664 40.09 70.772 40.6059C71.2791 41.1249 71.2791 41.8516 70.6954 42.4413C68.4148 44.7454 66.121 47.0377 63.8184 49.3197C63.2214 49.9109 62.5491 49.8888 61.9315 49.2902C60.9806 48.3659 60.0416 47.4299 59.1129 46.482C58.504 45.8613 58.4863 45.1125 59.0318 44.5936C59.5536 44.0953 60.2671 44.1204 60.8671 44.7115C61.5128 45.3483 62.1231 46.0206 62.8705 46.8063V46.8048Z" fill="#647AA2"/>
<path d="M56.5122 18.862C58.4124 17.0104 60.2315 15.2576 62.0285 13.4798C63.4422 12.0808 64.8235 10.6464 66.2269 9.23565C67.0864 8.37179 67.6864 8.36737 68.5473 9.21796C69.6308 10.2882 70.7069 11.3673 71.7757 12.4508C72.4627 13.1466 72.4612 13.7894 71.7595 14.4984C67.0761 19.2305 62.3882 23.9596 57.696 28.6828C56.9338 29.4494 56.3206 29.4302 55.5437 28.6534C53.0597 26.1694 50.5757 23.6839 48.0962 21.197C47.2987 20.3966 47.2987 19.798 48.0962 18.9917C49.1679 17.9096 50.2426 16.8291 51.3276 15.7603C52.0617 15.038 52.7074 15.0321 53.4371 15.7529C54.4837 16.7878 55.5083 17.8463 56.5107 18.8634L56.5122 18.862ZM56.4753 25.8583C60.7062 21.7484 64.9562 17.6178 69.1325 13.5609C68.5001 12.9093 67.9252 12.3181 67.2824 11.6562C67.1203 11.8464 66.9581 12.0646 66.7694 12.2562C63.7843 15.2783 60.8005 18.3003 57.808 21.315C56.9102 22.2201 56.3515 22.2113 55.4464 21.2958C54.4498 20.286 53.468 19.2629 52.5703 18.3401C51.8435 18.9814 51.2273 19.5253 50.6332 20.0487C52.6646 22.0683 54.6606 24.054 56.4768 25.8598L56.4753 25.8583Z" fill="#647AA2"/>
</g>
<defs>
<clipPath id="clip0_28_1116">
<rect width="79.7509" height="80" fill="white"/>
</clipPath>
</defs>
</svg>
