<svg width="18" height="18" viewBox="0 0 18 18" fill="none" xmlns="http://www.w3.org/2000/svg">
<path d="M5.60545 7.48466C5.94353 8.24802 6.40481 8.87019 6.90941 9.46142C7.6919 10.3778 8.56495 11.1963 9.57527 11.859C9.79354 12.0018 10.0321 12.1138 10.2537 12.2522C10.3921 12.3382 10.4804 12.3084 10.5901 12.197C10.9777 11.8033 11.3641 11.4061 11.7731 11.0354C12.4853 10.3902 13.4039 10.3879 14.0986 11.05C14.8581 11.7734 15.6023 12.5149 16.3252 13.2749C17.1082 14.0973 17.0829 15.039 16.2807 15.8946C15.8515 16.3525 15.4138 16.8031 14.9582 17.234C14.2899 17.8668 13.4737 18.0694 12.5747 17.9799C10.7071 17.7937 9.08811 16.9645 7.54564 15.9762C4.72395 14.1676 2.56212 11.7515 1.05283 8.75768C0.592674 7.84525 0.229275 6.89231 0.0678266 5.8803C-0.121186 4.69616 0.0526381 3.60596 1.00108 2.74528C1.43761 2.34925 1.82013 1.89191 2.26904 1.51164C3.03915 0.858531 3.87958 0.852905 4.62438 1.54089C5.44231 2.29638 6.22592 3.09349 6.97691 3.91536C7.60414 4.60165 7.57433 5.48428 6.94147 6.17563C6.52463 6.63073 6.05998 7.04194 5.60432 7.48522L5.60545 7.48466ZM1.02302 5.11975C1.06352 5.41565 1.06127 5.7256 1.15352 6.00462C1.41342 6.79105 1.64349 7.59829 2.00746 8.33747C3.28948 10.9431 5.15091 13.0768 7.53045 14.7324C9.07799 15.8091 10.7133 16.7333 12.6439 16.9578C13.3077 17.0349 13.8849 16.8796 14.3597 16.3941C14.7394 16.0054 15.1202 15.6173 15.501 15.2291C15.9933 14.7279 15.9966 14.3876 15.501 13.8875C14.8474 13.2287 14.1903 12.5734 13.5327 11.9186C13.0816 11.4697 12.7643 11.4669 12.3098 11.9135C11.9019 12.314 11.502 12.723 11.0952 13.1247C10.7408 13.4751 10.4793 13.5049 10.0343 13.2917C9.07068 12.8305 8.21843 12.2094 7.441 11.4854C6.32493 10.4459 5.31799 9.31741 4.67163 7.91219C4.44887 7.42784 4.50681 7.15445 4.89271 6.78149C5.28367 6.40346 5.67801 6.02881 6.05773 5.64066C6.52013 5.16813 6.51676 4.86098 6.05435 4.39352C5.38887 3.72072 4.72001 3.05074 4.0489 2.38357C3.62869 1.9656 3.25291 1.96335 2.82989 2.37569C2.44736 2.74866 2.08059 3.13737 1.69356 3.50583C1.23003 3.94686 1.00051 4.4734 1.02414 5.11863L1.02302 5.11975Z" fill="white"/>
<path d="M9.44476 0.483881C9.46276 0.181235 9.74347 -0.0477173 10.0517 0.00853645C11.867 0.339309 13.4753 1.0993 14.853 2.33519C16.1401 3.48952 17.075 4.87786 17.6117 6.52328C17.7613 6.98231 17.8609 7.45935 17.9655 7.93188C18.0268 8.20865 17.871 8.42972 17.6016 8.50454C17.3434 8.57598 17.0784 8.4556 16.998 8.19064C16.8871 7.82556 16.8292 7.44416 16.7122 7.08132C15.7682 4.14825 13.8179 2.21425 10.8916 1.26468C10.5558 1.15555 10.2036 1.09817 9.86104 1.00873C9.5899 0.937848 9.4307 0.729147 9.44533 0.484443L9.44476 0.483881Z" fill="white"/>
<path d="M14.1493 8.67386C13.9507 8.66768 13.7752 8.54392 13.7161 8.27727C13.5727 7.62473 13.3606 7.00088 12.9865 6.44003C12.222 5.29414 11.1661 4.58534 9.81997 4.29563C9.39863 4.20507 9.24281 3.97555 9.32775 3.63409C9.39976 3.34551 9.65796 3.22625 10.0478 3.31176C12.2946 3.80229 13.7718 5.15632 14.5234 7.3159C14.6089 7.56116 14.6645 7.81824 14.718 8.07364C14.7838 8.38641 14.5369 8.67499 14.1493 8.67443V8.67386Z" fill="white"/>
</svg>
