<svg width="19" height="14" viewBox="0 0 19 14" fill="none" xmlns="http://www.w3.org/2000/svg">
<path d="M9.48081 0.00763052C11.6906 0.00763052 13.9011 0.00640216 16.1109 0.00763052C17.7723 0.00885888 18.9926 1.22862 18.9945 2.89367C18.9975 5.6151 18.9969 8.33716 18.9945 11.0586C18.9932 12.7728 17.7686 13.9993 16.0593 13.9993C11.6697 14.0005 7.28019 13.9999 2.89126 13.9993C1.47188 13.9993 0.378027 13.1401 0.0574245 11.7618C0.00951838 11.5561 0.0138177 11.3356 0.0138177 11.1212C0.0107467 8.38015 0.0408416 5.63783 0.000305667 2.89612C-0.0230332 1.29127 1.29316 -0.021236 2.91214 0.000260344C5.10108 0.029741 7.29125 0.00763052 9.48081 0.00763052ZM9.48879 12.9712C11.6888 12.9712 13.8888 12.973 16.0888 12.9705C17.2336 12.9693 17.959 12.2378 17.9596 11.0868C17.9608 8.37523 17.9602 5.66362 17.9596 2.95201C17.9596 1.75928 17.2447 1.03823 16.0581 1.03823C11.6888 1.037 7.3195 1.037 2.95022 1.03823C1.75072 1.03823 1.02292 1.7648 1.02169 2.96798C1.01923 5.65933 1.01923 8.35067 1.02169 11.0414C1.02292 12.2433 1.75195 12.9705 2.95083 12.9712C5.13056 12.9724 7.30967 12.9712 9.4894 12.9712H9.48879Z" fill="white"/>
<path d="M13.0799 7.0486C13.9914 7.98277 14.8911 8.90589 15.7909 9.82839C15.8978 9.93833 16.0163 10.0397 16.109 10.1607C16.2411 10.3326 16.2571 10.5224 16.0955 10.6876C15.9297 10.8578 15.735 10.8676 15.5422 10.7331C15.4592 10.6753 15.3898 10.5973 15.3168 10.5261C14.3513 9.5821 13.3864 8.63749 12.3945 7.66708C12.1617 7.87345 11.9363 8.07551 11.7091 8.27512C10.4666 9.36529 8.78739 9.4783 7.57009 8.53983C7.22308 8.27267 6.9037 7.96987 6.56099 7.67384C5.56172 8.65223 4.57473 9.61895 3.58774 10.5844C3.52939 10.6416 3.4735 10.7036 3.40594 10.7472C3.22107 10.8664 3.0448 10.8811 2.89003 10.6944C2.72604 10.4942 2.72604 10.2589 3.0362 9.96289C3.97774 8.99494 4.9199 8.02761 5.87863 7.04308C5.22146 6.4553 4.51884 5.83191 3.82235 5.20176C3.40533 4.82404 2.99628 4.43772 2.58662 4.05201C2.32252 3.80327 2.274 3.49618 2.4601 3.2978C2.66647 3.07792 2.92934 3.09758 3.2137 3.35369C4.78171 4.76262 6.34787 6.17278 7.91894 7.57864C8.86478 8.42498 10.0852 8.4342 11.0285 7.59215C12.6015 6.18875 14.1658 4.77675 15.7332 3.3672C16.0114 3.11723 16.3025 3.08652 16.4917 3.2935C16.679 3.49925 16.6403 3.81125 16.3799 4.04894C15.4199 4.92476 14.4563 5.79567 13.4939 6.66843C13.3428 6.80539 13.1935 6.94419 13.0805 7.0486H13.0799Z" fill="white"/>
</svg>
