<svg width="81" height="80" viewBox="0 0 81 80" fill="none" xmlns="http://www.w3.org/2000/svg">
<path d="M40.5661 0.0048736C54.2975 0.0048736 65.5075 11.2227 65.5026 24.9577C65.5026 38.8144 54.2877 50.003 40.42 49.9933C26.6399 49.9836 15.5126 38.7463 15.5272 24.8506C15.537 11.1497 26.7762 0 40.5661 0V0.0048736ZM56.1131 41.1174C55.714 40.6354 55.3684 40.1485 54.9644 39.7249C54.0006 38.7171 53.6306 37.5291 53.655 36.1512C53.6939 34.1306 53.6842 32.1052 53.655 30.0846C53.6501 29.7048 53.5235 29.2861 53.3288 28.9648C52.5159 27.621 51.6544 26.3112 50.8123 24.9821C50.1211 23.8963 50.1162 23.8671 48.8847 24.2176C47.8187 24.5195 46.8209 24.5 45.8766 23.8671C44.4942 22.9371 43.0826 22.051 41.7343 21.0772C41.3741 20.8143 41.0625 20.3226 40.9652 19.8844C40.6829 18.6087 40.4298 17.3136 40.3519 16.0185C40.3081 15.3077 40.42 14.3777 40.8484 13.8859C42.0799 12.474 43.5255 11.2568 45.273 10.4778C45.5066 10.3755 45.7743 10.3366 46.0323 10.2976C47.8382 10.0298 49.2741 10.7115 50.5008 12.0017C50.8999 12.4204 51.3623 12.8586 51.8832 13.0777C53.5284 13.7642 55.2126 14.3534 56.8822 14.9717C57.0769 15.0447 57.3251 15.1811 57.4858 15.1178C58.3619 14.7867 59.2186 14.402 60.0899 14.032C54.8865 4.52315 43.8614 0.788761 35.1241 3.27187C36.0441 3.80258 36.9056 4.28946 37.7526 4.79582C38.8478 5.45799 39.3881 6.60215 39.1739 7.7512C38.9013 9.20699 37.8256 10.1467 36.3313 10.1467C35.7715 10.1467 35.5281 10.2927 35.4648 10.877C35.3918 11.5586 35.2701 12.25 35.0462 12.8976C34.871 13.4137 34.6179 13.9736 34.2285 14.329C32.4421 15.9698 30.6119 17.5668 28.7573 19.1297C28.217 19.5874 28.1051 20.0596 28.2949 20.7267C29.6481 20.7802 30.6362 21.3937 31.2398 22.6353C31.3177 22.7959 31.6681 22.8933 31.892 22.8982C33.1527 22.9225 34.4134 22.9128 35.6741 22.9128C36.7596 22.9128 37.7136 23.2341 38.3367 24.1543C38.6628 24.6364 38.9354 25.1963 39.0863 25.7562C39.393 26.9198 40.055 27.4359 41.2816 27.655C43.9636 28.1322 45.0734 30.7662 43.7154 33.1276C43.0631 34.2621 42.3914 35.3868 41.6905 36.4871C41.5104 36.7695 41.2086 37.125 40.9214 37.1688C39.3005 37.4122 39.0084 38.4395 39.2275 39.8272C39.2372 39.8758 39.2275 39.9245 39.2275 39.9684C39.2615 40.6841 38.9451 41.1758 38.3221 41.5313C37.2707 42.1301 36.2388 42.7728 35.202 43.4009C35.0219 43.508 34.7931 43.6249 34.7201 43.7953C34.355 44.6376 34.0386 45.4994 33.7028 46.3514C40.6099 48.8296 49.941 47.2765 56.1131 41.1174ZM61.1802 16.296C60.1824 16.7245 59.2429 17.1919 58.2597 17.523C57.8021 17.6788 57.2326 17.6885 56.7653 17.5619C55.8989 17.3282 55.0666 16.9533 54.2245 16.6368C52.0146 15.8043 49.7122 15.2054 48.0962 13.2287C47.4391 12.4253 46.2952 12.5324 45.4239 13.1897C44.684 13.7496 43.9831 14.3631 43.2432 14.9181C42.8392 15.22 42.7419 15.5657 42.8295 16.0331C42.9901 16.8998 43.0875 17.7762 43.2968 18.6331C43.3746 18.9593 43.6229 19.3147 43.8955 19.5143C44.7181 20.1229 45.6235 20.6147 46.4315 21.2379C47.1762 21.8124 47.8869 21.9342 48.802 21.6664C50.4959 21.1649 51.669 21.6712 52.6328 23.1757C53.6744 24.797 54.7258 26.4086 55.714 28.064C55.9914 28.5266 56.1569 29.1206 56.1715 29.661C56.225 31.7303 56.298 33.8093 56.1569 35.8688C56.0498 37.4171 57.0136 38.2253 57.846 39.2185C63.1029 33.3078 64.5437 23.6382 61.1948 16.3009L61.1802 16.296ZM31.3663 45.4312C31.5221 45.032 31.7168 44.6717 31.8093 44.287C32.2084 42.5683 33.1917 41.3706 34.8223 40.6889C35.1679 40.5429 35.46 40.2654 35.8056 40.1144C36.526 39.8028 36.7888 39.3305 36.7596 38.5126C36.7012 36.7014 37.4459 35.7519 39.1399 35.1433C39.427 35.0411 39.7386 34.8317 39.9041 34.5834C40.4882 33.6875 41.0285 32.7625 41.5639 31.8374C42.0507 30.9951 41.7489 30.294 40.7948 30.0603C40.1961 29.9142 39.5877 29.7973 38.9792 29.7097C38.2442 29.6026 37.7721 29.2374 37.5189 28.5314C37.222 27.7037 36.857 26.9004 36.56 26.0775C36.3799 25.576 36.0635 25.391 35.5378 25.3959C33.9899 25.4202 32.4469 25.4056 30.899 25.4008C29.6091 25.4008 29.3463 25.1963 28.9958 23.9596C28.7816 23.2001 28.4604 23.054 27.8325 23.4873C26.932 24.1105 26.0412 24.7483 25.1699 25.4056C25.0044 25.5322 24.8292 25.7854 24.8389 25.9704C24.8632 26.506 24.8973 27.0659 25.0725 27.5674C25.4181 28.5753 25.9341 29.5344 26.2456 30.552C26.6448 31.852 27.3262 32.5726 28.7573 32.928C31.2252 33.5366 32.0624 36.565 30.4853 38.571C30.2371 38.8875 29.9888 39.2186 29.6821 39.4815C29.2197 39.8807 29.1759 40.3481 29.2927 40.8983C29.5118 41.8964 29.7746 42.8945 29.8866 43.9073C29.9839 44.8177 30.4318 45.2608 31.3761 45.4361L31.3663 45.4312ZM25.681 20.7608C25.681 20.4589 25.7102 20.157 25.6761 19.86C25.5642 18.9203 25.9146 18.2484 26.6545 17.6447C28.071 16.4859 29.3512 15.1519 30.8163 14.0612C32.1938 13.0388 32.8509 11.7729 33.104 10.1029C33.4204 8.0336 33.2452 7.61488 35.9565 7.66844C36.195 7.66844 36.4384 7.47368 36.6769 7.37143C36.5065 7.16694 36.3799 6.89429 36.1658 6.77257C34.8953 6.02764 33.5957 5.32652 32.3301 4.57672C31.931 4.34301 31.6194 4.35275 31.2106 4.54263C27.6572 6.17857 24.7318 8.57891 22.41 11.7242C21.1347 13.4526 20.1368 15.332 19.3823 17.4353C19.6695 17.4792 19.8983 17.523 20.1271 17.5473C20.9789 17.6447 21.8259 17.7518 22.6777 17.8248C23.3592 17.8833 23.7729 18.2192 23.9627 18.8619C24.0504 19.1589 24.1964 19.4413 24.2451 19.7432C24.3765 20.5368 24.8778 20.79 25.6859 20.7705L25.681 20.7608ZM24.1769 23.015C22.6582 22.9566 22.2834 21.9974 22.0157 20.936C21.9914 20.8435 21.9865 20.7218 21.9232 20.6682C21.7139 20.4881 21.4997 20.2252 21.2564 20.1814C20.6041 20.0645 19.9275 20.0791 19.2704 19.9769C18.7544 19.899 18.5792 20.0548 18.4819 20.5709C17.1189 27.9082 18.8907 34.3935 23.7972 40.0024C24.7416 41.0785 25.8708 41.9938 26.9174 42.9822C26.9806 42.9335 27.0488 42.8897 27.1121 42.841C26.9904 42.1496 26.8736 41.4534 26.7519 40.762C26.5815 39.8077 26.8346 38.9702 27.4382 38.2351C27.74 37.865 28.0807 37.5339 28.3874 37.1688C29.0688 36.3508 28.8109 35.4841 27.7935 35.1871C27.2922 35.0411 26.7811 34.9194 26.27 34.8317C25.5204 34.7003 25.0531 34.2962 24.7756 33.5756C24.2305 32.1539 23.6853 30.7321 23.0428 29.3543C22.4489 28.0884 22.2153 26.803 22.2834 25.4154C22.3175 24.685 22.5171 24.1251 23.1547 23.7405C23.4516 23.5603 23.7242 23.3412 24.1818 23.015H24.1769Z" fill="white"/>
<path d="M80.4947 43.9266C80.4947 47.067 80.4801 50.2074 80.4996 53.3527C80.5142 56.2059 79.6137 58.7279 77.7835 60.9043C73.8505 65.5881 69.8932 70.2476 65.9699 74.9363C65.7119 75.2479 65.5561 75.7202 65.5269 76.134C65.4588 77.0104 65.5172 77.8917 65.5026 78.7729C65.488 79.6299 65.1229 79.9853 64.2906 79.9853C59.2721 79.9853 54.2488 79.9853 49.2303 79.9853C48.4174 79.9853 48.0231 79.6542 48.0231 78.8411C48.0183 74.5322 47.9063 70.2184 48.0864 65.9192C48.2811 61.3376 51.6544 57.7201 56.4587 56.5808C57.033 56.4444 57.4954 56.2156 57.9141 55.7823C59.8514 53.786 61.8324 51.8288 63.7649 49.8228C64.0229 49.5501 64.2176 49.0925 64.2224 48.7176C64.2614 45.9326 64.237 43.1476 64.2468 40.3626C64.2565 36.5162 66.7633 33.9065 70.5941 33.7118C70.8277 33.7021 71.1344 33.4635 71.2609 33.2444C72.5022 31.141 74.3275 30.0309 76.7613 30.0017C78.83 29.9774 80.4801 31.6279 80.4899 33.7118C80.5094 37.1151 80.4947 40.5184 80.4947 43.9218V43.9266ZM63.0055 77.4535C63.0055 76.8984 63.0494 76.4213 62.9958 75.9539C62.8839 74.9558 63.2489 74.2011 63.8963 73.4416C67.8975 68.7577 71.8548 64.0301 75.8365 59.3219C77.3162 57.574 77.9977 55.5534 77.9977 53.2748C77.9977 46.8966 77.9977 40.5184 77.9977 34.1354C77.9977 32.8013 77.3357 32.295 76.0214 32.5871C74.1669 33.0009 73.0133 34.5054 73.0133 36.5649C73.0035 41.5896 72.9938 46.6094 73.0133 51.634C73.023 53.6497 72.3659 55.3392 70.9105 56.7512C69.494 58.1242 68.1311 59.5556 66.739 60.9627C65.5026 62.214 64.2614 63.4653 63.0153 64.7117C62.5918 65.1353 62.0904 65.2814 61.5209 65.0087C61.0196 64.7653 60.7226 64.3368 60.8346 63.8012C60.9125 63.4361 61.151 63.0612 61.4187 62.7885C63.9644 60.1886 66.5443 57.6178 69.09 55.013C69.4794 54.6137 69.8445 54.1269 70.0294 53.6156C70.3994 52.5786 69.8834 51.4636 68.8953 50.8745C67.9315 50.3048 66.7244 50.446 65.8774 51.2883C64.0034 53.1531 62.1099 54.9935 60.3138 56.9313C59.2429 58.0901 58.0552 58.8156 56.4927 59.2002C52.769 60.1155 50.5202 63.1537 50.5153 66.9855C50.5105 70.2233 50.5153 73.461 50.5153 76.6988C50.5153 76.9471 50.5153 77.1954 50.5153 77.4584H63.0055V77.4535ZM70.4773 36.302C68.4378 36.3215 66.8071 37.9331 66.7828 39.9537C66.7487 42.5195 66.773 45.0903 66.7779 47.6562C66.7779 47.7925 66.812 47.9337 66.8023 47.8655C68.097 48.1382 69.2945 48.3865 70.4773 48.6348V36.2971V36.302Z" fill="white"/>
<path d="M24.2986 79.9902C21.7772 79.9902 19.2558 79.9902 16.7344 79.9902C15.9312 79.9902 15.5564 79.6397 15.5369 78.8363C15.5175 77.8869 15.5613 76.9326 15.5126 75.9832C15.498 75.657 15.3666 75.2772 15.1621 75.0338C11.2291 70.3499 7.28154 65.6807 3.33394 61.0115C1.46479 58.801 0.525347 56.2546 0.535082 53.3479C0.554552 47.0184 0.622695 40.6841 0.501005 34.3546C0.447462 31.5891 2.53565 29.1839 6.04517 30.255C7.67094 30.7516 8.91217 31.7254 9.72506 33.2153C9.92949 33.5902 10.1437 33.746 10.5964 33.7557C14.0572 33.8141 16.7441 36.5309 16.7879 40.0316C16.822 42.9091 16.8074 45.7915 16.7879 48.669C16.7879 49.1559 16.9145 49.5113 17.2649 49.8619C19.2558 51.8435 21.2077 53.864 23.2083 55.831C23.5538 56.1719 24.0552 56.4445 24.5274 56.5565C29.2051 57.6909 32.2863 60.919 32.9239 65.4422C33.0067 66.0264 33.0213 66.6301 33.0213 67.2241C33.031 70.9391 33.0262 74.6491 33.0213 78.3641C33.0213 79.7858 32.7974 80 31.3614 80C29.0055 80 26.6496 80 24.2937 80L24.2986 79.9902ZM30.5242 77.4633C30.5242 77.2199 30.5242 77.0543 30.5242 76.8888C30.5242 73.4855 30.5437 70.0822 30.5193 66.6788C30.495 63.2804 28.2657 60.3104 25.0141 59.2977C24.4251 59.1126 23.8021 59.025 23.2277 58.801C22.7361 58.6063 22.225 58.358 21.8453 58.0026C20.867 57.097 19.9616 56.1183 19.0221 55.1689C17.7176 53.8494 16.4228 52.5154 15.094 51.2251C14.2519 50.4023 13.0155 50.3098 12.0664 50.9184C11.1123 51.5319 10.6402 52.6127 11.0101 53.6303C11.1902 54.1221 11.5358 54.5895 11.9106 54.9741C14.0718 57.1895 16.2574 59.3756 18.438 61.5714C18.9394 62.0778 19.4602 62.5744 19.9275 63.11C20.3656 63.6163 20.3266 64.2688 19.9032 64.7362C19.4651 65.2133 18.769 65.2863 18.2239 64.8822C17.9951 64.7118 17.8004 64.4976 17.6008 64.298C15.1086 61.7759 12.631 59.2392 10.1145 56.7415C8.69314 55.3344 8.01168 53.679 8.03115 51.6877C8.05549 49.0682 8.03601 46.4537 8.03601 43.8342C8.03601 41.3803 8.04574 38.9313 8.03601 36.4774C8.0214 34.5883 6.97002 33.1617 5.28097 32.6651C3.76229 32.2171 3.04674 32.7381 3.04674 34.3108C3.04674 40.4991 3.07594 46.6874 3.03214 52.8757C3.01267 55.5292 3.84502 57.7835 5.57301 59.7943C9.56929 64.4538 13.5169 69.1571 17.4499 73.8701C17.7809 74.2694 17.9415 74.878 18.0145 75.4087C18.1119 76.0757 18.0389 76.7622 18.0389 77.4633H30.5291H30.5242ZM14.2519 47.8754C14.2178 47.9922 14.2519 47.924 14.2519 47.8559C14.2519 45.1683 14.3103 42.4807 14.2178 39.7931C14.1935 39.0871 13.8284 38.3178 13.4195 37.7141C12.7722 36.7549 11.7694 36.3021 10.5866 36.2778V48.6154C11.7889 48.372 12.9717 48.1285 14.2519 47.8705V47.8754Z" fill="white"/>
</svg>
