<svg width="25" height="24" viewBox="0 0 25 24" fill="none" xmlns="http://www.w3.org/2000/svg">
<path d="M12.5198 0.00146208C16.6392 0.00146208 20.0023 3.36681 20.0008 7.48731C20.0008 11.6443 16.6363 15.0009 12.476 14.998C8.34197 14.9951 5.00379 11.6239 5.00817 7.45518C5.01109 3.3449 8.38286 0 12.5198 0V0.00146208ZM17.1839 12.3352C17.0642 12.1906 16.9605 12.0446 16.8393 11.9175C16.5502 11.6151 16.4392 11.2587 16.4465 10.8454C16.4582 10.2392 16.4553 9.63155 16.4465 9.02538C16.445 8.91145 16.4071 8.78583 16.3486 8.68943C16.1048 8.28629 15.8463 7.89337 15.5937 7.49462C15.3863 7.16889 15.3849 7.16013 15.0154 7.26529C14.6956 7.35585 14.3963 7.35001 14.113 7.16013C13.6983 6.88114 13.2748 6.6153 12.8703 6.32317C12.7622 6.24429 12.6688 6.09677 12.6396 5.96531C12.5549 5.58262 12.4789 5.19409 12.4556 4.80555C12.4424 4.5923 12.476 4.31331 12.6045 4.16578C12.974 3.7422 13.4077 3.37703 13.9319 3.14333C14.002 3.11265 14.0823 3.10097 14.1597 3.08928C14.7015 3.00895 15.1322 3.21344 15.5002 3.60051C15.62 3.72613 15.7587 3.85759 15.915 3.92332C16.4085 4.12927 16.9138 4.30601 17.4147 4.49151C17.4731 4.51342 17.5475 4.55432 17.5957 4.53533C17.8586 4.43601 18.1156 4.32061 18.377 4.2096C16.8159 1.35695 13.5084 0.236628 10.8872 0.981562C11.1632 1.14077 11.4217 1.28684 11.6758 1.43875C12.0043 1.6374 12.1664 1.98065 12.1022 2.32536C12.0204 2.7621 11.6977 3.044 11.2494 3.044C11.0814 3.044 11.0084 3.08782 10.9894 3.2631C10.9675 3.46759 10.931 3.67501 10.8639 3.86927C10.8113 4.0241 10.7354 4.19208 10.6185 4.2987C10.0826 4.79095 9.53355 5.27004 8.97719 5.73891C8.8151 5.87621 8.78152 6.01789 8.83847 6.218C9.24442 6.23407 9.54086 6.41811 9.72193 6.79058C9.7453 6.83878 9.85043 6.868 9.91761 6.86946C10.2958 6.87676 10.674 6.87384 11.0522 6.87384C11.3779 6.87384 11.6641 6.97024 11.851 7.2463C11.9488 7.39091 12.0306 7.55888 12.0759 7.72686C12.1679 8.07596 12.3665 8.23078 12.7345 8.29651C13.5391 8.43966 13.872 9.22987 13.4646 9.93829C13.2689 10.2786 13.0674 10.616 12.8571 10.9461C12.8031 11.0309 12.7126 11.1375 12.6264 11.1506C12.1401 11.2237 12.0525 11.5319 12.1182 11.9481C12.1212 11.9628 12.1182 11.9774 12.1182 11.9905C12.1285 12.2052 12.0335 12.3527 11.8466 12.4594C11.5312 12.639 11.2216 12.8318 10.9106 13.0203C10.8566 13.0524 10.7879 13.0875 10.766 13.1386C10.6565 13.3913 10.5616 13.6498 10.4608 13.9054C12.533 14.6489 15.3323 14.1829 17.1839 12.3352ZM18.7041 4.88881C18.4047 5.01735 18.1229 5.15757 17.8279 5.25689C17.6906 5.30363 17.5198 5.30655 17.3796 5.26858C17.1197 5.19847 16.87 5.086 16.6173 4.99105C15.9544 4.74128 15.2637 4.56162 14.7789 3.9686C14.5817 3.72759 14.2386 3.75972 13.9772 3.95691C13.7552 4.12489 13.5449 4.30893 13.323 4.47544C13.2018 4.566 13.1726 4.66971 13.1988 4.80993C13.247 5.06993 13.2762 5.33285 13.339 5.58992C13.3624 5.68779 13.4369 5.79441 13.5186 5.8543C13.7654 6.03688 14.037 6.18441 14.2794 6.37137C14.5029 6.54373 14.7161 6.58025 14.9906 6.49991C15.4988 6.34946 15.8507 6.50137 16.1398 6.95271C16.4523 7.43911 16.7677 7.92259 17.0642 8.41921C17.1474 8.55797 17.1971 8.73617 17.2015 8.8983C17.2175 9.51908 17.2394 10.1428 17.1971 10.7606C17.1649 11.2251 17.4541 11.4676 17.7038 11.7656C19.2809 9.99233 19.7131 7.09147 18.7085 4.89027L18.7041 4.88881ZM9.7599 13.6294C9.80663 13.5096 9.86504 13.4015 9.89279 13.2861C10.0125 12.7705 10.3075 12.4112 10.7967 12.2067C10.9004 12.1629 10.988 12.0796 11.0917 12.0343C11.3078 11.9408 11.3866 11.7992 11.3779 11.5538C11.3604 11.0104 11.5838 10.7256 12.092 10.543C12.1781 10.5123 12.2716 10.4495 12.3212 10.375C12.4964 10.1063 12.6585 9.82874 12.8192 9.55121C12.9652 9.29852 12.8747 9.08819 12.5884 9.01808C12.4088 8.97426 12.2263 8.9392 12.0438 8.91291C11.8233 8.88077 11.6816 8.77123 11.6057 8.55943C11.5166 8.31112 11.4071 8.07011 11.318 7.82326C11.264 7.67282 11.1691 7.61731 11.0114 7.61877C10.547 7.62608 10.0841 7.62169 9.61971 7.62023C9.23274 7.62023 9.15388 7.55888 9.04874 7.18788C8.98449 6.96002 8.88811 6.9162 8.69974 7.04619C8.42959 7.23316 8.16236 7.4245 7.90097 7.62169C7.85132 7.65967 7.79875 7.73562 7.80167 7.79113C7.80897 7.9518 7.81919 8.11978 7.87176 8.27022C7.97544 8.57258 8.13023 8.86033 8.22369 9.1656C8.34343 9.5556 8.54787 9.77178 8.97719 9.8784C9.71755 10.061 9.96872 10.9695 9.49559 11.5713C9.42112 11.6662 9.34664 11.7656 9.25464 11.8444C9.11592 11.9642 9.10277 12.1044 9.13782 12.2695C9.20353 12.5689 9.28239 12.8684 9.31598 13.1722C9.34518 13.4453 9.47953 13.5782 9.76282 13.6308L9.7599 13.6294ZM8.0543 6.22823C8.0543 6.13767 8.06306 6.04711 8.05284 5.95801C8.01925 5.6761 8.12439 5.47453 8.34635 5.29341C8.77129 4.94577 9.15535 4.54556 9.59489 4.21837C10.0081 3.91163 10.2053 3.53186 10.2812 3.03086C10.3761 2.41008 10.3236 2.28446 11.1369 2.30053C11.2085 2.30053 11.2815 2.2421 11.3531 2.21143C11.3019 2.15008 11.264 2.06829 11.1997 2.03177C10.8186 1.80829 10.4287 1.59796 10.049 1.37302C9.92929 1.3029 9.83583 1.30582 9.71317 1.36279C8.64717 1.85357 7.76954 2.57367 7.07299 3.51725C6.6904 4.03579 6.39105 4.5996 6.1647 5.2306C6.25086 5.24375 6.3195 5.25689 6.38813 5.26419C6.64368 5.29341 6.89776 5.32554 7.15331 5.34745C7.35775 5.36498 7.48187 5.46577 7.53882 5.65857C7.56511 5.74767 7.60892 5.83239 7.62352 5.92295C7.66295 6.16104 7.81335 6.23699 8.05576 6.23115L8.0543 6.22823ZM7.60307 6.90451C7.14747 6.88698 7.03503 6.59924 6.95471 6.28081C6.94741 6.25306 6.94595 6.21654 6.92697 6.20047C6.86417 6.14643 6.79992 6.06755 6.72691 6.05441C6.53123 6.01935 6.32826 6.02374 6.13112 5.99306C5.97633 5.96969 5.92376 6.01643 5.89456 6.17126C5.48568 8.37247 6.01722 10.3181 7.48917 12.0007C7.77246 12.3235 8.11125 12.5981 8.42521 12.8947C8.44419 12.88 8.46463 12.8669 8.48362 12.8523C8.44711 12.6449 8.41207 12.436 8.37556 12.2286C8.32445 11.9423 8.40038 11.6911 8.58146 11.4705C8.67199 11.3595 8.77421 11.2602 8.86621 11.1506C9.07065 10.9052 8.99326 10.6452 8.68806 10.5561C8.53765 10.5123 8.38432 10.4758 8.23099 10.4495C8.00611 10.4101 7.86592 10.2888 7.78269 10.0727C7.61914 9.64616 7.45559 9.21964 7.26283 8.80628C7.08468 8.42651 7.01459 8.0409 7.03503 7.62461C7.04525 7.40551 7.10512 7.23754 7.29642 7.12215C7.38549 7.0681 7.46727 7.00237 7.60453 6.90451H7.60307Z" fill="white"/>
<path d="M24.4984 13.178C24.4984 14.1201 24.494 15.0622 24.4999 16.0058C24.5043 16.8618 24.2341 17.6184 23.6851 18.2713C22.5052 19.6764 21.3179 21.0743 20.141 22.4809C20.0636 22.5744 20.0168 22.7161 20.0081 22.8402C19.9876 23.1031 20.0052 23.3675 20.0008 23.6319C19.9964 23.889 19.8869 23.9956 19.6372 23.9956C18.1316 23.9956 16.6246 23.9956 15.1191 23.9956C14.8752 23.9956 14.7569 23.8963 14.7569 23.6523C14.7555 22.3597 14.7219 21.0655 14.7759 19.7758C14.8343 18.4013 15.8463 17.316 17.2876 16.9742C17.4599 16.9333 17.5986 16.8647 17.7242 16.7347C18.3054 16.1358 18.8997 15.5486 19.4795 14.9468C19.5569 14.865 19.6153 14.7277 19.6167 14.6153C19.6284 13.7798 19.6211 12.9443 19.624 12.1088C19.627 10.9549 20.379 10.172 21.5282 10.1135C21.5983 10.1106 21.6903 10.039 21.7283 9.97332C22.1007 9.34231 22.6483 9.00928 23.3784 9.00052C23.999 8.99322 24.494 9.48838 24.497 10.1135C24.5028 11.1345 24.4984 12.1555 24.4984 13.1765V13.178ZM19.2517 23.236C19.2517 23.0695 19.2648 22.9264 19.2487 22.7862C19.2152 22.4867 19.3247 22.2603 19.5189 22.0325C20.7192 20.6273 21.9064 19.209 23.1009 17.7966C23.5449 17.2722 23.7493 16.666 23.7493 15.9824C23.7493 14.069 23.7493 12.1555 23.7493 10.2406C23.7493 9.8404 23.5507 9.68849 23.1564 9.77613C22.6001 9.90028 22.254 10.3516 22.254 10.9695C22.2511 12.4769 22.2481 13.9828 22.254 15.4902C22.2569 16.0949 22.0598 16.6018 21.6231 17.0254C21.1982 17.4373 20.7893 17.8667 20.3717 18.2888C20.0008 18.6642 19.6284 19.0396 19.2546 19.4135C19.1275 19.5406 18.9771 19.5844 18.8063 19.5026C18.6559 19.4296 18.5668 19.301 18.6004 19.1404C18.6237 19.0308 18.6953 18.9184 18.7756 18.8366C19.5393 18.0566 20.3133 17.2853 21.077 16.5039C21.1938 16.3841 21.3033 16.2381 21.3588 16.0847C21.4698 15.7736 21.315 15.4391 21.0186 15.2623C20.7295 15.0914 20.3673 15.1338 20.1132 15.3865C19.551 15.9459 18.983 16.4981 18.4441 17.0794C18.1229 17.427 17.7666 17.6447 17.2978 17.7601C16.1807 18.0347 15.5061 18.9461 15.5046 20.0956C15.5031 21.067 15.5046 22.0383 15.5046 23.0096C15.5046 23.0841 15.5046 23.1586 15.5046 23.2375H19.2517V23.236ZM21.4932 10.8906C20.8813 10.8965 20.3921 11.3799 20.3848 11.9861C20.3746 12.7559 20.3819 13.5271 20.3834 14.2969C20.3834 14.3377 20.3936 14.3801 20.3907 14.3597C20.7791 14.4415 21.1383 14.5159 21.4932 14.5904V10.8891V10.8906Z" fill="white"/>
<path d="M7.63957 23.9971C6.88315 23.9971 6.12673 23.9971 5.37031 23.9971C5.12937 23.9971 5.01692 23.8919 5.01108 23.6509C5.00524 23.3661 5.01839 23.0798 5.00378 22.795C4.9994 22.6971 4.95998 22.5832 4.89864 22.5101C3.71874 21.105 2.53446 19.7042 1.35018 18.3035C0.789437 17.6403 0.507604 16.8764 0.510525 16.0044C0.516366 14.1055 0.536808 12.2052 0.500302 10.3064C0.484239 9.47672 1.11069 8.75516 2.16355 9.0765C2.65128 9.22549 3.02365 9.51762 3.26752 9.96458C3.32885 10.0771 3.3931 10.1238 3.52891 10.1267C4.56716 10.1442 5.37323 10.9593 5.38637 12.0095C5.3966 12.8727 5.39222 13.7374 5.38637 14.6007C5.38637 14.7468 5.42434 14.8534 5.52948 14.9586C6.12673 15.553 6.7123 16.1592 7.31247 16.7493C7.41615 16.8516 7.56656 16.9334 7.70821 16.967C9.11153 17.3073 10.0359 18.2757 10.2272 19.6326C10.252 19.8079 10.2564 19.989 10.2564 20.1672C10.2593 21.2817 10.2578 22.3947 10.2564 23.5092C10.2564 23.9357 10.1892 24 9.75843 24C9.05166 24 8.34489 24 7.63812 24L7.63957 23.9971ZM9.50726 23.239C9.50726 23.166 9.50726 23.1163 9.50726 23.0666C9.50726 22.0456 9.5131 21.0246 9.5058 20.0036C9.4985 18.9841 8.8297 18.0931 7.85423 17.7893C7.67754 17.7338 7.49063 17.7075 7.31832 17.6403C7.17083 17.5819 7.0175 17.5074 6.9036 17.4008C6.61008 17.1291 6.33847 16.8355 6.05664 16.5507C5.66529 16.1548 5.27685 15.7546 4.8782 15.3675C4.62557 15.1207 4.25466 15.0929 3.96991 15.2755C3.68369 15.4596 3.54205 15.7838 3.65303 16.0891C3.70706 16.2366 3.81074 16.3769 3.92318 16.4922C4.57154 17.1568 5.22721 17.8127 5.88141 18.4714C6.03182 18.6233 6.18807 18.7723 6.32825 18.933C6.45968 19.0849 6.44799 19.2806 6.32095 19.4208C6.18952 19.564 5.98071 19.5859 5.81716 19.4647C5.74852 19.4135 5.69011 19.3493 5.63024 19.2894C4.88258 18.5328 4.1393 17.7718 3.38434 17.0225C2.95794 16.6003 2.7535 16.1037 2.75934 15.5063C2.76665 14.7205 2.7608 13.9361 2.7608 13.1503C2.7608 12.4141 2.76372 11.6794 2.7608 10.9432C2.75642 10.3765 2.44101 9.94851 1.93429 9.79953C1.47869 9.66515 1.26402 9.82144 1.26402 10.2932C1.26402 12.1497 1.27278 14.0062 1.25964 15.8627C1.2538 16.6588 1.50351 17.335 2.0219 17.9383C3.22079 19.3361 4.40507 20.7471 5.58497 22.161C5.68427 22.2808 5.73246 22.4634 5.75436 22.6226C5.78357 22.8227 5.76167 23.0287 5.76167 23.239H9.50873H9.50726ZM4.62557 14.3626C4.61535 14.3977 4.62557 14.3772 4.62557 14.3568C4.62557 13.5505 4.6431 12.7442 4.61535 11.9379C4.60805 11.7261 4.49853 11.4953 4.37586 11.3142C4.18165 11.0265 3.88083 10.8906 3.52599 10.8833V14.5846C3.88668 14.5116 4.24152 14.4386 4.62557 14.3611V14.3626Z" fill="white"/>
</svg>
