<svg width="80" height="80" viewBox="0 0 80 80" fill="none" xmlns="http://www.w3.org/2000/svg">
<g clip-path="url(#clip0_28_1101)">
<path d="M49.2721 80H47.4654C47.4482 79.692 47.4224 79.4112 47.4181 79.1303C47.3651 75.7162 47.315 72.302 47.262 68.8893C47.2433 67.6299 47.4267 67.4322 48.6703 67.3749C48.8308 67.3677 48.9912 67.3291 49.1746 67.3018C49.1746 65.8663 49.1847 64.4622 49.1718 63.0581C49.1589 61.6655 49.1488 61.6655 49.9383 60.7586C49.3781 59.3546 48.8351 57.9949 48.2276 56.4734C47.6946 56.7986 47.0843 57.1639 46.4797 57.5393C46.0771 57.7886 45.7075 58.1024 45.2805 58.2958C41.9365 59.8145 38.5797 61.3059 35.2343 62.8203C34.6039 63.1054 34.0136 63.2616 33.452 62.7171C32.8975 62.1799 33.0064 61.5925 33.2701 60.942C34.101 58.8832 33.5509 56.6467 31.919 55.2871C30.2298 53.8802 27.9174 53.7455 26.052 54.9475C24.3098 56.0693 23.4688 58.2284 23.9989 60.2629C24.3915 61.7687 25.5033 62.7257 26.6595 63.6226C28.3916 64.9679 28.2756 65.935 26.2555 66.8319C22.4416 68.5268 18.6334 70.2346 14.8224 71.9367C14.6104 72.0312 14.3926 72.1115 14.1261 72.2189C14.0014 71.9725 13.8868 71.7705 13.7923 71.5584C9.3179 61.5667 4.84066 51.5778 0.376319 41.5817C-0.54635 39.5157 0.274596 37.3968 2.32481 36.4311C2.62282 36.2907 2.91939 36.1489 3.22456 36.0042C3.20307 35.8638 3.21166 35.7606 3.17155 35.6832C2.49244 34.3551 2.71308 33.0384 3.11137 31.6759C3.81341 29.2733 4.39079 26.8348 5.09855 24.4335C5.37793 23.4836 5.8321 22.5767 6.27624 21.6856C6.4582 21.3202 6.47109 21.1168 6.24759 20.75C6.0026 20.3474 5.87365 19.8188 5.85932 19.3402C5.81204 17.8187 5.84213 16.2943 5.84213 14.7355C5.55702 14.7068 5.37507 14.6753 5.19168 14.671C4.05983 14.6452 3.78905 14.3859 3.77472 13.2798C3.72171 9.1264 3.67013 4.97152 3.61712 0.818081C3.61426 0.561625 3.61712 0.305169 3.61712 0H5.55702V12.7641C6.79775 12.7641 7.86513 12.7712 8.9325 12.7641C15.8081 12.7111 22.6837 12.6409 29.5579 12.6179C30.3144 12.6151 30.4619 12.3787 30.4462 11.6781C30.3645 8.09771 30.333 4.51592 30.2857 0.935564C30.2814 0.651886 30.2857 0.366775 30.2857 0.0186253H32.1038C32.1167 0.207744 32.1439 0.43268 32.1468 0.659049C32.2041 4.76521 32.2614 8.87138 32.3144 12.9775C32.3302 14.1882 32.1267 14.4246 30.9376 14.4418C30.4533 14.4489 30.3272 14.628 30.3401 15.0793C30.376 16.2728 30.3502 17.4677 30.3975 18.6597C30.4361 19.6253 30.3975 20.538 29.4977 21.0996C29.9447 21.9736 30.3559 22.7745 30.8215 23.6857C35.1197 21.8948 39.4422 20.0938 43.8822 18.2442C41.9537 17.0049 40.8018 15.3544 40.4981 13.171C40.2904 11.6781 40.5955 10.2711 41.3205 8.95877C42.7475 6.37129 45.8464 4.99731 48.7076 5.68358C50.5314 6.12056 51.9713 7.112 52.967 8.71378C53.9656 10.317 53.9656 12.1079 53.8711 14.0693C58.0145 12.3443 62.0619 10.658 66.1623 8.95161C66.6523 10.1092 67.118 11.201 67.575 12.297C71.3158 21.2529 75.0538 30.2102 78.796 39.1647C79.8305 41.6405 79.0339 43.6262 76.5624 44.7022C76.3919 44.7767 76.23 44.8684 76.0266 44.9715C76.2931 45.8383 76.5782 46.6693 76.7945 47.5175C76.8834 47.8685 76.9077 48.2782 76.8189 48.625C76.0338 51.6709 75.2544 54.7212 74.389 57.7442C74.0982 58.7614 73.5609 59.707 73.0967 60.7801C73.6841 61.2443 73.7357 62.0194 73.7285 62.8275C73.7142 64.2544 73.7242 65.6814 73.7242 67.0425C73.8804 67.1185 73.9004 67.1342 73.9234 67.1371C75.7744 67.3649 75.7816 67.3649 75.8131 69.2661C75.8676 72.6315 75.9134 75.9984 75.9607 79.3639C75.9636 79.5516 75.9449 79.7393 75.9335 79.9814H74.0638C74.0638 79.2937 74.0724 78.6289 74.0623 77.9655C74.0222 75.2205 73.9664 72.4754 73.9463 69.7289C73.942 69.1988 73.7844 69.0369 73.2486 69.0426C65.4431 69.1257 57.6362 69.1945 49.8294 69.2446C49.2491 69.2489 49.1087 69.4395 49.1216 69.9925C49.1918 73.047 49.2276 76.103 49.2749 79.159C49.2792 79.4169 49.2749 79.6748 49.2749 80.0014L49.2721 80ZM25.3629 65.1599C24.5505 64.2616 23.7181 63.4378 23.0018 62.5237C22.2424 61.5552 21.9802 60.3818 21.9602 59.1597C21.9416 57.962 22.2467 56.8444 22.8112 55.7957C24.1938 53.2254 27.1882 51.8328 30.0923 52.4274C31.5365 52.7225 32.7801 53.4045 33.7658 54.512C35.3059 56.2441 35.7759 58.2886 35.3905 60.6311C35.677 60.5294 35.8561 60.4807 36.0223 60.4062C38.8104 59.1626 41.5956 57.9147 44.3836 56.6682C45.5126 56.1639 45.6931 55.6768 45.1745 54.5191C43.7518 51.3414 42.3176 48.1679 40.9107 44.9816C40.3233 43.6506 41.021 42.7078 42.4695 42.7666C43.3965 42.8038 44.3349 42.8525 45.2519 42.7551C47.782 42.4843 49.5213 40.1347 49.1918 37.5257C48.8781 35.0428 46.4195 33.0743 44.0126 33.3966C41.9194 33.6774 40.4408 34.752 39.6958 36.7707C39.4178 37.5257 38.9021 37.8638 38.2459 37.7879C37.6097 37.7134 37.3261 37.2635 37.0968 36.7363C35.5624 33.2161 34.028 29.6959 32.4835 26.18C32.0995 25.3061 31.8603 25.2258 30.9906 25.6155C26.1366 27.7904 21.2854 29.9739 16.4256 32.133C15.7752 32.4224 15.2766 32.8207 14.8081 33.3608C14.2207 34.037 13.5014 34.6087 12.7879 35.1589C12.4785 35.3981 12.3567 35.5958 12.4212 35.9784C12.7536 37.9283 13.0358 39.8882 13.3925 41.8339C13.7178 43.6162 13.533 45.3139 12.6418 46.8928C11.8452 48.3069 10.5028 48.7568 8.98838 48.6493C7.65452 48.5547 6.97398 47.6622 6.59717 46.4272C5.79628 43.8053 4.93952 41.2006 4.10281 38.5902C4.02545 38.3495 3.93232 38.1131 3.84779 37.8824C2.08842 38.3194 1.45659 39.4842 2.1271 40.9857C6.32925 50.3944 10.5414 59.7987 14.735 69.2116C14.9542 69.7045 15.1705 69.7647 15.6505 69.544C18.0775 68.428 20.5217 67.3491 22.9588 66.2545C23.7797 65.8849 24.5964 65.5052 25.3629 65.1556V65.1599ZM75.4249 43.0503C77.0911 42.7179 77.7588 41.5201 77.1355 40.0315C73.2586 30.7447 69.3774 21.4607 65.4947 12.1767C65.3872 11.9202 65.2626 11.6723 65.1365 11.403C64.87 11.509 64.6723 11.5835 64.4775 11.6652C61.0003 13.1165 57.5259 14.575 54.0459 16.0192C52.7607 16.5522 51.8022 15.8115 51.9068 14.4303C51.9756 13.5291 52.0472 12.6151 51.9813 11.7182C51.8166 9.47742 50.2391 7.81403 48.0313 7.44583C45.8536 7.08192 43.6888 8.21663 42.7761 10.1981C41.5526 12.8558 42.7718 15.8444 45.5126 16.9089C46.3837 17.247 46.7075 17.6439 46.6602 18.3359C46.6129 19.0322 46.1516 19.356 45.5599 19.5967C42.0512 21.0308 38.5467 22.4765 35.0423 23.9206C34.6082 24.0997 34.1813 24.2946 33.7758 24.4722C35.3289 27.9423 36.8504 31.3435 38.3877 34.7778C41.4781 31.2662 44.2174 30.4123 47.411 31.9195C50.0085 33.1445 51.6188 36.1388 51.1833 38.9498C50.9354 40.5473 50.3079 41.9657 49.1675 43.1362C47.4898 44.8569 45.3478 45.1349 43.0469 45.0188C43.0927 45.2079 43.1042 45.324 43.1486 45.4271C44.4581 48.4201 45.7834 51.4073 47.0728 54.4088C47.3035 54.9461 47.5814 54.82 47.9668 54.6596C53.7264 52.2397 59.4916 49.8313 65.2497 47.4086C65.7726 47.1879 66.297 46.9329 66.7526 46.6005C66.9575 46.4515 67.1208 46.0575 67.0879 45.8011C66.9202 44.5002 66.648 43.2136 66.4775 41.9141C66.2684 40.3166 65.7784 38.7435 66.1065 37.093C66.4833 35.1961 67.3544 33.7491 69.353 33.2433C71.0293 32.8192 72.3488 33.5614 72.8675 35.1932C73.634 37.6002 74.4062 40.0057 75.1799 42.4113C75.2501 42.6319 75.3446 42.8439 75.4234 43.0503H75.4249ZM63.5018 50.2726C63.3542 50.2726 63.2797 50.2525 63.2238 50.2754C59.0417 52.0162 54.8582 53.7526 50.689 55.522C50.4927 55.6051 50.2807 55.9963 50.3093 56.2126C50.5013 57.6869 51.0587 59.0236 52.073 60.1282C52.2564 60.3274 52.5945 60.4907 52.8624 60.4921C58.7108 60.5122 64.5591 60.5108 70.4075 60.4979C70.6181 60.4979 70.9362 60.4105 71.0236 60.2586C71.5594 59.3345 72.2098 58.4319 72.5136 57.429C73.3761 54.5793 74.1068 51.6895 74.8446 48.8026C74.9607 48.3499 74.9463 47.8026 74.8074 47.357C73.6125 43.5359 72.376 39.7264 71.1511 35.9139C70.8717 35.0428 70.3487 34.7262 69.5378 35.123C69.0593 35.3566 68.5922 35.7921 68.33 36.2549C67.7985 37.1919 67.7455 38.2478 67.9246 39.3137C68.3458 41.8296 68.7427 44.3512 69.1811 46.8641C69.2584 47.3083 69.1438 47.5017 68.7398 47.6708C67.2283 48.304 66.1179 49.3829 65.3643 50.8356C65.0821 51.3801 64.7898 51.9188 64.476 52.5062C63.9001 52.234 63.3757 51.9861 62.8341 51.7296C63.0748 51.2081 63.2783 50.764 63.5061 50.2697L63.5018 50.2726ZM9.12162 21.6111C8.86516 21.6125 8.48549 21.6913 8.37661 21.8661C7.89235 22.6527 7.33502 23.4421 7.07713 24.3118C6.21177 27.2374 5.451 30.1931 4.68593 33.1459C4.58564 33.5313 4.59853 34.0012 4.71745 34.3809C5.92666 38.2234 7.16739 42.0559 8.40096 45.8899C8.7004 46.8197 9.20042 47.1005 10.0701 46.6679C10.5271 46.4415 10.9713 46.026 11.2234 45.5833C11.7449 44.6678 11.8137 43.6291 11.6475 42.5918C11.2435 40.0731 10.8394 37.5544 10.4068 35.0414C10.3251 34.5671 10.3982 34.3107 10.8824 34.1115C12.0816 33.6201 13.0014 32.7705 13.7765 31.7332C14.0459 31.3736 14.4241 31.0298 14.8296 30.8464C19.3455 28.7976 23.8729 26.7746 28.4088 24.7688C28.9117 24.5467 29.098 24.3218 28.81 23.8203C28.4662 23.2229 28.1352 22.6154 27.7899 22.0194C27.5406 21.5896 27.1796 21.4406 26.6624 21.4449C23.7511 21.4721 12.0573 21.591 9.12162 21.6082V21.6111ZM27.8587 19.5953C28.4518 19.601 28.5937 19.4004 28.5693 18.8531C28.5149 17.6138 28.4919 16.3731 28.4962 15.1338C28.4962 14.6581 28.3186 14.522 27.8644 14.5263C21.3298 14.5879 14.7966 14.6395 8.26199 14.6796C7.7806 14.6825 7.65308 14.863 7.66598 15.3143C7.7018 16.5536 7.72615 17.7943 7.70323 19.0336C7.69177 19.6225 7.93963 19.7414 8.47116 19.7385C11.6905 19.7199 24.6164 19.5652 27.8587 19.5953ZM61.4759 62.3704V62.3848C58.2323 62.3848 54.9872 62.3962 51.7435 62.3733C51.1862 62.369 50.9899 62.518 51.0185 63.0983C51.0758 64.2645 51.0859 65.435 51.0672 66.6041C51.0587 67.1285 51.2191 67.3119 51.7578 67.3076C58.2695 67.2445 64.7812 67.1973 71.2929 67.1586C71.76 67.1557 71.9204 66.9967 71.9047 66.5296C71.8674 65.4092 71.8373 64.286 71.8732 63.167C71.8932 62.5409 71.6984 62.3518 71.0651 62.3575C67.8687 62.3876 64.6723 62.3719 61.4759 62.3719V62.3704Z" fill="#647AA2" stroke="#647AA2"/>
<path d="M73.9495 2.6333C74.5484 2.94133 75.0284 3.18919 75.5929 3.48004C74.8837 4.86261 74.1945 6.20363 73.4667 7.62202C72.8979 7.33261 72.3836 7.07042 71.8076 6.77815C72.5283 5.38412 73.2203 4.04309 73.9481 2.6333H73.9495Z" fill="#647AA2" stroke="#647AA2"/>
<path d="M7.39847 77.7449C6.82539 77.4526 6.32393 77.1976 5.74512 76.9024C6.46004 75.517 7.15348 74.1731 7.8856 72.7533C8.45009 73.0456 8.96586 73.3121 9.53465 73.6072C8.82116 74.9898 8.13775 76.315 7.39847 77.7463V77.7449Z" fill="#647AA2" stroke="#647AA2"/>
<path d="M20.7888 72.686C21.5166 74.0944 22.2115 75.4368 22.9321 76.8266C22.3676 77.1174 21.8662 77.3767 21.2831 77.6776C20.5796 76.3194 19.8948 74.997 19.1426 73.5471C19.6913 73.2591 20.2114 72.9883 20.7888 72.686Z" fill="#647AA2" stroke="#647AA2"/>
<path d="M15.3274 75.3336C15.2959 76.9182 15.2658 78.4297 15.2343 79.9957C14.5996 79.9828 14.0351 79.9699 13.3789 79.957C13.409 78.4269 13.4376 76.9383 13.4692 75.3064C14.0895 75.3164 14.6755 75.325 15.3274 75.3351V75.3336Z" fill="#647AA2" stroke="#647AA2"/>
<path d="M62.1938 6.71514C61.6278 7.01171 61.1464 7.26244 60.5576 7.5719C59.8369 6.18647 59.1321 4.83255 58.4014 3.42706C58.9544 3.14481 59.4573 2.88692 60.0562 2.58032C60.7668 3.9543 61.4588 5.29389 62.1938 6.71514Z" fill="#647AA2" stroke="#647AA2"/>
<path d="M66.0723 0.194824H67.823V4.79957H66.0723V0.194824Z" fill="#647AA2" stroke="#647AA2"/>
</g>
<defs>
<clipPath id="clip0_28_1101">
<rect width="79.2378" height="80" fill="white"/>
</clipPath>
</defs>
</svg>
