<svg width="30" height="43" viewBox="0 0 30 43" fill="none" xmlns="http://www.w3.org/2000/svg">
<path d="M27.8571 15.009C27.8571 22.4835 15 40.5244 15 40.5244C15 40.5244 2.14282 22.4835 2.14282 15.009C2.14282 11.4264 3.49741 7.99056 5.90859 5.4573C8.31977 2.92403 11.59 1.50085 15 1.50085C18.4099 1.50085 21.6802 2.92403 24.0913 5.4573C26.5025 7.99056 27.8571 11.4264 27.8571 15.009V15.009Z" stroke="white" stroke-width="3" stroke-linecap="round" stroke-linejoin="round"/>
<path d="M15.0001 19.5117C17.367 19.5117 19.2858 17.4957 19.2858 15.0089C19.2858 12.5222 17.367 10.5062 15.0001 10.5062C12.6331 10.5062 10.7144 12.5222 10.7144 15.0089C10.7144 17.4957 12.6331 19.5117 15.0001 19.5117Z" stroke="white" stroke-width="3" stroke-linecap="round" stroke-linejoin="round"/>
</svg>
