<svg width="72" height="80" viewBox="0 0 72 80" fill="none" xmlns="http://www.w3.org/2000/svg">
<g clip-path="url(#clip0_2063_4030)">
<path d="M19.2956 71.3996C19.6286 72.0022 19.9601 72.5724 20.2607 73.1559C21.1403 74.8621 20.6408 76.617 18.9817 77.5924C17.8619 78.2525 16.7288 78.892 15.5855 79.5108C13.7879 80.4833 12.0109 79.9882 10.9972 78.2039C7.48159 72.0184 3.97777 65.8256 0.481311 59.6269C-0.477894 57.9265 0.0274935 56.1275 1.72194 55.1358C2.88595 54.4536 4.06028 53.7862 5.24492 53.1423C6.87601 52.2553 8.67801 52.771 9.63722 54.3741C9.89949 54.8132 10.1426 55.2626 10.4373 55.7827C10.7732 55.6014 11.0709 55.4512 11.3597 55.2861C14.4627 53.4959 17.5554 51.6865 20.6688 49.9184C22.6845 48.7736 24.8268 47.9676 27.1917 48.2917C28.3203 48.4465 29.4357 48.7986 30.5158 49.1773C34.2627 50.496 37.9905 51.8457 41.9024 52.6384C44.7314 53.2115 46.3831 56.2954 45.4888 59.0404C45.4225 59.2423 45.365 59.4471 45.2398 59.8641C45.9588 59.5149 46.5349 59.2777 47.0683 58.9697C51.4002 56.4619 55.7218 53.9365 60.0522 51.4272C61.7658 50.4341 63.5722 49.6665 65.5687 49.5162C67.6035 49.3629 69.3952 49.9228 70.5651 51.7086C71.707 53.4502 71.7822 55.3436 70.8259 57.1677C70.4354 57.9133 69.7916 58.6441 69.0814 59.0876C61.3149 63.9293 53.516 68.7209 45.7157 73.5095C43.2182 75.0434 40.5292 75.3484 37.7135 74.5999C32.7156 73.2708 27.6985 72.0037 22.7375 70.5509C21.295 70.128 20.3668 70.6526 19.2941 71.3996H19.2956ZM17.9842 69.1172C18.7032 68.6988 19.3516 68.354 19.9645 67.9562C20.5878 67.551 21.2051 67.4979 21.9227 67.6924C27.1991 69.1261 32.496 70.4846 37.7577 71.9683C40.3362 72.6947 42.648 72.4133 44.9303 70.9914C52.4286 66.3207 59.9652 61.7118 67.4871 57.0822C68.6703 56.3529 69.1197 55.1668 68.7248 53.7862C68.4036 52.6664 67.5033 52.0711 66.1124 52.0947C65.6984 52.102 65.2475 52.0873 64.8791 52.242C63.2819 52.9154 61.6464 53.5342 60.1406 54.38C56.1829 56.6019 52.2724 58.9093 48.3693 61.227C46.2019 62.5133 43.8695 63.0261 41.4398 62.5133C38.0391 61.7972 34.6782 60.8822 31.3085 60.0232C30.4465 59.8037 30.0678 59.1067 30.2874 58.3479C30.4907 57.648 31.1714 57.318 32.0069 57.5434C33.1679 57.8573 34.3187 58.2079 35.4812 58.5115C37.0696 58.927 38.6535 59.372 40.261 59.6946C41.7359 59.9908 42.8764 59.2231 43.1048 57.9339C43.342 56.599 42.539 55.4482 41.1289 55.1137C40.6279 54.9944 40.1093 54.9369 39.6201 54.7822C35.907 53.6005 32.2073 52.379 28.4868 51.2224C27.6823 50.9719 26.8086 50.8246 25.9687 50.8305C24.432 50.8393 23.069 51.523 21.7636 52.2656C18.5854 54.072 15.4263 55.9138 12.2629 57.7438C12.0993 57.8381 11.9564 57.9648 11.756 58.1122C13.8291 61.7751 15.8802 65.3998 17.9842 69.1187V69.1172ZM18.1684 74.8062C18.0328 74.5129 17.9636 74.3302 17.8678 74.1623C14.4288 68.0814 10.9898 62.0006 7.54642 55.9212C7.14712 55.2169 6.91432 55.1638 6.17907 55.5734C5.21545 56.1098 4.25772 56.6579 3.29851 57.2031C2.50286 57.6554 2.44245 57.8514 2.89921 58.6618C4.11332 60.8189 5.33627 62.9715 6.55627 65.1257C8.76642 69.0288 10.9825 72.929 13.1838 76.838C13.4976 77.3965 13.8424 77.56 14.4273 77.2108C15.4587 76.5964 16.5211 76.0335 17.5525 75.4191C17.7986 75.2732 17.9724 75.0051 18.1684 74.8032V74.8062Z" fill="#647AA2"/>
<path d="M58.7449 31.4194C59.9841 34.297 61.2026 37.1363 62.4344 39.9697C62.6908 40.5606 62.8705 41.1367 62.4182 41.6996C61.9629 42.2654 61.3396 42.2035 60.7237 42.0782C59.3549 41.8027 57.9846 41.5301 56.6217 41.2251C56.1237 41.1131 55.8201 41.2104 55.5461 41.6804C54.8182 42.9313 54.024 44.144 53.2652 45.3758C52.9514 45.8856 52.5668 46.276 51.9156 46.2274C51.2672 46.1773 50.9446 45.7441 50.7073 45.1886C49.6966 42.8208 48.6873 40.4516 47.6308 38.1029C47.4835 37.7773 47.1166 37.4458 46.7792 37.3294C45.7684 36.9831 44.734 36.5204 43.6408 36.9713C43.321 37.1039 42.96 37.3691 42.8186 37.6682C41.3319 40.7905 39.8997 43.9377 38.4086 47.0584C38.2141 47.4666 37.8399 47.9101 37.4406 48.0751C36.7628 48.3536 36.225 47.972 35.8655 47.3457C35.1582 46.111 34.4127 44.8969 33.7378 43.646C33.4372 43.089 33.1263 42.893 32.4648 43.036C31.0768 43.338 29.6623 43.5104 28.2655 43.7697C27.685 43.8773 27.1781 43.8125 26.8024 43.3424C26.4016 42.84 26.493 42.2934 26.7464 41.7467C28.2066 38.6127 29.6623 35.4758 31.1181 32.3403C31.1991 32.165 31.2669 31.9823 31.3744 31.72C31.0694 31.583 30.7924 31.4518 30.5095 31.334C28.0504 30.3055 26.8525 28.1735 27.2562 25.5552C27.349 24.9496 27.3947 24.3366 27.4743 23.7281C27.598 22.7969 27.3917 21.9497 26.9895 21.098C26.4473 19.9546 25.8623 18.798 25.5662 17.5809C25.1949 16.0604 25.771 14.6827 26.8156 13.5246C27.0293 13.2874 27.2444 13.0413 27.5008 12.8586C29.2777 11.5959 30.0631 9.81891 30.4344 7.71779C30.9029 5.06561 32.6313 3.50672 35.3011 3.47578C37.7087 3.44779 39.6934 2.72728 41.5293 1.16249C43.3564 -0.394925 45.8686 -0.384611 47.6986 1.17428C49.5345 2.73759 51.5266 3.45073 53.9312 3.47578C56.5112 3.5023 58.2601 4.989 58.7184 7.52919C59.1354 9.8469 60.1653 11.6386 61.9776 13.1518C63.9137 14.7682 64.3307 17.1301 63.0886 19.3432C61.9599 21.3559 61.4855 23.3347 61.9172 25.6539C62.3858 28.1749 61.3072 30.0992 58.9468 31.2308C58.8849 31.2603 58.8392 31.3251 58.739 31.4165L58.7449 31.4194ZM29.7713 26.4186C29.7713 27.5576 30.2414 28.3385 31.1961 28.7967C31.8813 29.1253 32.5812 29.4273 33.2869 29.7073C34.585 30.223 35.6106 31.054 36.3591 32.2357C36.779 32.8987 37.2107 33.5559 37.6571 34.2027C38.3099 35.1457 39.2352 35.4964 40.3521 35.2165C41.0166 35.05 41.6796 34.8643 42.3279 34.6448C43.847 34.1276 45.3544 34.1217 46.8749 34.6403C47.5233 34.8614 48.1863 35.0455 48.8508 35.2135C49.975 35.4979 50.8856 35.159 51.5472 34.2116C52.0246 33.5279 52.4813 32.828 52.9352 32.1267C53.6085 31.0864 54.5029 30.3143 55.6522 29.8414C56.218 29.6086 56.7749 29.3492 57.3393 29.1091C59.24 28.2987 59.71 27.5325 59.3343 25.4948C58.907 23.18 59.1177 21.0052 60.4055 18.9851C60.5896 18.6963 60.7355 18.381 60.8799 18.0701C61.3897 16.9754 61.2335 16.0456 60.3937 15.1675C60.1727 14.9376 59.9546 14.6974 59.7026 14.5059C57.7503 13.0339 56.7042 11.0507 56.3653 8.65932C56.3314 8.41767 56.2666 8.17898 56.2047 7.94323C55.8894 6.7468 55.0569 5.98209 53.834 6.0204C50.9225 6.11175 48.4103 5.26011 46.2266 3.28866C45.1554 2.32208 44.1255 2.41933 42.9453 3.28866C42.2543 3.79846 41.5603 4.30532 40.8678 4.81513C39.9911 5.46049 38.9921 5.76107 37.9209 5.84506C37.0648 5.91136 36.2058 5.95262 35.3483 6.00272C34.2226 6.06902 33.3975 6.68934 33.0674 7.77084C32.8891 8.35579 32.7418 8.95548 32.6386 9.55811C32.3292 11.3513 31.479 12.8188 30.0867 13.9858C29.6549 14.3482 29.2439 14.7387 28.849 15.1424C28.0076 16 27.8397 16.9592 28.3421 18.0451C28.6722 18.7567 29.0169 19.464 29.3868 20.155C30.0749 21.4413 30.2502 22.7954 30.0321 24.2247C29.9172 24.9761 29.8494 25.7349 29.7699 26.4156L29.7713 26.4186ZM39.7583 38.0661C39.6595 37.9998 39.6227 37.9585 39.5785 37.9497C39.4105 37.9173 39.2411 37.8922 39.0702 37.8686C37.5216 37.6506 36.3311 36.8652 35.4662 35.576C35.0433 34.9453 34.6381 34.3029 34.2152 33.6723C34.0752 33.4645 33.9073 33.2759 33.6789 32.9872C32.4456 35.6364 31.2728 38.1574 30.0307 40.8258C30.9221 40.6785 31.6632 40.5694 32.3985 40.4309C33.8709 40.1559 34.9853 40.6745 35.7417 41.9869C36.1218 42.6455 36.5108 43.2997 36.9676 44.0777C37.9548 41.95 38.8595 40.0036 39.7597 38.0661H39.7583ZM56.3476 32.3993C55.4709 32.7986 55.0628 33.5397 54.6399 34.2381C53.6306 35.906 52.5314 37.4546 50.364 37.848C50.9873 39.3008 51.5708 40.6578 52.2147 42.1593C52.8792 41.0955 53.442 40.1849 54.0137 39.2787C54.5604 38.4123 54.911 38.2517 55.9115 38.4433C56.7779 38.6098 57.6384 38.8057 58.5033 38.9767C58.6963 39.015 58.8996 39.0076 59.2061 39.0297C58.2233 36.7503 57.2951 34.5976 56.3462 32.3993H56.3476Z" fill="#647AA2"/>
<path d="M6.21002 60.365C5.49246 60.3532 4.92077 59.7565 4.93992 59.0389C4.9576 58.3361 5.58676 57.7423 6.28369 57.7733C6.94379 57.8012 7.53021 58.4157 7.52874 59.0758C7.52727 59.7815 6.91874 60.3768 6.21149 60.365H6.21002Z" fill="#647AA2"/>
<path d="M56.4213 19.0279C56.3888 25.5552 51.083 30.8389 44.5852 30.8168C38.0122 30.7932 32.7417 25.4403 32.7874 18.8334C32.8331 12.3606 38.1846 7.13875 44.7428 7.16969C51.1891 7.19916 56.4522 12.5448 56.4198 19.0279H56.4213ZM35.3969 19.0161C35.4145 24.123 39.5446 28.2442 44.6323 28.2339C49.6965 28.2236 53.8545 24.0405 53.8427 18.966C53.8324 13.8915 49.6376 9.71284 44.5822 9.73788C39.4871 9.76441 35.3792 13.9136 35.3969 19.0161Z" fill="#647AA2"/>
<path d="M42.2411 20.8933C43.6644 19.6055 45.0097 18.39 46.3535 17.1714C47.2994 16.3139 48.238 15.449 49.1854 14.5929C49.9236 13.9269 50.7354 13.8916 51.2585 14.4927C51.761 15.0703 51.6519 15.8453 50.9388 16.4936C48.3986 18.8084 45.8525 21.1173 43.3005 23.4203C42.4901 24.1511 41.9037 24.126 41.1287 23.3598C40.1518 22.3933 39.1793 21.4208 38.2127 20.4439C37.5232 19.747 37.4525 19.0103 38.002 18.4415C38.5649 17.8595 39.3429 17.9273 40.059 18.6463C40.7839 19.3757 41.4926 20.1227 42.2411 20.8963V20.8933Z" fill="#647AA2"/>
</g>
<defs>
<clipPath id="clip0_2063_4030">
<rect width="71.4895" height="80" fill="white"/>
</clipPath>
</defs>
</svg>
