<svg width="80" height="80" viewBox="0 0 80 80" fill="none" xmlns="http://www.w3.org/2000/svg">
<g clip-path="url(#clip0_28_1132)">
<path d="M56.5643 53.1858C54.3539 50.8911 52.0191 49.2232 49.3074 47.9166C49.2775 48.158 49.2403 48.3093 49.2418 48.4607C49.2675 52.5461 47.404 55.819 44.778 58.7463C44.1268 59.4717 43.2386 59.4146 42.449 58.6535C40.2899 56.5729 38.1465 54.4753 35.9946 52.3876C35.2992 51.7122 34.598 51.0439 33.8583 50.3313C33.1615 51.0025 32.5104 51.6222 31.8663 52.2476C29.7158 54.3367 27.571 56.433 25.4163 58.5178C24.3553 59.5445 23.5456 59.4917 22.5932 58.365C20.694 56.1188 19.1546 53.6813 18.6663 50.7183C18.5206 49.8315 18.4906 48.9262 18.3964 47.9109C17.7238 48.2679 17.0684 48.5821 16.4458 48.9519C10.8553 52.2691 7.24118 57.1969 5.05212 63.2072C4.27531 65.3392 3.83122 67.5939 3.23718 69.793C3.21291 69.8844 3.1972 69.98 3.18578 70.0729C2.91732 72.1448 3.46137 72.9045 5.54477 72.9616C9.11181 73.0602 12.6817 73.0359 16.2502 73.0659C16.56 73.0687 16.8699 73.0616 17.1769 73.0916C17.978 73.1701 18.5349 73.7627 18.5678 74.5495C18.6006 75.332 18.0151 76.0146 17.2112 76.126C17.0698 76.146 16.927 76.1517 16.7842 76.1517C13.31 76.1488 9.83436 76.1531 6.36013 76.1345C5.72041 76.1317 5.07354 76.076 4.44381 75.966C1.29088 75.422 -0.394117 73.3686 0.0813936 70.2085C1.47937 60.9096 5.36627 52.983 13.1986 47.3583C15.3777 45.7933 17.7867 44.6637 20.3127 43.777C20.5283 43.7013 20.7411 43.6156 20.9025 43.5542C19.8429 42.1705 18.7334 40.8625 17.7824 39.4503C15.5976 36.2074 14.4153 32.6446 14.6794 28.6863C14.7223 28.0509 14.5181 27.6853 13.9526 27.3212C10.5798 25.1521 10.8139 20.2913 14.371 18.4793C14.8565 18.2322 14.9108 17.8852 14.9736 17.4725C15.6719 12.8717 17.7638 9.02188 21.2238 5.91749C23.31 4.04544 25.7247 2.75171 28.3821 1.88065C28.6777 1.78355 28.9904 1.53794 29.1546 1.27377C29.6601 0.455548 30.3413 0.00288466 31.3137 0.00431262C33.0987 0.00716854 34.8836 0.0157363 36.6686 2.87431e-05C37.7638 -0.00996697 38.5135 0.476967 39.0061 1.44512C39.119 1.66646 39.3574 1.8935 39.5873 1.9749C47.0898 4.62947 51.4651 9.89864 52.8245 17.7196C52.8702 17.9837 53.1072 18.2965 53.3443 18.4307C55.0421 19.4031 56.0503 20.814 56.1345 22.7888C56.2216 24.8222 55.3349 26.373 53.6142 27.4326C53.2529 27.6553 53.0558 27.8681 53.0815 28.3193C53.4157 34.1854 50.9496 38.9205 47.0884 43.0873C47.007 43.1744 46.9227 43.2586 46.8456 43.3486C46.8157 43.3829 46.8028 43.4314 46.7585 43.5171C47.0184 43.6199 47.2712 43.7299 47.5311 43.8198C51.8992 45.3435 55.7176 47.7296 58.8805 51.1196C59.2889 51.5565 59.5887 51.6493 60.0585 51.2623C61.4322 50.1285 62.8545 49.0519 64.1954 47.8809C65.2221 46.9842 65.9232 46.9399 66.8956 47.8966C69.7601 50.714 72.9987 52.8931 76.9899 53.7756C77.3611 53.8569 77.741 53.8984 78.1165 53.9598C79.1418 54.1283 79.6416 54.6609 79.6659 55.679C79.7658 59.8515 79.1175 63.8812 77.3269 67.6839C75.6076 71.3337 73.3514 74.6152 70.4412 77.4169C69.7287 78.1037 68.9005 78.692 68.058 79.2175C66.4472 80.2199 64.7365 80.2856 63.1358 79.2561C62.0063 78.5278 60.9753 77.631 59.9729 76.7271C59.5302 76.3287 59.1289 76.1403 58.5363 76.1417C49.6116 76.1588 40.6869 76.1531 31.7621 76.1517C31.4537 76.1517 31.1409 76.1602 30.8354 76.1188C30.05 76.0117 29.5288 75.382 29.5359 74.5838C29.5416 73.7698 30.0585 73.1815 30.8682 73.093C31.1752 73.0602 31.4865 73.0644 31.7949 73.0644C39.8158 73.0644 47.8352 73.0644 55.8561 73.0644H56.8599C56.6172 72.6603 56.4458 72.3419 56.2445 72.0463C54.0069 68.7591 52.3804 65.2049 51.8164 61.2495C51.5522 59.3974 51.5151 57.5082 51.4551 55.6333C51.4237 54.6495 51.9692 54.1554 52.963 53.9583C54.0982 53.7341 55.2263 53.4743 56.57 53.1858H56.5643ZM49.9215 28.1965H17.6239C17.7824 29.7459 17.7153 31.2866 18.1237 32.6889C19.9729 39.0347 24.1297 43.3529 30.1971 45.8589C32.6117 46.8557 35.0621 46.8057 37.4982 45.8732C42.1362 44.0983 45.5405 40.9096 48.0223 36.6715C49.5431 34.0754 50.2256 31.2809 49.9215 28.1965ZM65.5448 50.9396C62.3261 53.8284 58.7734 55.9561 54.4281 56.9199C54.648 58.6263 54.7308 60.3228 55.1035 61.9535C56.3116 67.2384 59.1461 71.6108 62.9944 75.3477C65.0578 77.3512 66.036 77.3397 68.1137 75.3377C71.5094 72.0663 74.0454 68.2294 75.5305 63.7299C76.2602 61.5194 76.5186 59.2404 76.5472 56.8871C72.309 55.9703 68.7663 53.8255 65.5448 50.9396ZM33.8555 25.0393C39.3489 25.0393 44.8422 25.0393 50.3356 25.0379C50.6683 25.0379 51.0024 25.0379 51.3323 24.9993C52.1834 24.8994 52.8673 24.2254 53.0001 23.3843C53.2272 21.9421 52.2705 21.001 50.5555 20.9996C39.426 20.9967 28.2979 20.9982 17.1684 21.001C16.8613 21.001 16.5458 21.0125 16.2488 21.0781C15.2106 21.308 14.6166 22.1505 14.6994 23.2344C14.7722 24.1897 15.5191 24.9251 16.5186 25.0122C16.8256 25.0393 17.1355 25.0379 17.4454 25.0379C22.9145 25.0393 28.385 25.0379 33.8541 25.0379L33.8555 25.0393ZM28.9205 5.10356C24.1339 5.86751 17.9123 13.2829 18.1665 17.8381C18.295 17.8581 18.4307 17.8981 18.5678 17.8981C21.1824 17.9024 23.7955 17.8909 26.4101 17.9124C26.8785 17.9166 27.0084 17.6667 27.1427 17.3083C28.0194 14.9536 28.4835 12.509 28.682 10.0157C28.8105 8.38929 28.8434 6.75571 28.9205 5.10356ZM39.2832 5.23493C39.2603 5.29776 39.2146 5.36202 39.2161 5.42627C39.2389 9.45455 39.5059 13.4443 40.9339 17.2726C41.1138 17.7567 41.3437 17.9195 41.8521 17.9138C44.2039 17.8881 46.5558 17.9038 48.9076 17.8995C49.1504 17.8995 49.3946 17.8609 49.6402 17.8395C48.8005 11.6293 44.054 6.69002 39.2817 5.2335L39.2832 5.23493ZM30.2299 17.851H37.6039C37.1726 15.402 36.6172 12.993 36.3544 10.5526C36.0902 8.11084 36.1174 5.63761 36.0174 3.16582H32.0277C31.9577 8.1137 31.9463 13.0344 30.2313 17.851H30.2299ZM30.5283 49.2247C28.0794 48.5435 26.006 47.464 24.0754 46.0988C23.3114 46.2816 22.5461 46.4601 21.7878 46.6615C21.7378 46.6743 21.7364 46.8785 21.7164 46.9942C21.4665 48.3507 21.5479 49.7002 21.9006 51.0224C22.3276 52.6218 23.1187 54.034 24.2068 55.3649C26.3102 53.3215 28.3536 51.3366 30.5283 49.2232V49.2247ZM43.5242 55.3777C45.4677 52.8817 46.4744 50.2314 46.026 47.1398C45.9989 46.9556 45.9846 46.7357 45.8775 46.6043C45.5362 46.1902 43.7441 46.0189 43.2886 46.3345C41.6007 47.5097 39.7858 48.4264 37.8195 49.0404C37.651 49.0933 37.4968 49.1889 37.2712 49.2946C39.3731 51.3395 41.4137 53.3243 43.5242 55.3777Z" fill="#647AA2"/>
<path d="M24.0343 76.1389C23.1775 76.1389 22.5064 75.4606 22.5078 74.5981C22.5092 73.7227 23.1604 73.0802 24.0429 73.083C24.9125 73.0859 25.5851 73.7513 25.5822 74.6081C25.5794 75.452 24.8854 76.1403 24.0357 76.1389H24.0343Z" fill="#647AA2"/>
<path d="M64.7107 64.9093C66.0415 63.4385 67.3324 62.0163 68.6161 60.5883C69.0345 60.1214 69.5457 59.7159 70.1569 59.9286C70.621 60.09 71.1036 60.4684 71.365 60.8839C71.7291 61.4651 71.4592 62.082 71.0165 62.5746C69.857 63.8655 68.6875 65.1478 67.5238 66.433C67.0925 66.9085 66.6684 67.3897 66.2329 67.8609C65.4532 68.7049 64.6964 68.7905 63.7854 68.1165C62.9828 67.5239 62.1889 66.9185 61.4064 66.2973C60.6196 65.6733 60.4853 64.7608 61.0422 64.0369C61.5977 63.3143 62.4831 63.2386 63.3184 63.8498C63.7739 64.1839 64.2195 64.5324 64.7121 64.9079L64.7107 64.9093Z" fill="#647AA2"/>
</g>
<defs>
<clipPath id="clip0_28_1132">
<rect width="79.6716" height="80" fill="white"/>
</clipPath>
</defs>
</svg>
