<svg width="25" height="24" viewBox="0 0 25 24" fill="none" xmlns="http://www.w3.org/2000/svg">
<path d="M12.4976 21.1231C12.8576 20.4641 13.2824 19.9218 13.8247 19.4779C14.3606 19.0389 14.9642 18.7229 15.6716 18.5098C14.5326 17.4549 14.0152 16.2011 14.2886 14.6872C14.4718 13.674 15.0019 12.8573 15.821 12.2306C17.374 11.043 19.6177 11.1895 21.0183 12.5873C21.8452 13.4129 22.2469 14.4192 22.2009 15.5951C22.1553 16.7631 21.6341 17.7009 20.7601 18.4985C20.8826 18.5436 20.9727 18.5744 21.0609 18.6092C23.1067 19.4127 24.2521 20.9056 24.4882 23.0927C24.5004 23.2059 24.5014 23.3215 24.4955 23.4352C24.4789 23.7561 24.2535 23.9795 23.9317 23.9996C23.8587 24.004 23.7847 24.0015 23.7112 24.0015C16.232 24.0015 8.7533 24.0015 1.2741 24.0015C1.24128 24.0015 1.20895 24.0015 1.17612 24.0015C0.708275 23.9981 0.494681 23.7772 0.49909 23.3024C0.517706 21.2887 1.85952 19.4054 3.80783 18.6572C3.93618 18.6077 4.066 18.5612 4.23404 18.499C3.08573 17.4505 2.58555 16.1811 2.86381 14.6612C3.04262 13.6858 3.55309 12.8921 4.33397 12.2747C5.87126 11.0601 8.11693 11.1684 9.53615 12.5383C10.3851 13.358 10.8099 14.3673 10.7766 15.548C10.7432 16.7293 10.223 17.692 9.32305 18.5034C10.7408 18.9478 11.7804 19.8008 12.4976 21.1226V21.1231ZM23.3012 22.8531C23.2968 22.7919 23.2973 22.76 23.2924 22.7297C23.0121 20.9502 21.3759 19.4965 19.5701 19.4475C18.6976 19.424 17.8232 19.4264 16.9507 19.4441C15.1283 19.4803 13.5381 20.8071 13.1589 22.5895C13.1413 22.6713 13.1447 22.7581 13.1374 22.8536H23.3012V22.8531ZM11.8705 22.8463C11.8548 22.735 11.8489 22.6469 11.8293 22.5616C11.4149 20.7503 9.84968 19.4725 7.9925 19.4416C7.19299 19.4284 6.393 19.4323 5.593 19.4402C4.33887 19.4529 3.32186 19.9718 2.52921 20.9296C2.07459 21.4788 1.78996 22.1118 1.68757 22.8463H11.8705ZM6.77413 18.2785C8.34816 18.2834 9.62433 17.0218 9.64197 15.4437C9.6596 13.8852 8.37706 12.5917 6.80304 12.58C5.21823 12.5682 3.92785 13.846 3.92687 15.4265C3.92589 16.9988 5.19815 18.2731 6.77364 18.2785H6.77413ZM18.2019 18.2785C19.7769 18.2854 21.0624 17.0164 21.0697 15.4471C21.0771 13.8715 19.8156 12.5942 18.2386 12.58C16.6558 12.5657 15.3625 13.8406 15.3541 15.4226C15.3463 16.986 16.6283 18.2716 18.2019 18.2785Z" fill="white"/>
<path d="M15.0768 7.06122C16.1091 7.39291 16.9703 7.9588 17.6326 8.80199C17.8418 9.06803 18.0157 9.36151 18.2254 9.67165C17.8021 9.73044 17.4357 9.78776 17.0668 9.82451C17.0134 9.8299 16.9375 9.74269 16.8929 9.68242C16.2467 8.81277 15.4026 8.25472 14.3312 8.06365C14.0755 8.01808 13.8124 7.99701 13.5528 7.99701C12.6965 7.9975 11.8377 7.97644 10.9843 8.0318C9.82029 8.10725 8.89047 8.66726 8.18895 9.58933C8.03708 9.78874 7.90285 9.84656 7.66574 9.79413C7.39679 9.73485 7.11804 9.72162 6.79569 9.68291C7.48301 8.37133 8.52648 7.5203 9.93835 7.05436C8.86402 6.06761 8.35992 4.88783 8.53971 3.46356C8.66316 2.48759 9.10994 1.66546 9.84723 1.01285C11.411 -0.371731 13.7154 -0.319797 15.24 1.08438C16.5896 2.32737 17.251 5.08233 15.0768 7.06122ZM15.3468 4.00152C15.3497 2.42683 14.0853 1.15004 12.5088 1.13632C10.9485 1.12309 9.65911 2.40479 9.64932 3.97947C9.63903 5.56493 10.9172 6.85348 12.4995 6.85299C14.0721 6.8525 15.3438 5.57865 15.3468 4.00152Z" fill="white"/>
</svg>
