<svg width="81" height="80" viewBox="0 0 81 80" fill="none" xmlns="http://www.w3.org/2000/svg">
<path d="M40.4932 70.4105C41.6934 68.2139 43.1092 66.406 44.9169 64.9264C46.7034 63.4631 48.7152 62.4097 51.0732 61.6993C47.2766 58.1831 45.5521 54.0039 46.4633 48.9574C47.0741 45.5801 48.8409 42.8576 51.5713 40.7688C56.7478 36.8101 64.2269 37.2984 68.8955 41.9578C71.652 44.7096 72.9911 48.0641 72.8375 51.9837C72.6857 55.8771 70.9482 59.0029 68.035 61.6617C68.4432 61.812 68.7437 61.9148 69.0376 62.0308C75.8569 64.7092 79.6748 69.6854 80.4619 76.9757C80.5027 77.353 80.506 77.7384 80.4864 78.1173C80.4309 79.187 79.6797 79.9317 78.6069 79.9987C78.3635 80.0134 78.117 80.0052 77.872 80.0052C52.9414 80.0052 28.0123 80.0052 3.08164 80.0052C2.97223 80.0052 2.86445 80.0052 2.75504 80.0052C1.19555 79.9938 0.483573 79.2573 0.49827 77.6747C0.560323 70.9625 5.03305 64.6847 11.5274 62.1908C11.9552 62.0259 12.388 61.8708 12.9481 61.6633C9.12039 58.1684 7.45312 53.9369 8.38065 48.8709C8.97669 45.6193 10.6783 42.9736 13.2812 40.9158C18.4055 36.8672 25.8911 37.2282 30.6218 41.7945C33.4518 44.5267 34.8675 47.891 34.7565 51.8269C34.6455 55.7644 32.9112 58.9735 29.9115 61.678C34.6373 63.1593 38.1025 66.0026 40.4932 70.4089V70.4105ZM76.5052 76.1771C76.4905 75.973 76.4922 75.8668 76.4758 75.7656C75.5418 69.834 70.0876 64.9884 64.0685 64.8251C61.1601 64.7467 58.2453 64.7549 55.3369 64.8137C49.2623 64.9345 43.9616 69.3571 42.6977 75.2985C42.6389 75.5712 42.6503 75.8603 42.6258 76.1788H76.5052V76.1771ZM38.4029 76.1543C38.3507 75.7835 38.3311 75.4896 38.2658 75.2054C36.8843 69.1677 31.6669 64.9084 25.4763 64.8055C22.8113 64.7614 20.1446 64.7745 17.478 64.8006C13.2976 64.8431 9.90749 66.5726 7.26533 69.7654C5.74993 71.5962 4.80117 73.7062 4.45987 76.1543H38.4029ZM21.4151 60.9284C26.6618 60.9448 30.9157 56.7394 30.9745 51.479C31.0333 46.284 26.7582 41.9725 21.5114 41.9333C16.2287 41.8941 11.9275 46.1533 11.9242 51.4219C11.9209 56.6626 16.1618 60.9105 21.4134 60.9284H21.4151ZM59.5076 60.9284C64.7576 60.9513 69.0425 56.7214 69.067 51.4905C69.0915 46.2382 64.8866 41.9806 59.63 41.9333C54.3539 41.8859 50.0428 46.1354 50.0151 51.4088C49.9889 56.6202 54.2624 60.9056 59.5076 60.9284Z" fill="white"/>
<path d="M49.0908 23.5375C52.5315 24.6431 55.4022 26.5294 57.61 29.3401C58.3073 30.2269 58.887 31.2051 59.5859 32.2389C58.175 32.4349 56.9536 32.626 55.7239 32.7484C55.546 32.7664 55.2928 32.4757 55.1442 32.2748C52.9903 29.376 50.1767 27.5158 46.6054 26.8789C45.753 26.727 44.8761 26.6568 44.0106 26.6568C41.1562 26.6584 38.2935 26.5882 35.4489 26.7727C31.5689 27.0243 28.4695 28.8909 26.1311 31.9645C25.6249 32.6292 25.1775 32.8219 24.3871 32.6472C23.4906 32.4496 22.5614 32.4055 21.4869 32.2765C23.778 27.9045 27.2562 25.0677 31.9625 23.5146C28.3814 20.2255 26.701 16.2928 27.3003 11.5453C27.7118 8.29204 29.2011 5.55161 31.6588 3.37626C36.8712 -1.23902 44.5527 -1.06591 49.6346 3.6147C54.1334 7.758 56.3379 16.9412 49.0908 23.5375ZM49.9906 13.3385C50.0004 8.08953 45.7856 3.83354 40.5307 3.78781C35.3297 3.74372 31.0317 8.01603 30.999 13.265C30.9647 18.5498 35.2252 22.845 40.4997 22.8434C45.7416 22.8418 49.9808 18.5956 49.9906 13.3385Z" fill="white"/>
</svg>
