<svg width="71" height="19" viewBox="0 0 71 19" fill="none" xmlns="http://www.w3.org/2000/svg">
<g clip-path="url(#clip0_1_4835)">
<path d="M18.3208 6.52255L10.8145 9.51362L18.3208 12.5047L19.9527 13.158V11.7288L18.3208 11.0755L14.4045 9.51362L18.3208 7.95169L19.9527 7.29842V5.86928L18.3208 6.52255Z" fill="#161637"/>
<path d="M17.9056 13.3503L10.8154 9.51406L13.1171 17.0925L13.6149 18.7417L14.7585 17.8476L14.2608 16.1984L13.061 12.2434L16.7609 14.2444L18.3048 15.0765L19.449 14.1824L17.9051 13.3503H17.9056Z" fill="#161637"/>
<path d="M12.1798 17.3053L10.8149 9.51454L6.18859 16.0055L5.17969 17.4163L6.61124 17.7269L7.62014 16.3162L10.0352 12.9297L10.7488 16.9946L11.0486 18.6894L12.4802 19L12.1803 17.3053H12.1798Z" fill="#161637"/>
<path d="M5.43254 15.4265L10.8151 9.51509L2.72507 10.0579L0.964844 10.1732L1.61175 11.4555L3.37198 11.3402L7.59354 11.0581L4.78563 14.1437L3.61662 15.4318L4.26353 16.7146L5.43254 15.4265Z" fill="#161637"/>
<path d="M2.71534 9.12017L10.8149 9.51514L5.31888 3.70309L4.12551 2.43678L3.50346 3.7312L4.69684 4.99751L7.56342 8.03075L3.33739 7.82624L1.57517 7.74337L0.953125 9.0373L2.71534 9.12017Z" fill="#161637"/>
<path d="M6.06409 3.10894L10.8147 9.51416L12.029 1.69967L12.296 0.000105858L10.8709 0.336917L10.6039 2.03648L9.96891 6.11407L7.48868 2.77261L6.45243 1.38079L5.02734 1.7176L6.06359 3.10943L6.06409 3.10894Z" fill="#161637"/>
<path d="M12.9695 1.89448L10.8145 9.51367L17.829 5.54803L19.3565 4.68783L18.1955 3.81503L16.668 4.67523L13.0068 6.7431L14.13 2.76728L14.596 1.10891L13.4349 0.236112L12.969 1.89448H12.9695Z" fill="#161637"/>
</g>
<g clip-path="url(#clip1_1_4835)">
<path d="M43.4071 6.52255L36.2959 9.51362L43.4071 12.5047L44.9532 13.158V11.7288L43.4071 11.0755L39.697 9.51362L43.4071 7.95169L44.9532 7.29842V5.86928L43.4071 6.52255Z" fill="#902E42"/>
<path d="M43.0129 13.3503L36.2959 9.51406L38.4765 17.0925L38.948 18.7417L40.0315 17.8476L39.5599 16.1984L38.4232 12.2434L41.9285 14.2444L43.3911 15.0765L44.4751 14.1824L43.0124 13.3503H43.0129Z" fill="#902E42"/>
<path d="M37.5887 17.3053L36.2957 9.51454L31.9128 16.0055L30.957 17.4163L32.3132 17.7269L33.269 16.3162L35.557 12.9297L36.233 16.9946L36.5171 18.6894L37.8733 19L37.5892 17.3053H37.5887Z" fill="#902E42"/>
<path d="M31.1964 15.4265L36.2957 9.51509L28.6314 10.0579L26.9639 10.1732L27.5767 11.4555L29.2443 11.3402L33.2437 11.0581L30.5836 14.1437L29.4761 15.4318L30.0889 16.7146L31.1964 15.4265Z" fill="#902E42"/>
<path d="M28.6226 9.12017L36.2958 9.51514L31.0891 3.70309L29.9585 2.43678L29.3692 3.7312L30.4998 4.99751L33.2155 8.03075L29.2119 7.82624L27.5424 7.74337L26.9531 9.0373L28.6226 9.12017Z" fill="#902E42"/>
<path d="M31.7947 3.10894L36.2953 9.51416L37.4456 1.69967L37.6986 0.000105858L36.3485 0.336918L36.0955 2.03648L35.494 6.11407L33.1443 2.77261L32.1626 1.38079L30.8125 1.7176L31.7942 3.10943L31.7947 3.10894Z" fill="#902E42"/>
<path d="M38.3365 1.89448L36.2949 9.51367L42.9403 5.54803L44.3874 4.68783L43.2875 3.81503L41.8403 4.67523L38.3719 6.7431L39.436 2.76728L39.8774 1.10891L38.7775 0.236112L38.3361 1.89448H38.3365Z" fill="#902E42"/>
</g>
<g clip-path="url(#clip2_1_4835)">
<path d="M69.3208 6.52255L61.8145 9.51362L69.3208 12.5047L70.9527 13.158V11.7288L69.3208 11.0755L65.4045 9.51362L69.3208 7.95169L70.9527 7.29842V5.86928L69.3208 6.52255Z" fill="#647AA2"/>
<path d="M68.9056 13.3503L61.8154 9.51406L64.1171 17.0925L64.6149 18.7417L65.7585 17.8476L65.2608 16.1984L64.061 12.2434L67.7609 14.2444L69.3048 15.0765L70.449 14.1824L68.9051 13.3503H68.9056Z" fill="#647AA2"/>
<path d="M63.1798 17.3053L61.8149 9.51454L57.1886 16.0055L56.1797 17.4163L57.6112 17.7269L58.6201 16.3162L61.0352 12.9297L61.7488 16.9946L62.0486 18.6894L63.4802 19L63.1803 17.3053H63.1798Z" fill="#647AA2"/>
<path d="M56.4325 15.4265L61.8151 9.51509L53.7251 10.0579L51.9648 10.1732L52.6118 11.4555L54.372 11.3402L58.5935 11.0581L55.7856 14.1437L54.6166 15.4318L55.2635 16.7146L56.4325 15.4265Z" fill="#647AA2"/>
<path d="M53.7153 9.12017L61.8149 9.51514L56.3189 3.70309L55.1255 2.43678L54.5035 3.7312L55.6968 4.99751L58.5634 8.03075L54.3374 7.82624L52.5752 7.74337L51.9531 9.0373L53.7153 9.12017Z" fill="#647AA2"/>
<path d="M57.0641 3.10894L61.8147 9.51416L63.029 1.69967L63.296 0.000105858L61.8709 0.336917L61.6039 2.03648L60.9689 6.11407L58.4887 2.77261L57.4524 1.38079L56.0273 1.7176L57.0636 3.10943L57.0641 3.10894Z" fill="#647AA2"/>
<path d="M63.9695 1.89448L61.8145 9.51367L68.829 5.54803L70.3565 4.68783L69.1955 3.81503L67.668 4.67523L64.0068 6.7431L65.13 2.76728L65.596 1.10891L64.4349 0.236112L63.969 1.89448H63.9695Z" fill="#647AA2"/>
</g>
<defs>
<clipPath id="clip0_1_4835">
<rect width="19" height="19" fill="white" transform="matrix(1 0 0 -1 0.953125 19)"/>
</clipPath>
<clipPath id="clip1_1_4835">
<rect width="18" height="19" fill="white" transform="matrix(1 0 0 -1 26.9531 19)"/>
</clipPath>
<clipPath id="clip2_1_4835">
<rect width="19" height="19" fill="white" transform="matrix(1 0 0 -1 51.9531 19)"/>
</clipPath>
</defs>
</svg>
