<?xml version="1.0" encoding="UTF-8"?>
<svg id="Layer_2" data-name="Layer 2" xmlns="http://www.w3.org/2000/svg" viewBox="0 0 118.89 32.41">
  <defs>
    <style>
      .cls-1, .cls-2, .cls-3, .cls-4 {
        fill: #22356c;
      }

      .cls-1, .cls-3 {
        font-family: Shera-Bold, Shera;
        font-size: 12.82px;
        font-weight: 700;
      }

      .cls-5 {
        letter-spacing: -.04em;
      }

      .cls-6 {
        letter-spacing: 0em;
      }

      .cls-7 {
        letter-spacing: -.03em;
      }

      .cls-8 {
        fill: #2fc0f0;
      }

      .cls-9 {
        letter-spacing: -.08em;
      }

      .cls-10, .cls-3 {
        letter-spacing: -.05em;
      }

      .cls-2 {
        font-size: 4.69px;
        letter-spacing: -.05em;
      }

      .cls-2, .cls-4 {
        font-family: Shera, Shera;
      }

      .cls-11 {
        fill: none;
        stroke: #22356c;
        stroke-miterlimit: 10;
        stroke-width: .5px;
      }

      .cls-4 {
        font-size: 6.76px;
      }
    </style>
  </defs>
  <g id="Layer_1-2" data-name="Layer 1">
    <g>
      <g>
        <text class="cls-1" transform="translate(0 22.02)"><tspan class="cls-10" x="0" y="0">SWI</tspan><tspan class="cls-9" x="20.63" y="0">T</tspan><tspan class="cls-10" x="26.81" y="0">CH</tspan></text>
        <text class="cls-3" transform="translate(68.36 21.29)"><tspan x="0" y="0">CEILINGS</tspan></text>
        <text class="cls-4" transform="translate(87.22 8.88)"><tspan class="cls-7" x="0" y="0">F</tspan><tspan class="cls-6" x="3.22" y="0">OR</tspan></text>
        <line class="cls-11" x1=".61" y1="27.46" x2="30.76" y2="27.46"/>
        <line class="cls-11" x1="69.63" y1="27.46" x2="118.24" y2="27.46"/>
        <line class="cls-11" x1=".61" y1="7.52" x2="47.84" y2="7.52"/>
        <path class="cls-8" d="M67.53,21.83c0,1.88-.29,3.5-.87,4.84-.58,1.34-1.39,2.44-2.42,3.29-1.03.85-2.25,1.47-3.65,1.86-1.4.39-2.91.58-4.53.58s-3.06-.19-4.44-.58c-1.37-.39-2.58-1.01-3.61-1.86-1.03-.85-1.85-1.96-2.44-3.32-.6-1.36-.9-3.01-.9-4.95v-9.37c0-2,.31-3.77.92-5.31.61-1.54,1.46-2.82,2.55-3.85,1.09-1.03,2.38-1.82,3.88-2.35,1.49-.54,3.12-.81,4.89-.81s3.51.19,5.06.58c1.55.39,3.05.91,4.48,1.57l-2.11,4.48c-1.17-.45-2.33-.8-3.5-1.05-1.17-.25-2.32-.38-3.45-.38-2.09,0-3.78.59-5.06,1.77-1.29,1.18-1.93,2.94-1.93,5.27v2.42h.13c.63-1.25,1.56-2.26,2.8-3.03,1.24-.76,2.73-1.14,4.46-1.14,1.19,0,2.38.17,3.54.52,1.17.34,2.2.9,3.12,1.66.91.76,1.65,1.76,2.22,2.98.57,1.23.85,2.7.85,4.44v1.75ZM61.84,20.04c0-.84-.14-1.55-.43-2.15-.28-.6-.67-1.08-1.17-1.46-.49-.37-1.06-.64-1.7-.81-.64-.16-1.31-.25-1.99-.25-.87,0-1.67.14-2.42.43-.75.28-1.4.67-1.95,1.17-.55.49-.99,1.08-1.32,1.75-.33.67-.49,1.38-.49,2.13v.94c0,1.91.52,3.31,1.55,4.19,1.03.88,2.35,1.32,3.97,1.32,1.88,0,3.35-.43,4.39-1.28,1.05-.85,1.57-2.26,1.57-4.24v-1.75Z"/>
      </g>
      <line class="cls-11" x1="100.36" y1="7.52" x2="118.24" y2="7.52"/>
      <g>
        <polygon class="cls-8" points="73.1 2.33 84.7 2.33 84.7 9.58 69.01 9.58 73.1 2.33"/>
        <text class="cls-2" transform="translate(74.11 7.27)"><tspan x="0" y="0">mm</tspan></text>
      </g>
      <text class="cls-4" transform="translate(33.69 29.58)"><tspan class="cls-5" x="0" y="0">T</tspan><tspan class="cls-6" x="3.32" y="0">O</tspan></text>
    </g>
  </g>
</svg>