<?xml version="1.0" encoding="UTF-8"?>
<svg id="Layer_1" xmlns="http://www.w3.org/2000/svg" version="1.1" viewBox="0 0 60 60">
  <!-- Generator: Adobe Illustrator 29.5.0, SVG Export Plug-In . SVG Version: 2.1.0 Build 137)  -->
  <defs>
    <style>
      .st0 {
        fill-rule: evenodd;
      }

      .st1 {
        fill: #121212;
      }
    </style>
  </defs>
  <path class="st1" d="M33.76,21.97c0,.53-.42.95-.94.95h-13.4c-.52,0-.94-.43-.94-.95s.42-.95.94-.95h13.4c.52,0,.94.43.94.95Z"/>
  <path class="st1" d="M19.42,34.59c-.52,0-.94-.43-.94-.95s.42-.95.94-.95h5.77c.52,0,.94.43.94.95s-.42.95-.94.95h-5.77Z"/>
  <path class="st0" d="M49.19,27.13h-5.06v-7.12c0-2.48-1.28-4.77-3.37-6.04l-12.45-7.58c-2.18-1.33-4.9-1.33-7.09,0l-12.46,7.58c-2.08,1.27-3.36,3.57-3.36,6.04v15.5c0,2.48,1.28,4.77,3.36,6.04l12.46,7.58c2.18,1.33,4.9,1.33,7.09,0l12.45-7.58c2.09-1.27,3.37-3.57,3.37-6.04v-6.48h5.06c.52,0,.94-.43.94-.95s-.42-.95-.94-.95ZM41.94,27.13h-22.52c-.51,0-.93.42-.93.95s.42.95.93.95h22.52v6.48c0,1.7-.87,3.27-2.3,4.14l-12.45,7.57c-1.49.91-3.35.91-4.85,0l-12.45-7.57c-1.43-.87-2.31-2.44-2.31-4.14v-15.5c0-1.7.88-3.27,2.3-4.14l12.46-7.57c1.49-.91,3.35-.91,4.85,0l12.45,7.57c1.43.87,2.3,2.44,2.3,4.14v7.12Z"/>
</svg>