<?xml version="1.0" encoding="UTF-8"?>
<svg id="Layer_1" xmlns="http://www.w3.org/2000/svg" version="1.1" viewBox="0 0 60 60">
  <!-- Generator: Adobe Illustrator 29.5.0, SVG Export Plug-In . SVG Version: 2.1.0 Build 137)  -->
  <defs>
    <style>
      .st0 {
        fill-rule: evenodd;
      }
    </style>
  </defs>
  <path class="st0" d="M45.42,21.06l-13.76,6.62c-1.42.68-2.3,2.02-2.3,3.47v16.68c0,2.99,3.53,4.88,6.41,3.44l13.76-6.86c1.39-.69,2.24-2.01,2.24-3.45v-16.43c0-2.96-3.47-4.86-6.35-3.47ZM49.41,40.96c0,.65-.39,1.25-1.02,1.57l-13.76,6.87c-1.31.65-2.91-.21-2.91-1.57v-16.68c0-.66.4-1.27,1.04-1.58l13.76-6.62c1.31-.63,2.89.23,2.89,1.58v16.43ZM23.51,27.68l-13.76-6.62c-2.88-1.39-6.35.51-6.35,3.47v16.43c0,1.44.86,2.76,2.24,3.45l13.76,6.86c2.88,1.44,6.4-.45,6.4-3.44v-16.68c0-1.46-.89-2.79-2.3-3.47ZM23.46,47.83c0,1.36-1.61,2.22-2.91,1.57l-13.76-6.87c-.63-.31-1.02-.91-1.02-1.57v-16.43c0-1.34,1.58-2.21,2.89-1.58l13.76,6.62c.64.31,1.05.91,1.05,1.58v16.68ZM45.03,11.35l-14.76-7.45c-1.31-.66-2.9-.66-4.2,0l-14.76,7.45c-2.96,1.49-2.96,5.37,0,6.87l14.76,7.45c1.31.66,2.9.66,4.2,0l14.76-7.45c2.96-1.5,2.96-5.38,0-6.87ZM43.89,16.34l-14.76,7.45c-.59.3-1.32.3-1.91,0l-14.76-7.45c-1.35-.68-1.35-2.44,0-3.12l14.76-7.45c.59-.3,1.32-.3,1.91,0l14.76,7.45c1.34.68,1.34,2.44,0,3.12Z"/>
</svg>