<svg width="22" height="26" viewBox="0 0 22 26" fill="none" xmlns="http://www.w3.org/2000/svg">
<path d="M6.65132 10.9737C7.05249 11.9944 7.59983 12.8263 8.19858 13.6169C9.12707 14.8422 10.163 15.9366 11.3618 16.8226C11.6208 17.0137 11.9039 17.1634 12.1668 17.3484C12.3311 17.4635 12.4358 17.4236 12.566 17.2747C13.0259 16.7482 13.4845 16.2171 13.9698 15.7215C14.8148 14.8587 15.9048 14.8557 16.7292 15.741C17.6303 16.7083 18.5134 17.6997 19.3711 18.7159C20.3003 19.8156 20.2703 21.0747 19.3184 22.2188C18.8091 22.831 18.2898 23.4335 17.7491 24.0097C16.9561 24.8559 15.9876 25.1267 14.9209 25.0071C12.7048 24.7581 10.7838 23.6494 8.95352 22.3278C5.60535 19.9096 3.04016 16.679 1.24927 12.6759C0.703256 11.4558 0.272053 10.1817 0.0804818 8.82848C-0.143797 7.24514 0.0624594 5.78742 1.18786 4.63659C1.70584 4.10705 2.15973 3.49553 2.6924 2.98706C3.6062 2.11378 4.60344 2.10626 5.48721 3.02617C6.45775 4.03635 7.38757 5.10219 8.27868 6.20112C9.02294 7.11878 8.98756 8.29895 8.23663 9.22338C7.74201 9.83189 7.19066 10.3817 6.64999 10.9744L6.65132 10.9737ZM1.21389 7.81154C1.26195 8.20718 1.25928 8.62163 1.36875 8.99471C1.67713 10.0463 1.95014 11.1256 2.38201 12.114C3.90324 15.5981 6.11198 18.4511 8.93549 20.6648C10.7718 22.1044 12.7122 23.3403 15.003 23.6404C15.7907 23.7434 16.4755 23.5358 17.0389 22.8867C17.4895 22.367 17.9414 21.848 18.3933 21.3289C18.9773 20.6588 18.9813 20.2037 18.3933 19.535C17.6176 18.6542 16.838 17.7779 16.0577 16.9024C15.5224 16.3021 15.1459 16.2984 14.6065 16.8956C14.1226 17.4312 13.648 17.978 13.1654 18.515C12.7449 18.9837 12.4345 19.0235 11.9065 18.7384C10.7631 18.1217 9.75184 17.2913 8.82936 16.3232C7.50505 14.9332 6.31023 13.4243 5.54328 11.5454C5.27895 10.8977 5.3477 10.5322 5.8056 10.0335C6.26951 9.52801 6.73743 9.02706 7.18799 8.50805C7.73667 7.87622 7.73267 7.46553 7.18398 6.84047C6.39433 5.94087 5.60068 5.04502 4.80436 4.15294C4.30574 3.59407 3.85985 3.59106 3.35789 4.1424C2.90399 4.6411 2.46879 5.16086 2.00955 5.65353C1.45953 6.24324 1.18719 6.94728 1.21523 7.81003L1.21389 7.81154Z" fill="#00AB4D"/>
<path d="M11.207 1.61283C11.2283 1.20815 11.5614 0.902017 11.9272 0.977235C14.0812 1.41952 15.9896 2.43571 17.6243 4.08825C19.1515 5.63172 20.2609 7.4881 20.8977 9.68822C21.0753 10.302 21.1934 10.9398 21.3176 11.5717C21.3903 11.9418 21.2054 12.2374 20.8857 12.3374C20.5793 12.4329 20.2649 12.272 20.1695 11.9177C20.038 11.4295 19.9692 10.9195 19.8304 10.4344C18.7103 6.51252 16.3961 3.92653 12.9238 2.65685C12.5253 2.51093 12.1074 2.43421 11.7009 2.31461C11.3792 2.21983 11.1903 1.94078 11.2077 1.61358L11.207 1.61283Z" fill="#00AB4D"/>
<path d="M16.7893 12.5638C16.5536 12.5555 16.3454 12.39 16.2753 12.0335C16.1051 11.161 15.8534 10.3268 15.4095 9.5769C14.5024 8.04471 13.2495 7.09696 11.6522 6.70959C11.1523 6.58849 10.9674 6.2816 11.0681 5.82503C11.1536 5.43916 11.46 5.2797 11.9225 5.39403C14.5885 6.04993 16.3414 7.86043 17.2331 10.748C17.3346 11.076 17.4007 11.4197 17.4641 11.7612C17.5422 12.1794 17.2492 12.5653 16.7893 12.5646V12.5638Z" fill="#00AB4D"/>
</svg>
