<svg width="22" height="18" viewBox="0 0 22 18" fill="none" xmlns="http://www.w3.org/2000/svg">
<path d="M10.647 0.151258C13.1287 0.151258 15.6111 0.149703 18.0927 0.151258C19.9584 0.152812 21.3289 1.6964 21.331 3.80349C21.3344 7.24742 21.3338 10.6921 21.331 14.1361C21.3296 16.3053 19.9543 17.8575 18.0348 17.8575C13.1053 17.859 8.17574 17.8582 3.24691 17.8575C1.65294 17.8575 0.424529 16.7701 0.0644884 15.026C0.0106893 14.7656 0.0155174 14.4866 0.0155174 14.2153C0.0120687 10.7465 0.0458656 7.27618 0.000343268 3.8066C-0.0258666 1.77568 1.45223 0.114728 3.27036 0.141931C5.72857 0.179238 8.18815 0.151258 10.647 0.151258ZM10.656 16.5564C13.1266 16.5564 15.5973 16.5587 18.0679 16.5556C19.3535 16.554 20.1681 15.6283 20.1688 14.1718C20.1702 10.7403 20.1695 7.30882 20.1688 3.87732C20.1688 2.36793 19.366 1.45546 18.0334 1.45546C13.1266 1.4539 8.21988 1.4539 3.31313 1.45546C1.96608 1.45546 1.14875 2.37493 1.14737 3.89753C1.14461 7.30338 1.14461 10.7092 1.14737 14.1143C1.14875 15.6353 1.96746 16.5556 3.31382 16.5564C5.76168 16.5579 8.20885 16.5564 10.6567 16.5564H10.656Z" fill="#00AB4D"/>
<path d="M14.6889 9.06149C15.7124 10.2437 16.7229 11.4118 17.7334 12.5793C17.8534 12.7184 17.9865 12.8466 18.0906 12.9997C18.2389 13.2174 18.2569 13.4575 18.0755 13.6666C17.8892 13.8819 17.6706 13.8943 17.454 13.7241C17.3609 13.6511 17.283 13.5524 17.2009 13.4622C16.1166 12.2676 15.0331 11.0722 13.9191 9.84416C13.6577 10.1053 13.4046 10.361 13.1494 10.6136C11.7541 11.9932 9.86834 12.1362 8.50129 10.9486C8.11159 10.6105 7.75293 10.2273 7.36806 9.85271C6.24587 11.0908 5.13747 12.3142 4.02907 13.536C3.96354 13.6083 3.90078 13.6868 3.82491 13.742C3.6173 13.8928 3.41935 13.9114 3.24553 13.6752C3.06137 13.4218 3.06137 13.1241 3.40969 12.7495C4.46705 11.5245 5.5251 10.3004 6.60177 9.05449C5.86376 8.31068 5.0747 7.52178 4.29255 6.72434C3.82422 6.24634 3.36486 5.75746 2.90481 5.26935C2.60822 4.95457 2.55373 4.56596 2.76272 4.31491C2.99447 4.03666 3.28968 4.06153 3.60902 4.38564C5.36991 6.16861 7.12872 7.95315 8.89306 9.73224C9.95525 10.8033 11.3257 10.8149 12.3852 9.74934C14.1516 7.97336 15.9083 6.18649 17.6685 4.40274C17.981 4.0864 18.3079 4.04754 18.5203 4.30947C18.7307 4.56984 18.6873 4.96468 18.3948 5.26547C17.3168 6.37381 16.2346 7.47592 15.1538 8.58038C14.9841 8.7537 14.8165 8.92936 14.6896 9.06149H14.6889Z" fill="#00AB4D"/>
</svg>
