<svg width="24" height="24" viewBox="0 0 24 24" fill="none" xmlns="http://www.w3.org/2000/svg">
<path d="M13.5663 22.5H8.85167V11.2676H6.64258V7.27834H8.83033C8.83033 7.03121 8.8244 6.82645 8.83033 6.62169C8.86353 5.62379 8.80898 4.61293 8.95365 3.6315C9.2572 1.56861 10.6683 0.236495 12.8074 0.0588012C14.2114 -0.0588766 15.6331 0.0364424 17.075 0.0364424V3.82685C16.3446 3.82685 15.6034 3.82567 14.8623 3.82685C13.8734 3.8292 13.5509 4.14575 13.5461 5.12483C13.5426 5.80854 13.5461 6.49225 13.5461 7.24186H17.1426C17.0027 8.6081 16.871 9.89784 16.7347 11.2276H13.5663V22.4988V22.5Z" fill="#00AB4D"/>
</svg>
