<svg width="233" height="119" viewBox="0 0 233 119" fill="none" xmlns="http://www.w3.org/2000/svg">
<path d="M36 6.15625L181.699 18.6574L174.329 22.2258H69.1653L36 6.15625Z" fill="#C7C8C9"/>
<path d="M36.0112 6.15625L69.1649 22.2258H174.328L181.698 18.6574" stroke="#204282" stroke-width="0.32" stroke-miterlimit="10"/>
<path d="M69.585 95.8923V22.6465H173.955V96.6387" stroke="#204282" stroke-width="0.5" stroke-miterlimit="10"/>
<path d="M170.037 96.171L127.962 95.961C127.216 95.961 123.636 79.0286 123.158 75.4835C122.703 72.125 121.782 65.4079 122.866 61.9445C123.881 58.7026 127.064 56.8601 130.329 58.3644C131.601 58.9475 132.02 58.9708 131.974 60.2536C131.939 61.2914 131.857 63.3672 131.869 65.1514C131.88 67.0639 132.487 71.262 133.326 73.2794C133.851 74.5505 135.764 76.9761 137.081 77.4543C138.143 77.8391 138.446 76.8712 138.562 75.9616C138.819 73.9325 140.113 71.332 141.793 69.9792C143.892 68.2883 144.533 70.3874 145.676 68.7198C146.177 67.9851 146.772 66.714 147.052 65.268C147.239 64.3234 148.137 61.2798 149.396 60.3702C150.702 59.4256 152.055 60.7667 151.903 62.3643C151.81 63.3205 151.507 64.6266 151.285 65.4896C151.005 66.6324 149.769 69.8043 150.725 71.4136C151.192 72.2066 152.871 72.7547 153.699 73.2328C154.935 73.9441 155.798 74.5389 156.078 75.2852C156.335 75.9383 156.078 76.2065 156.078 76.7429C156.078 77.1977 156.591 78.4688 157.023 79.3434C157.629 80.5912 157.862 80.4046 157.244 81.9556C157.116 82.2705 156.976 82.492 156.848 82.6903C155.985 83.9614 156.813 85.1392 156.125 86.4219C155.087 88.3694 156.626 88.1945 155.507 89.1507C154.924 89.6522 150.83 91.0166 148.766 90.5618C144.743 89.6755 145.513 87.3782 147.157 87.3782C148.148 87.3782 149.804 87.3315 150.504 87.4598C151.204 87.5881 153.396 86.6318 153.641 87.4132C153.886 88.1945 152.066 86.9584 151.075 86.9584C150.084 86.9584 149.291 87.005 148.102 86.9584C146.9 86.9234 146.236 86.9234 145.373 86.6668C144.498 86.4219 143.612 85.2791 144.358 84.4395C145.105 83.5882 146.527 84.1246 146.982 84.0896C147.437 84.043 151.985 83.6932 152.335 83.6815C152.685 83.6582 153.641 83.0634 153.746 83.4949C153.851 83.9264 152.603 83.1217 152.055 83.1217C151.507 83.1217 150.935 83.1801 150.177 83.1801C149.419 83.1801 148.125 83.2267 147.285 83.2617C146.656 83.2967 145.653 83.4483 144.976 83.4483C143.915 83.4483 143.04 81.1859 144.825 80.6728C145.361 80.5212 146.072 80.358 146.702 80.2647C147.88 80.1014 152.475 78.3755 152.871 78.9469C153.349 79.635 150.912 78.702 150.119 78.8653C149.338 79.0286 148.545 79.4017 148.078 79.46C145.245 79.8332 141.968 78.2822 144.871 75.6351C146.236 74.3873 148.673 73.7692 149.093 73.6876C149.513 73.606 151.04 72.7313 151.204 73.4777C151.343 74.0957 149.326 73.2561 147.927 73.1978C146.691 73.1512 144.335 74.364 143.484 75.74C142.632 77.1277 144.452 79.8798 142.714 80.183C141.268 80.4279 140.312 79.3084 139.612 78.3639C138.912 77.4076 138.784 75.9499 138.994 75.1803C139.297 74.0374 140.568 71.5069 141.618 70.5157C142.352 69.816 145.21 69.5478 143.868 68.6265C141.361 66.9006 140.393 67.0405 137.501 63.8686C136.3 62.5509 133.875 60.2885 133.058 59.7754C132.638 59.5072 132.452 59.5655 132.382 59.7871C132.265 60.1369 132.172 62.3643 132.137 63.8686C132.09 65.5012 132.312 67.7752 132.638 69.4778C132.825 70.469 133.21 71.7285 133.618 72.8013C134.119 74.1307 134.877 75.3435 135.286 76.6963C135.997 79.0519 135.974 81.9906 136.825 84.4045C137.058 85.0575 138.364 91.1682 138.889 93.8853C139.192 95.4246 139.46 95.3546 137.851 95.378C132.743 95.4479 129.117 96.9289 127.647 91.0865C126.936 88.2528 125.537 82.8185 125.537 82.492C125.537 82.1189 123.857 74.5622 123.519 72.673C123.449 72.2532 123.577 71.262 123.741 70.7606C124.114 69.5827 124.51 72.2999 121.642 72.4048C120.965 72.4282 120.184 72.3582 119.566 72.3115C117.735 72.1716 117.805 74.6672 117.478 76.9062C116.755 81.8973 114.202 89.2557 112.616 94.7832C112.068 96.6841 109.199 95.4363 110.26 96.4741C111.065 97.2555 110.412 95.0981 110.657 94.0952C112.231 87.5298 116.522 72.7313 117.642 66.3992C117.887 65.0114 117.968 63.4954 117.723 62.1077M117.723 62.1194C117.723 62.1194 117.397 60.4868 116.884 59.6005C116.779 59.4256 116.382 58.9591 116.032 58.7026C115.274 58.1312 115.123 59.0991 115.904 59.274C116.184 59.3323 116.557 59.3556 116.977 59.4139C119.239 59.6938 123.787 59.962 124.767 57.2915C125.082 56.4286 125.128 55.8455 125.198 55.414C125.385 54.2012 126.866 53.4316 127.379 51.5074C127.962 49.3267 127.531 43.3444 126.015 40.4057C125.42 39.2629 124.545 38.7731 123.834 38.0034C122.423 36.4874 122.213 33.3505 124.685 34.6566C126.26 35.4845 128.394 38.0267 129.525 40.1258C130.831 42.5514 131.845 49.5949 131.741 53.6298C131.636 57.8629 125.268 59.4606 126.983 60.5451C128.254 61.3497 127.099 58.9475 126.621 57.3149C126.201 55.8572 126.796 53.898 127.367 52.5453C127.449 52.3354 127.741 51.1576 127.974 49.9215C128.475 47.1694 128.055 41.9333 126.061 39.2279C125.746 38.8081 125.397 38.4466 125.012 38.1667C123.263 36.9189 120.72 37.5136 118.598 38.5982C113.817 41.0354 114.563 44.5105 114.633 49.5017C114.633 49.9914 114.575 50.3879 114.516 50.7611C114.248 52.6736 115.379 53.6065 115.368 55.5423C115.356 58.7959 109.222 60.1836 111.426 62.5742C112.896 64.1602 112.219 60.9183 111.391 58.6909C109.572 53.7814 110.272 48.3472 111.683 43.3444C112.697 39.7293 113.607 37.6069 116.802 35.2047C119.006 33.5487 120.849 33.5371 121.712 33.9336C122.61 34.3417 122.691 35.8344 122.318 36.8956C121.863 38.1783 120.032 38.7264 118.586 39.3212C116.965 39.9859 116.126 40.6622 115.683 41.4086C114.831 42.8429 114.866 47.4959 114.89 50.0614C114.925 53.5365 118.901 57.793 122.528 56.8834C122.983 56.7668 123.962 56.277 124.37 55.9271C124.732 55.6123 124.604 54.5161 124.289 54.9592C124.032 55.3091 124.289 55.8105 124.172 56.3353C123.904 57.6647 121.712 58.1661 120.604 58.2011C118.901 58.2594 115.858 57.3265 114.831 57.7463C114.481 57.8863 111.415 59.0874 110.26 59.4256C109.409 59.6705 108.557 59.4606 108.476 60.3235C108.406 61.1865 108.359 63.3905 108.394 65.268C108.429 67.0056 108.487 69.3495 108.126 70.8772C107.718 72.6381 106.144 72.8363 105.572 73.9908M105.595 73.9558C104.779 75.4718 104.021 76.5913 102.645 77.5942C101.514 78.4222 99.6014 79.7516 98.6102 80.5562C96.3479 82.3754 99.9163 76.0316 97.0709 72.848C95.6015 71.2037 94.3654 71.1104 93.4908 71.1571C91.2984 71.2737 89.4093 68.1484 88.1848 66.5274C87.765 65.9677 86.4239 63.682 85.3977 62.2477C84.3599 60.8133 79.7069 56.3819 80.1034 60.5917C80.1617 61.2215 80.29 61.8978 80.4533 62.5042C80.8847 64.0785 81.8293 64.8482 82.6106 65.8511C85.2694 69.2679 84.3132 71.262 80.8031 72.708C80.1034 72.9996 77.6545 73.6526 77.5379 74.947C77.4096 76.2298 77.293 76.1832 77.4912 76.9295C77.7011 77.6758 77.5729 78.4222 77.1181 79.1685C76.6633 79.9148 76.9548 81.734 77.5262 82.3987C78.1093 83.0634 78.4825 82.3987 78.5174 83.5532C78.5641 84.7077 78.6807 85.3141 79.4737 85.7922C80.255 86.2703 80.7098 86.3753 80.7798 86.9934C80.8381 87.6114 80.4882 88.7542 81.7943 89.0574C83.7418 89.5239 89.8524 90.037 89.5492 86.7951C89.5142 86.3986 89.3626 86.0838 88.9778 86.0371C88.2898 85.9555 86.5755 86.4919 85.8525 86.5386C85.1295 86.5852 81.8176 86.5969 82.3308 87.04C82.7622 87.4015 83.4969 86.7018 84.0217 86.3753C84.8963 85.8389 88.0915 85.8622 89.3626 85.4074C89.8757 85.2208 91.0419 84.4745 91.0419 83.6932C91.0419 79.9848 87.042 82.8419 83.8001 82.9468C83.1354 82.9701 81.6544 82.0372 81.7127 82.5736C81.771 83.1101 82.7856 82.527 83.4969 82.4337C84.1966 82.3288 84.7097 82.1422 85.421 82.0372C86.1207 81.9323 88.8962 81.6058 89.8641 81.2676C90.8436 80.941 91.3801 80.4629 91.7532 80.1131C93.2226 78.7254 92.6162 77.221 90.7037 77.8391C88.8379 78.4338 83.9983 78.8303 83.3453 78.8303C82.6923 78.8303 79.8935 78.3639 80.4183 78.7254C80.943 79.0869 80.8964 78.0373 81.5844 77.9207C82.2724 77.7924 85.0829 78.1073 86.2723 77.8974C87.4735 77.6875 89.1644 77.4426 89.9107 76.8245C90.6571 76.2065 90.9836 76.1598 91.1119 75.4252C91.2401 74.6788 91.4034 74.1424 89.7941 73.4777C88.1848 72.813 84.2899 72.4048 83.5902 72.5681C82.8905 72.7314 82.0625 72.4515 82.8905 72.9879C83.7185 73.5243 84.2549 72.2066 85.3744 71.95C86.4939 71.7051 87.4385 71.7051 88.9661 71.9967C93.9806 72.9413 93.3159 79.9032 92.1497 83.5765C91.9048 84.3579 90.6221 85.9322 90.7037 85.3374C90.7853 84.731 92.0098 83.8914 92.6279 83.3666C92.7445 83.2733 92.8494 83.18 92.9427 83.0868C94.482 81.5708 97.2924 81.7573 97.6073 79.8798C98.272 75.8333 97.9338 72.5564 93.6074 71.9384C92.6162 71.7984 91.6716 70.2591 93.4208 69.746C98.1437 68.3583 99.4731 67.0755 102.855 63.4255C103.216 63.0406 106.925 59.2273 107.916 59.7171C108.324 59.9154 108.138 61.7579 108.126 62.1544C108.103 63.4138 108.231 69.0463 107.671 70.9588C106.505 74.9937 104.966 79.8798 103.59 84.2412C101.887 89.6289 102.458 95.5296 97.4557 95.5296L70.6343 95.6112" stroke="#204282" stroke-width="0.5" stroke-miterlimit="10"/>
<path d="M165.186 32.651C166.585 34.89 166.713 36.9541 166.072 40.056C165.431 43.158 162.55 48.1141 158.48 47.706C154.411 47.2978 149.303 43.9626 149.676 39.0298C150.038 34.0853 152.941 30.4003 157.722 30.2487C162.515 30.0971 164.953 33.6539 165.279 34.4468C165.676 35.4031 165.909 36.7558 165.687 38.5983C165.466 40.4642 164.673 42.9597 163.355 44.4641C162.131 45.8635 159.297 45.6069 159.157 45.5486C159.017 45.5019 155.39 40.6741 155.274 40.5575C155.157 40.4409 155.355 39.5079 155.542 39.3447C155.728 39.1814 157.641 39.5429 158.376 38.8199C159.11 38.0969 159.052 36.7791 159.11 36.7092C159.168 36.6392 162.317 36.6275 162.352 36.6859C162.387 36.7442 161.909 37.5605 161.746 37.6071C161.594 37.6538 155.227 37.5138 155.204 37.4555C155.18 37.3972 155.787 36.5343 155.857 36.4993C155.927 36.4759 158.854 36.6042 158.947 36.5226C159.04 36.441 158.387 35.4964 157.932 35.3798C157.478 35.2632 155.274 35.4731 155.169 35.4497C155.064 35.4264 155.682 34.4585 155.787 34.4002C155.88 34.3536 162.084 34.3536 162.119 34.4119C162.154 34.4702 161.711 35.3098 161.512 35.4148C161.326 35.508 160.171 35.4381 160.055 35.4614C159.938 35.4964 161.058 37.129 160.335 38.7499C159.6 40.3709 157.687 40.3592 157.687 40.4525C157.687 40.5458 161.956 46.19 161.652 46.6798C161.338 47.2045 157.874 49.4319 152.86 46.808C146.971 43.7294 147.565 34.82 152.37 31.1583C157.174 27.4966 165.722 29.9222 166.702 35.8929C167.681 41.8636 165.279 47.2162 161.209 48.3473L161.081 48.394C160.51 48.6972 156.999 49.84 157.163 50.1549C157.326 50.4697 159.437 50.8779 160.206 51.4493C160.976 52.0207 160.591 52.4755 160.206 52.7087C159.822 52.9536 157.757 53.3268 156.661 53.2685C155.565 53.1985 152.125 52.2306 152.906 52.2656C153.688 52.3006 156.405 53.1402 158.271 52.8487C160.136 52.5688 163.402 50.9945 164.241 50.0499C165.093 49.1053 166.34 48.3473 166.818 48.5806C167.297 48.8255 165.851 49.945 164.719 50.598C163.6 51.2511 160.673 53.0936 161.944 52.2306C163.215 51.3677 165.547 49.98 166.399 49.1637C167.25 48.3473 167.751 48.0325 169.057 48.3007C170.364 48.5573 170.2 49.2919 169.536 49.9216C168.871 50.5397 166.422 52.3356 164.801 54.0032C163.18 55.6708 163.238 55.7174 161.652 56.3355C160.066 56.9535 156.871 59.2742 155.763 59.4491C154.655 59.6357 147.554 56.1839 144.813 55.8457C142.376 55.5425 142.819 56.7086 141.07 57.5249C140.848 57.6299 140.592 57.7232 140.3 57.8048C140.3 57.8048 136.883 58.1313 138.306 54.8778C138.866 53.665 141.956 52.8953 142.842 56.1372" stroke="#204282" stroke-width="0.5" stroke-miterlimit="10"/>
<path d="M158.061 50.6C156.743 50.9032 155.402 50.9032 154.294 50.6233C151.239 49.8653 149.513 47.7662 147.717 47.533C145.921 47.2998 142.551 48.3843 137.455 50.6699C137.455 50.6699 132.942 54.9614 140.02 62.2265C140.51 62.6929 145.699 67.4625 144.067 69.34" stroke="#204282" stroke-width="0.22" stroke-miterlimit="10"/>
<path d="M147.251 97.6521C139.076 97.6521 127.694 97.6754 114.692 97.6871C112.266 97.6871 109.77 97.6871 107.24 97.6871H102.634L72.5703 97.7104V97.6055L147.251 97.6288V97.6521Z" fill="#204282"/>
<path d="M197.383 107.67C197.313 107.576 197.185 107.495 196.917 107.425C196.87 107.296 196.789 107.157 196.684 107.028C196.241 106.468 195.273 106.014 192.462 104.708L191.809 104.404C189.955 103.541 187.809 102.539 185.838 101.606C184.229 100.848 181.85 99.7398 180.264 98.9818C178.391 98.1033 177.05 97.6641 176.241 97.6641C175.658 97.6641 174.795 97.6641 173.722 97.6641C172.638 97.6641 171.343 97.6641 169.909 97.6641H169.722L107.24 97.7107H102.634C92.978 97.734 82.7859 97.7457 72.5704 97.7574V98.3171C87.1473 98.2938 101.712 98.2821 114.68 98.2588C127.683 98.2471 139.076 98.2238 147.239 98.2238C161.361 98.2238 165.851 98.2238 168.661 98.2238C169.104 98.2238 169.501 98.2238 169.886 98.2238H173.699C174.783 98.2238 175.646 98.2238 176.218 98.2238C176.949 98.2238 178.212 98.6475 180.008 99.4949C181.162 100.043 182.923 100.871 185.582 102.119C187.868 103.192 190.13 104.241 191.553 104.918L192.217 105.221C194.829 106.445 195.786 106.888 196.182 107.32C194.468 107.145 190.386 107.145 180.731 107.145C164.09 107.145 130.785 107.145 106.517 107.11C81.6197 107.063 64.6172 106.982 55.9761 106.947H55.8711C51.0666 106.923 48.9675 106.947 48.0346 106.97C48.5477 106.737 49.364 106.375 50.6701 105.78L63.8826 99.8448C66.0361 98.873 67.3033 98.3871 67.6842 98.3871L70.1798 98.3288C70.6113 98.3288 70.8561 98.3171 70.9728 98.2471V97.734H70.4597C70.4597 97.734 70.4597 97.7574 70.1681 97.7574L67.6726 97.8157C67.2216 97.8234 65.8845 98.3288 63.661 99.3317L50.4485 105.267C49.0025 105.92 48.1396 106.305 47.6265 106.538C47.1133 106.772 46.9501 106.853 46.8918 106.9C46.7052 107.063 46.7402 107.192 46.8568 107.32C46.9734 107.448 47.195 107.448 55.8828 107.495H55.9877C64.6172 107.541 81.6197 107.623 106.529 107.658C132.126 107.705 164.533 107.705 180.742 107.705C191.996 107.705 195.401 107.705 196.439 107.81C196.485 108.124 196.404 108.428 196.345 108.603C196.322 108.661 196.264 108.684 193.687 108.696C191.109 108.707 186.002 108.707 175.891 108.707H47.1717C46.7441 108.707 46.5303 108.906 46.5303 109.302V110.55C46.5303 110.842 46.5303 110.993 49.5156 111.075C52.501 111.156 58.4716 111.156 70.4247 111.168H72.9552C97.2811 111.191 142.155 111.25 166.34 111.285C182.771 111.308 189.663 111.32 192.87 111.32C195.039 111.32 195.529 111.32 195.716 111.32C196.474 111.32 196.847 111.32 197.08 111.215C197.43 111.063 197.43 110.853 197.43 110.422V108.008C197.43 107.868 197.43 107.751 197.36 107.646M196.87 110.422C196.87 110.608 196.87 110.702 196.87 110.702C196.742 110.76 196.404 110.76 195.727 110.76H192.882C189.675 110.76 182.783 110.737 166.352 110.725C142.155 110.69 97.2928 110.643 72.9669 110.608H70.4363C54.8799 110.585 47.1017 110.566 47.1017 110.55V109.302C47.1017 109.302 47.1017 109.267 47.1717 109.267H175.903C189.796 109.267 196.792 109.096 196.894 108.754V110.433L196.87 110.422Z" fill="#204282"/>
<path d="M108.372 59.8937C108.698 58.471 107.602 57.1649 106.832 55.9171C106.331 55.1125 105.958 54.2379 105.701 53.3283C105.445 52.3837 105.316 51.3925 104.873 50.5179C104.43 49.6433 103.544 48.8969 102.564 49.0019C101.515 49.1185 100.827 50.1097 100.127 50.891C98.5876 52.6053 96.3952 53.6315 94.1212 54.028C91.8589 54.4128 89.5149 54.2029 87.2643 53.7131C85.9815 53.4332 84.6987 53.0484 83.5442 52.442C80.4423 50.8094 78.3665 47.5558 77.7252 44.1157C76.8389 39.3578 78.6697 34.1918 82.3431 31.0432C83.2527 30.2619 84.2673 29.6088 85.2935 28.9791C86.1681 28.4543 87.066 27.9412 88.0572 27.7197C88.9785 27.5097 89.9464 27.5447 90.891 27.638C93.5731 27.8713 96.2786 28.4427 98.6342 29.7604C100.99 31.0665 102.984 33.1772 103.754 35.7544C104.36 37.7835 104.185 39.9409 103.999 42.0516C103.847 43.7542 103.66 45.5268 102.751 46.9844C102.074 48.069 101.048 48.8853 99.9986 49.6083C98.8791 50.3779 97.713 51.0776 96.5118 51.684C95.7538 52.0688 94.9725 52.4304 94.1329 52.6403C93.3749 52.8268 92.5819 52.8968 91.7889 52.8968C89.0718 52.9318 86.308 52.3604 83.9757 50.961C81.6434 49.5616 79.7776 47.2993 79.1479 44.6638C78.938 43.7659 78.8563 42.8446 78.8447 41.935C78.8213 38.4132 79.8942 34.7165 82.518 32.3609C83.3693 31.5913 84.3606 30.9849 85.3751 30.4601C86.9611 29.6321 88.6753 28.9558 90.4595 28.9324C92.407 28.9091 94.2728 29.6555 96.0804 30.3901C96.8383 30.6933 97.5963 31.0082 98.2844 31.463C99.6021 32.3493 100.512 33.7253 101.386 35.0547C101.899 35.8361 102.413 36.629 102.657 37.527C102.856 38.2383 102.867 38.9847 102.867 39.731C102.891 41.3753 102.914 43.0429 102.599 44.6638C102.401 45.7017 102.074 46.7046 101.748 47.7075C101.643 48.034 101.526 48.3605 101.293 48.6054C101.048 48.8386 100.64 48.9552 100.372 48.757C100.29 48.4654 100.687 48.2206 100.687 48.2206C102.063 46.0515 101.736 42.9612 99.9403 41.1304C99.6371 40.8155 99.2756 40.5356 98.8558 40.454C98.3893 40.3607 97.9229 40.5006 97.4914 40.6989C96.6284 41.0837 95.8588 41.6785 95.264 42.4131C94.576 41.3869 93.4449 40.6522 92.2087 40.559C90.9843 40.4773 89.7015 41.0954 89.1184 42.1799C88.8036 42.7746 88.6986 43.451 88.4071 44.0574C90.3779 44.1507 92.337 44.3373 94.2845 44.6055C93.6548 45.3868 92.4769 45.3285 91.4741 45.2119C92.302 45.8416 93.4215 46.0165 94.4361 45.8183C95.4506 45.62 96.3835 45.0836 97.1765 44.4072C97.5031 44.6172 97.8296 44.8504 98.0395 45.1652C98.2494 45.4918 98.331 45.9232 98.1444 46.2614C97.9345 46.6346 97.4914 46.7745 97.0832 46.8911C93.6431 47.8007 89.8181 48.0107 86.6462 46.4014C86.2264 46.1915 85.8182 45.9466 85.3751 45.8066C85.1419 45.7367 84.8853 45.6784 84.6871 45.5268C84.2206 45.1536 84.3489 44.4072 84.5355 43.8358C85.4567 41.0138 86.6579 38.285 88.1272 35.7078C88.3838 35.2646 88.652 34.8098 89.0601 34.5066C89.6199 34.0868 90.3546 33.9819 91.0426 33.9002L92.5702 33.7137C92.8501 33.6787 93.1533 33.6437 93.4215 33.737C94.0163 33.9352 94.2728 34.6349 94.3894 35.253C94.4594 35.6495 94.506 36.0809 94.3078 36.4308C94.0163 36.9439 93.3049 37.0605 92.7218 36.9439C92.1388 36.8273 91.6023 36.5241 91.0193 36.4308C91.0193 36.4308 90.7277 36.629 90.6461 36.769C90.5645 36.9206 90.5178 37.0838 90.4828 37.2588C90.2379 38.4715 90.028 39.7077 90.1913 40.9438" stroke="#204282" stroke-width="0.5" stroke-miterlimit="10"/>
</svg>
