<svg width="233" height="119" viewBox="0 0 233 119" fill="none" xmlns="http://www.w3.org/2000/svg">
<g clip-path="url(#clip0_21_541)">
<path d="M114.34 24.6529C114.501 24.6183 114.651 24.7568 114.628 24.9299C114.421 26.4304 113.924 32.6745 118.922 39.6459C124.624 47.5983 137.851 55.516 152.659 49.1795C152.798 49.1218 152.855 48.9487 152.775 48.8217L152.036 47.6791C151.955 47.5636 152.001 47.4021 152.117 47.3328C153.548 46.5249 161.35 41.7581 164.582 32.4206C168.148 22.1137 162.343 8.03251 152.174 4.3968C142.006 0.761092 129.968 2.58472 122.812 12.0491C115.656 21.5135 117.248 27.6076 118.587 34.856C119.926 42.1043 128.617 47.1135 133.234 48.3947C142.491 50.9685 149.093 48.2215 150.408 47.5983C150.535 47.5406 150.685 47.5983 150.743 47.7252C150.997 48.337 151.851 49.8836 153.94 49.8374C155.995 49.7912 157.241 49.2949 157.68 49.0872C157.784 49.041 157.911 49.0641 157.98 49.1564L166.613 60.0751C166.729 60.2136 166.948 60.1905 167.029 60.0289C167.41 59.221 168.702 57.4666 172.5 57.8475C177.393 58.3438 189.27 72.0903 192.133 73.7869C194.983 75.4836 200.443 79.0039 199.496 76.834C198.55 74.6641 192.571 74.0524 190.309 73.1868C188.035 72.3211 179.887 61.8295 178.305 62.9491C176.712 64.0686 173.215 68.1891 171.115 67.4042C169.014 66.6194 167.387 60.7907 166.74 62.118C166.082 63.4454 166.186 66.1231 168.772 69.2856C171.345 72.4481 174.035 74.5256 172.857 76.6147C171.68 78.7038 165.494 82.4318 163.058 78.7384C160.623 75.045 166.221 66.4693 166.221 66.4693C166.429 66.1231 165.978 68.3161 169.741 72.6558C173.515 76.9956 178.94 79.6041 181.041 83.6784C183.141 87.7411 187.4 92.7042 185.634 96.1898C183.88 99.6755 181.756 98.6598 179.736 96.9285C177.717 95.1857 172.857 90.7536 172.592 87.7642C172.327 84.7633 174.554 79.0731 176.008 79.2809C177.463 79.4886 186.131 95.3934 188.762 99.133C191.382 102.873 193.287 107.432 189.143 108.147C185 108.851 181.502 101.061 182.403 99.8948C183.303 98.7291 187.285 97.1132 189.674 99.6062C192.063 102.099 196.795 106.439 196.888 108.182C196.98 109.925 193.46 111.206 191.809 109.532C190.159 107.859 192.56 102.192 196.011 105.008C199.45 107.813 199.993 113.18 210.023 115.95" stroke="#1D4484" stroke-width="0.5" stroke-linecap="round" stroke-linejoin="round"/>
<path d="M211.027 66.8626C199.762 58.6332 187.342 52.3659 184.896 52.5737C182.299 52.793 175.593 57.5713 174.462 57.3867C173.331 57.202 162.827 45.4292 162.643 44.9098C162.458 44.3904 164.582 42.2436 163.601 39.1042C163.578 39.035 163.589 38.9657 163.624 38.8965C164.466 37.5345 173.711 21.7567 158.684 5.90961C148.966 -4.33963 122.408 -2.10049 116.163 19.3098C112.828 30.7363 120.307 39.866 121.23 40.9394C121.288 41.0086 121.38 41.0317 121.461 41.0202" stroke="#1D4484" stroke-width="0.31" stroke-linecap="round" stroke-linejoin="round"/>
<path d="M162.516 77.5035C158.141 78.2075 152.971 78.0575 148.723 76.811C147.303 76.3954 145.907 75.8761 144.453 75.599C142.433 75.2182 140.401 74.9989 138.324 75.449C138.324 75.449 134.423 76.1877 130.879 79.1424C129.402 80.3774 127.867 81.5316 126.297 82.6512C125.57 83.1706 124.82 83.6784 123.954 83.9092C123.273 84.0824 122.569 84.0824 121.865 84.0708C120.295 84.0477 119.672 84.0362 118.091 84.0247L117.364 83.9669C115.124 84.4633 102.498 84.5671 101.632 83.6899C99.843 81.8663 100.085 78.8539 101.655 76.834L114.986 59.6943C115.159 59.4634 115.032 59.1287 114.744 59.0825L105.452 57.5013C105.302 57.4782 105.152 57.5359 105.071 57.6629L100.709 64.2418C100.709 64.2418 87.3315 64.4149 82.7378 63.9994C81.0412 63.8494 79.7254 62.4643 79.6561 60.7677C79.483 56.6126 79.8523 52.4344 80.7526 48.3716C81.422 45.3592 82.5762 41.2964 80.5564 38.9649C79.61 37.88 76.8745 36.5411 75.4895 36.1372C71.3344 34.9368 63.7744 35.3869 60.231 37.9492C59.8963 38.1916 60.1503 38.711 60.5427 38.6071L64.4554 37.6376C63.659 41.4811 69.43 43.1893 71.7614 42.2775C73.1696 41.7235 73.1003 39.4266 73.712 38.157C74.0814 37.3952 75.2471 37.753 75.1432 38.5956C74.8893 40.6154 74.9009 42.8199 76.1243 43.5125C77.6363 44.3666 80.0716 44.4704 80.5449 42.7969C80.7757 41.9889 80.8219 40.9848 80.6372 40.1653C80.3256 38.7918 79.7831 37.5453 79.483 36.1602C79.0444 34.1981 78.5943 32.2244 77.6825 30.4354C75.2009 25.5878 68.8413 23.1871 63.5782 24.5837C63.3243 24.6529 63.382 25.0338 63.6475 25.0223C65.8289 24.8491 67.9411 24.5491 70.5842 25.0684C71.1613 25.1839 71.5306 24.4567 71.092 24.0643C70.1225 23.1756 68.9798 22.7485 67.4332 22.8755C65.2056 23.0601 63.0011 24.3067 61.0621 25.4262C59.25 26.465 57.5649 27.4115 56.3299 29.1081C55.3026 30.5278 54.0561 33.6441 54.1715 35.7447C54.1946 36.1718 54.7255 36.3449 54.991 36.0102C58.5228 31.6589 65.0556 30.6201 70.0879 30.8163C74.3007 30.9779 78.9059 31.2896 82.0222 34.1289C82.8879 34.9137 83.5919 36.3334 82.7955 37.1875C82.0569 37.9608 80.6834 37.4991 80.0024 36.6681C79.3214 35.8371 79.0213 34.7521 78.3288 33.9211C77.0477 32.363 74.7623 32.0859 72.7771 31.9821C69.9032 31.8205 67.0177 31.8897 64.1438 32.1667C61.5468 32.4207 59.2731 33.3209 57.0916 34.8329C54.8179 36.4026 52.7519 38.9419 53.4328 41.6196C53.6175 42.3467 54.1254 43.374 54.7717 44.078C55.2334 44.5743 56.0759 44.2511 56.0875 43.5702C56.0875 42.566 55.7066 41.4349 55.3834 40.5577C55.0256 39.6228 55.8105 37.7877 56.9531 36.8412C60.8081 33.6095 63.659 32.8131 68.6913 32.5361C70.0763 32.4553 74.5315 32.2937 75.9396 33.2978C78.8136 35.3639 77.5324 40.3269 78.5481 43.524C79.6215 46.9058 76.8284 48.3139 75.2356 51.4764C74.9239 52.0997 74.6585 53.2539 74.0814 53.6463C73.4927 54.0503 71.6691 54.0387 70.9997 53.8194C65.9328 52.1458 62.424 50.5415 61.4199 46.2364C61.3275 45.8324 60.7966 45.7285 60.5773 46.0748C59.6886 47.4598 61.1659 48.5332 61.3852 50.83C61.3852 50.9339 61.5353 50.9455 61.5584 50.8416C62.0547 48.9372 61.6969 46.8135 60.5658 45.1976C59.9771 44.3666 59.1692 43.5817 59.0999 42.566C59.0191 41.5503 59.0653 39.1265 59.7347 39.8998C60.1849 40.4192 60.6235 41.9658 60.485 42.9007C60.4273 43.2701 59.9079 43.2932 59.8271 42.9238C59.7463 42.5199 59.8963 42.139 59.8732 41.7119C59.8502 41.4003 60.2657 41.2733 60.4273 41.5503C60.9813 42.5314 61.2814 43.9511 60.9813 44.8629C60.7043 45.6823 59.6193 45.867 59.0653 45.1976C57.8765 43.7433 56.8608 42.0813 58.165 39.3689C58.569 38.5148 59.7925 38.5494 60.1733 39.4151C60.2426 39.5651 60.3118 39.7036 60.3811 39.8306C60.5196 40.0614 60.8659 39.9229 60.8081 39.6575C60.2426 36.8758 64.1438 35.0753 67.2947 33.6095C67.6871 33.4248 67.5025 32.8477 67.087 32.9054C64.8363 33.2632 63.4282 33.8749 61.4083 34.706C60.3234 35.1446 59.1461 36.0102 58.3728 36.8989C57.5649 37.8223 57.1955 39.0342 56.8377 40.1999C55.9836 43.0277 55.1295 45.867 54.2754 48.6948C53.2482 52.0997 52.2094 55.5507 50.3858 58.6093C48.8507 61.1832 46.7847 63.4569 45.7113 66.2385C44.7533 68.72 45.3189 73.5792 47.1887 75.8183C47.3733 76.0376 47.7196 75.853 47.6503 75.576C46.4384 70.6014 48.8738 63.0183 53.1097 59.7173C54.5178 58.6209 56.63 56.9819 57.6226 55.5045C58.165 54.6966 58.4536 53.7386 59.0076 52.9422C59.8848 51.6842 61.6622 50.9339 63.0242 51.638C64.1207 52.2035 63.7513 53.0461 63.3935 54.3042C63.3127 54.5581 63.6475 54.7428 63.8321 54.5466L64.5246 53.2885C64.767 52.8499 65.298 52.6768 65.7481 52.8961C67.2832 53.6347 68.876 54.7081 70.3995 55.3083C71.1151 55.5853 71.8538 55.8854 72.4309 56.3817C73.966 57.6975 73.3311 59.6943 72.8233 61.7141C72.6617 62.3374 73.1349 62.9491 73.7813 62.9722C75.3741 63.0068 77.3247 63.1453 78.6404 63.1107C79.1483 63.0991 79.6792 63.0876 80.1063 63.353C80.6487 63.6878 80.868 64.3457 81.0527 64.9574C82.4031 69.3433 86.0734 72.3558 86.4082 78.4845C86.4082 78.6577 86.6505 78.7038 86.7313 78.5422C87.9779 75.7491 91.9829 73.0714 94.1528 70.8784C94.5106 70.5206 94.9146 70.1282 95.4224 70.0705C96.0341 69.9897 96.6574 70.4744 96.7267 71.0862C96.7728 71.467 96.5997 71.8595 96.3111 72.1134C96.1611 72.2519 95.9303 72.0557 96.0457 71.8825C98.7349 67.7736 104.264 60.1906 105.21 58.9094C105.291 58.794 105.441 58.7363 105.579 58.7594L113.024 59.8674C113.312 59.9136 113.451 60.2483 113.266 60.4791C111.57 62.6952 104.841 71.4324 100.893 75.8299C99.5083 77.365 98.0309 79.1309 96.5997 80.7814C96.1149 81.3469 96.9344 82.0856 97.4422 81.5547C97.5577 81.4393 97.65 81.3238 97.7423 81.2084C98.3079 80.4351 98.5041 79.4656 98.6657 78.5307C98.8735 77.388 99.3236 75.7491 99.7506 74.1563C100.085 72.8636 98.6426 71.8479 97.5461 72.5981L93.0679 75.6452C92.964 75.7145 92.8486 75.5644 92.9409 75.4836C93.241 75.2297 93.7142 75.1027 94.0835 74.9642C94.6376 74.768 95.03 74.2833 95.0762 73.6946C95.1108 73.2329 94.7184 72.8521 94.2682 72.8982C92.1214 73.106 90.2978 74.9065 88.7858 76.5686C88.0009 77.4458 87.1699 78.3807 86.9737 79.5464C86.5697 81.924 88.8089 83.7938 90.0785 85.8483C90.2401 86.1022 90.3901 86.3908 90.3786 86.6908C90.3786 87.0717 90.1247 87.4065 89.8938 87.7065C87.8047 90.2919 81.8953 95.4281 78.0633 97.8288C77.5093 98.1751 76.8861 97.5056 77.2669 96.9863C78.9059 94.7125 82.38 91.4 83.1533 90.3958C84.2383 88.9877 85.0808 86.8986 83.7651 85.5482C83.5688 85.352 83.3149 85.2019 83.0379 85.1673C82.1607 85.0288 81.6298 85.8598 81.2605 86.5754C79.7485 89.4955 78.2249 92.4272 76.7014 95.3473C75.6511 97.3671 74.5431 99.4678 72.7194 100.83C71.7845 101.534 70.6765 101.961 69.5569 102.307C64.1438 103.946 61.2121 101.949 58.8922 99.4793C58.4882 99.0523 57.7957 99.4909 58.015 100.045C58.7652 101.938 61.039 103.796 62.7934 104.269C65.1017 104.892 67.5717 104.223 69.7878 103.334C74.8662 101.303 79.4022 98.152 83.892 95.0357L93.4026 88.4337C93.8296 88.1336 94.2798 87.822 94.5337 87.3603C94.8569 86.8063 94.8453 86.1368 94.8338 85.4905C94.7991 83.2975 94.7184 80.966 93.4603 79.1655C92.2138 77.365 89.3283 76.5455 87.8163 78.1383C86.6044 79.4079 86.2119 81.9933 84.4691 81.8317C83.8228 81.774 83.3034 81.3008 82.7263 81.0007C80.9257 80.0773 78.3981 81.3008 78.0056 83.286C77.7402 84.6133 78.1557 86.3446 77.013 87.0602C76.9091 86.8871 76.7937 86.7255 76.6783 86.5639C75.9396 85.629 74.5431 85.5597 73.712 86.4138C72.9733 87.1641 71.9692 87.6373 70.9189 87.6719C70.2956 87.695 69.6608 87.5796 69.0606 87.7527C67.9295 88.0874 67.3524 89.3801 67.3063 90.5574C67.2716 91.7347 67.6294 92.8889 67.7333 94.0661C67.8026 94.9895 67.6641 96.0514 66.683 96.4784C66.1174 96.7208 65.4942 96.4438 65.3326 95.8436C65.0787 94.851 66.6253 94.17 66.6599 93.1313C66.6945 92.231 65.6442 91.7462 65.1133 91.0306C64.3169 89.9572 64.9402 88.1451 66.2444 87.7989C66.7984 87.6488 67.3755 87.7412 67.9411 87.6488C69.9378 87.3487 70.9881 85.1211 71.4383 83.1475C72.1885 79.8465 72.2231 76.3954 71.5537 73.0829C71.2998 71.8479 70.7804 70.4975 69.9032 69.678C69.4761 69.2741 68.8182 69.7935 69.0953 70.3128C70.6188 73.1983 71.3344 76.8109 70.2841 81.1161C70.1687 81.5778 70.1456 82.1087 70.1802 82.6512C70.2264 83.3206 71.1497 83.436 71.369 82.8128C72.5117 79.5579 73.5274 76.0146 73.1234 72.7251C72.6386 68.7662 70.1917 64.8189 66.3714 63.6531C61.466 62.1411 56.1567 65.8115 54.1023 70.5091C52.0478 75.2066 52.4633 80.5852 53.1328 85.6752C53.3174 87.0948 53.5136 88.5491 53.1789 89.9341C52.8327 91.3192 51.817 92.6465 50.4089 92.8889C49.3239 93.9507 49.497 95.9013 50.5704 96.9747C51.7708 98.1751 53.7676 98.3597 55.3257 97.7365C55.5912 97.6326 55.8451 97.471 56.0413 97.2633C56.8146 96.4553 56.376 95.4973 55.9721 94.6663C53.3867 89.3109 51.8631 83.4591 51.4823 77.5381C51.3207 74.8604 51.3207 71.9633 49.5201 69.8858C49.3239 69.6665 49.1739 69.4126 49.07 69.124C48.3082 67.1157 50.8359 66.2154 52.5787 65.4537C55.1064 64.3457 56.8723 62.0488 59.0076 60.306C61.1544 58.5747 64.2938 57.3974 66.6022 58.9094C67.6756 59.6135 68.345 60.7561 68.9914 61.8641C69.9147 63.4685 70.8381 65.0843 71.7614 66.6887C72.4193 67.8429 73.0888 69.0086 73.3889 70.3013C73.7236 71.744 73.562 73.256 73.4004 74.7334C73.0888 77.6304 72.7771 80.5275 72.4655 83.4245C72.3385 84.6364 72.6963 86.3908 73.9082 86.2523C74.5315 80.1812 75.1663 74.1101 75.2933 68.016C75.3164 67.0811 75.3279 66.1116 75.7088 65.269C76.1012 64.4149 76.9669 63.7109 77.9018 63.8378C78.2365 63.884 78.5481 64.0802 78.7674 64.3341C79.2868 64.9574 78.4211 65.7653 77.844 65.1882C77.844 65.1882 77.8325 65.1767 77.821 65.1651C77.2439 64.588 78.0864 63.6993 78.6981 64.2533C79.0906 64.6111 79.4253 65.0843 79.6908 65.5345C82.0684 69.5857 86.2927 74.1101 85.5194 78.75C85.4733 79.0155 85.0924 78.9693 85.1039 78.7038C85.1732 76.7763 84.6884 74.8027 83.6612 73.2099C79.5292 66.8387 73.989 64.5534 66.5214 57.7898C65.1248 56.5202 64.3054 55.3776 62.4356 55.1467C60.9236 54.9621 60.0348 55.4122 58.5806 55.8508C55.9144 56.6587 52.6018 60.4329 50.9744 62.6952C47.962 66.8849 49.1739 70.0358 48.7353 75.172C48.2159 81.1738 45.4574 87.5796 48.239 92.9235C48.7699 93.9392 49.497 94.8741 49.8318 95.9706C50.178 97.067 50.0164 98.4405 49.07 99.0984C48.4121 99.5601 47.5465 99.5601 46.7385 99.5255C44.2916 99.4447 31.7455 99.6525 21 99.7332" stroke="#1D4484" stroke-width="0.5" stroke-linecap="round" stroke-linejoin="round"/>
</g>
<defs>
<clipPath id="clip0_21_541">
<rect width="232.83" height="118.52" fill="white"/>
</clipPath>
</defs>
</svg>
