<svg width="233" height="119" viewBox="0 0 233 119" fill="none" xmlns="http://www.w3.org/2000/svg">
<g clip-path="url(#clip0_21_371)">
<path d="M149.398 85.848C149.132 86.0925 147.952 87.2194 146.442 88.6226C145.496 89.505 144.401 90.5043 143.338 91.4717C141.839 92.8324 140.351 94.1188 139.309 94.948C136.152 97.4249 132.069 99.4661 132.069 99.4661C132.069 99.4661 134.546 99.4023 135.035 99.5299C135.524 99.6574 134.908 102.379 132.378 103.123C129.837 103.867 133.302 106.217 133.866 109.119C134.419 112.032 129.167 103.123 129.167 103.123C129.167 103.123 129.295 108.874 129.348 113.329C129.412 117.783 129.412 118.091 129.167 118.527C128.923 118.963 126.446 116.731 125.638 115.062C124.83 113.392 124.394 116.667 123.033 117.411C121.672 118.155 122.342 104.154 121.609 102.198C121.46 101.794 120.407 101.305 120.407 101.103C120.407 100.837 120.056 100.38 120.301 99.3491C120.503 98.488 119.578 97.1167 119.897 95.9898C120.12 95.1925 120.056 92.2477 120.312 91.4185C121.353 88.1761 123.171 84.4979 124.256 84.1045C125.308 83.7218 128.008 85.2101 127.987 83.8706C127.976 82.3717 127.615 80.9046 127.615 80.9046C127.615 80.9046 122.608 68.2114 121.417 66.9463C119.1 64.5013 115.985 61.4183 115.857 60.2383C115.793 59.6855 116.07 58.8988 116.484 58.059C116.623 57.7826 116.782 57.4849 116.952 57.1979C117.909 55.5501 119.217 53.9129 119.727 53.4558C120.599 52.6798 121.279 51.8187 121.555 50.83C121.832 49.8413 118.961 52.2545 117.941 51.5423C116.92 50.83 118.685 49.1929 118.717 48.5444C118.749 47.8959 117.728 49.1291 117.016 48.64C116.304 48.1404 118.377 43.8137 118.94 42.8569C119.493 41.9001 121.226 42.1127 123.182 42.1127C125.138 42.1127 129.401 43.0376 129.922 43.3246C130.453 43.601 129.794 45.0256 129.082 46.2269C128.37 47.4388 127.817 46.8115 126.828 47.6195C125.84 48.4274 126.403 48.959 125.595 49.533C124.787 50.1071 125.319 47.1517 125.255 46.4395C125.191 45.7272 124.915 45.0149 122.874 44.8342C120.832 44.6535 121.173 47.46 121.268 48.3849C121.364 49.3204 123.809 52.2545 123.809 52.2545C123.809 52.2545 123.565 56.3687 123.873 57.7613C124.181 59.1539 128.912 61.3545 130.953 62.2156C132.994 63.0767 134.27 62.3432 134.599 62.1199C134.94 61.9073 135.439 59.8662 135.748 59.2709C136.056 58.6862 136.832 58.7393 137.045 58.4311C137.257 58.1228 136.396 57.6231 136.364 57.3467C136.332 57.0703 137.629 57.1979 137.629 56.8577C137.629 56.5175 137.597 55.6458 137.597 55.6458C137.597 55.6458 139.638 55.9009 139.83 55.0292C140.01 54.1681 138.777 51.1915 138.777 50.7662C138.777 50.341 139.585 49.3417 139.713 49.0334C139.745 48.9483 139.851 48.5869 139.968 48.1085C139.968 48.1085 139.968 48.0979 139.968 48.0873C140.042 47.8108 140.117 47.5026 140.191 47.1943C140.212 47.1305 140.223 47.0561 140.244 46.9923C140.266 46.9179 140.276 46.8541 140.298 46.7797C140.361 46.5245 140.414 46.2587 140.478 46.0249C140.606 45.4614 140.702 45.0043 140.702 44.9086C140.702 44.6641 140.702 44.0263 140.446 43.3672C140.383 43.1971 140.308 43.027 140.202 42.8569C139.713 42.0489 131.782 39.5826 125.786 38.4663C119.791 37.3501 117.367 38.0305 116.686 37.5946C116.006 37.1587 117.548 34.6286 118.419 33.5762C119.291 32.5237 123.065 30.0467 124.915 29.4939C126.775 28.9305 131.229 28.9517 132.718 29.5683C134.206 30.1849 136.364 32.7682 137.236 33.9482C138.097 35.1283 138.841 38.5939 139.277 39.3274C139.713 40.0716 139.096 35.9256 138.352 34.3097C137.608 32.7044 134.706 30.2274 134.397 29.7916C134.089 29.3557 137.991 31.0885 139.532 33.5655C141.084 36.0425 141.393 41.1772 141.509 41.9851C141.584 42.4529 141.488 43.1971 141.393 43.8668C141.329 44.3558 141.254 44.8023 141.254 45.0787C141.254 45.4083 140.957 45.9079 140.67 46.3438C140.563 46.5139 140.446 46.6733 140.361 46.8009C140.319 46.8753 140.276 46.9285 140.244 46.9816C140.181 47.0986 140.149 47.1836 140.191 47.1836C140.414 47.1836 140.042 47.9172 139.957 48.0766C139.957 48.0872 139.947 48.0979 139.947 48.0979C140.191 48.1191 144.975 48.5231 145.996 48.1617C146.846 47.864 145.294 46.0461 141.361 43.8455C141.063 43.6861 140.755 43.516 140.425 43.3353C139.766 42.9844 139.043 42.6336 138.256 42.2722C132.069 39.4231 117.463 38.562 115.549 38.6258C113.635 38.6896 112.764 40.1141 112.764 41.2197C112.764 42.3253 115.028 43.5479 115.166 43.6329" stroke="#1D4484" stroke-width="0.5" stroke-linecap="round" stroke-linejoin="round"/>
<path d="M149.462 85.7852L149.441 85.8064H149.43L149.409 85.8383C149.09 86.1572 147.485 87.7944 147.166 88.5811C147.793 88.5811 148.431 88.6023 148.728 88.4429C149.281 88.1346 149.345 87.7625 149.653 87.5074C149.962 87.2628 149.898 88.7512 149.866 89.3996C149.834 90.0588 148.165 89.1764 147.272 88.9957C147.091 88.9638 147.07 88.8043 147.166 88.5704C146.921 88.5704 146.677 88.5704 146.453 88.6023C146.166 88.6342 145.922 88.6874 145.752 88.8043C145.422 89.0276 144.317 90.2501 143.349 91.4514C142.488 92.5251 141.733 93.5882 141.733 93.939C141.733 94.6832 138.459 96.4691 138.268 97.4047C138.087 98.3295 141.542 112.564 141.542 110.151C141.542 107.738 142.531 93.6307 142.531 94.4387C142.531 95.2466 142.467 96.9688 142.531 100.073C142.594 103.167 142.711 105.761 142.711 107.685C142.711 109.609 143.083 106.537 143.147 107.77C143.211 109.014 143.636 112.777 143.636 112.777H187.924L213.917 113.011" stroke="#1D4484" stroke-width="0.5" stroke-linecap="round" stroke-linejoin="round"/>
<path d="M130.635 64.5544C131.06 64.8945 134.441 67.5948 134.728 68.6472C135.036 69.7635 136.088 70.6246 135.217 70.6246C134.345 70.6246 133.484 70.9329 133.484 70.9329C133.484 70.9329 134.356 75.1427 134.781 76.8755C135.153 78.3532 135.748 81.5531 135.801 82.0314C135.801 82.1059 135.801 82.1059 135.77 82.0208C135.589 81.3404 133.229 73.2929 132.495 70.5076C131.751 67.7223 130.146 64.2567 130.146 64.565C130.146 64.8733 131.507 68.2752 131.507 70.6883C131.507 73.1015 130.454 75.7061 128.232 74.3454C126 72.9846 123.47 68.6472 122.598 67.5416C121.726 66.4254 118.016 62.0348 117.527 59.7492C117.219 58.3141 117.006 57.7081 116.942 57.2085C116.91 56.9108 116.942 56.6556 117.027 56.2942C117.272 55.3055 117.336 54.8059 117.336 54.8059C117.336 54.8059 115.847 49.5436 115.73 47.8108C115.603 46.078 116.102 43.2927 116.655 42.793C117.208 42.304 120.302 41.124 123.023 41.6236C125.745 42.1127 132.984 42.9206 135.95 44.3451C138.151 45.3976 139.565 46.4182 140.256 46.769C140.277 46.7796 140.298 46.7902 140.32 46.8009C140.532 46.8965 140.66 46.9284 140.723 46.8753C140.787 46.8115 140.766 46.6201 140.628 46.3437C140.575 46.2481 140.521 46.1311 140.436 46.0142C139.926 45.2488 138.767 44.1538 136.758 43.4096C133.601 42.2402 124.384 39.8164 121.662 39.8164C118.941 39.8164 113.37 40.0078 113.434 41.0496C113.487 42.0595 115.039 43.5372 115.156 43.6435" stroke="#1D4484" stroke-width="0.5" stroke-miterlimit="10"/>
<path d="M130.592 64.5225C130.592 64.5225 130.613 64.5331 130.634 64.5544C130.836 64.7032 131.74 65.3304 133.366 65.9258C135.227 66.6061 134.238 66.1703 135.163 66.8506C136.088 67.531 136.152 72.9102 137.512 75.3234C138.873 77.7366 135.588 67.8393 135.726 66.9782C135.865 66.1277 137.512 67.8925 139.554 69.317C141.595 70.7415 145.177 73.58 147.537 73.9627C148.175 74.069 148.643 74.1221 149.015 74.2178C150.025 74.441 150.355 74.8344 151.439 76.5034C152.13 77.5559 152.768 78.9379 153.289 80.1073C153.639 80.894 153.926 81.5956 154.128 82.0315C154.267 82.3504 154.373 82.5311 154.415 82.5205C154.596 82.4567 156.637 80.1073 158.317 79.2993C159.986 78.4914 161.846 79.0548 165.365 79.0548C166.333 79.0548 167.651 79.1718 169.086 79.3312C172.903 79.7671 177.516 80.5644 178.239 80.4794C179.228 80.3518 175.209 80.0435 173.041 79.5439C172.031 79.31 171.148 79.0974 170.319 78.906C169.373 78.6934 168.491 78.5233 167.534 78.4276C165.737 78.2363 162.399 78.9166 159.678 78.7359C156.956 78.5446 155.968 81.7657 155.84 80.4049C155.766 79.5226 153.99 77.6728 153.235 76.3652C153.182 76.2908 153.14 76.2058 153.108 76.1314C152.8 75.5254 152.778 75.0789 153.374 74.9513C155.234 74.5793 157.211 77.928 158.689 77.8642C160.177 77.8004 156.956 72.9102 157.084 71.1242C157.211 69.3276 160.114 69.2638 161.049 68.222C161.974 67.1696 160.549 66.1171 159.625 66.925C158.7 67.733 154.182 71.2624 153.002 72.1235C151.822 72.9846 150.216 73.7926 149.047 74.2284C147.878 74.6643 148.25 75.2809 148.377 75.6423C148.505 76.0144 152.087 78.7359 153.023 80.288C153.448 80.9896 153.448 80.777 153.321 80.1073C153.182 79.31 152.863 77.8748 152.895 76.5672C152.906 76.0569 153.002 75.9506 153.129 76.1314C153.172 76.1845 153.214 76.2695 153.257 76.3652C153.682 77.3433 154.33 80.3731 154.16 82.0208C154.128 82.2866 154.086 82.5099 154.012 82.6906C153.703 83.4347 153.14 83.8919 152.598 84.1576C151.843 84.5297 151.109 84.5403 151.109 84.5403L149.993 86.0924C149.993 86.0924 150.482 89.0053 150.982 89.4305C151.481 89.8664 152.778 90.0471 154.139 90.2385C155.5 90.4192 157.36 89.186 157.977 88.2611C158.593 87.3362 156.053 89.8026 154.575 89.6857C153.087 89.5581 153.523 88.0804 153.087 87.028C152.651 85.9755 154.203 88.3887 154.692 88.8246C155.181 89.2604 154.256 86.4114 154.32 84.8593C154.384 83.3178 155.255 83.3178 155.255 83.3178L155.319 86.4114C155.319 86.4114 156.127 87.0917 158.349 87.7721C160.581 88.4525 174.433 88.8246 176.049 88.8246C176.634 88.8246 177.229 88.7608 177.846 88.6864M177.846 88.6864C178.93 88.5588 180.078 88.3993 181.311 88.5163C183.225 88.7076 187.998 88.8884 189.54 88.208C191.092 87.5276 188.424 86.9642 186.265 86.2838C184.107 85.6034 188.742 85.1676 189.487 84.2427C190.231 83.3178 188.934 83.5623 187.69 83.254C186.446 82.9457 190.911 80.0329 191.336 78.0555C191.772 76.0782 191.517 72.6763 191.517 71.0073C191.517 69.3383 191.762 68.9024 192.134 68.7217C192.506 68.5409 192.506 69.9548 192.506 71.5707C192.506 73.1866 192.134 74.356 192.134 77.9386C192.134 81.5212 191.209 84.062 191.645 85.1782C192.081 86.2944 194.866 86.911 196.407 86.911C197.949 86.911 199.193 87.9635 198.321 89.1967C197.46 90.4298 190.709 90.4298 188.424 90.2491C186.138 90.0684 184.033 89.4412 181.864 89.1329C179.696 88.8246 179.143 89.6219 178.462 89.7495C177.973 89.8345 177.899 89.473 177.846 88.6864ZM177.846 88.6864C177.825 88.3887 177.814 88.0166 177.782 87.5914C177.654 86.0499 178.771 81.1597 178.898 80.6601C179.026 80.1711 180.259 80.7877 181.439 81.096C182.608 81.4042 184.405 81.468 185.649 81.468C186.893 81.468 187.318 80.7877 187.998 78.991C188.679 77.1944 189.795 70.2631 190.231 69.2745C190.667 68.2858 191.708 68.0944 191.708 68.0944L207.208 68.509V18.002L187.807 25.1884C187.562 24.0722 187.998 59.0689 187.998 59.0689L185.702 59.8024L192.421 59.8662L192.357 61.2269L185.489 61.1738M185.489 61.1738H184.83C184.83 61.1738 184.65 58.8775 184.586 58.4416C184.522 58.0058 180.195 57.5805 180.248 56.9002C180.312 56.2198 184.947 57.6443 185.139 58.0164C185.266 58.2822 185.426 59.9512 185.489 61.1738ZM185.489 61.1738C185.521 61.6947 185.532 62.1412 185.511 62.3432C185.447 63.0235 182.109 62.9598 180.993 63.268C179.876 63.5763 180.812 64.6288 180.737 65.1284C180.674 65.6175 176.219 65.256 174.242 65.256" stroke="#1D4484" stroke-width="0.5" stroke-linecap="round" stroke-linejoin="round"/>
<path d="M18.915 105.951H31.1724C31.7146 105.994 32.1504 106.419 32.193 106.961C32.3312 108.609 33.3198 109.332 35.3822 109.661C36.9768 109.917 41.1441 108.705 41.8989 107.514C42.2816 106.897 42.1221 105.866 42.1221 105.026C42.1221 104.505 42.1859 104.059 42.473 103.836C42.473 103.836 42.4942 103.825 42.4942 103.814" stroke="#1D4484" stroke-width="0.3" stroke-miterlimit="10"/>
<path d="M173.743 65.2464H179.037C180.961 65.2464 179.717 57.7623 179.473 56.5823C179.228 55.4023 174.901 55.8382 173.286 55.9657C172.818 55.9976 172.616 56.5717 172.541 57.4009M172.541 57.4009C172.488 58.1557 172.541 59.1231 172.616 60.1118M172.541 57.4009C172.595 58.1025 172.616 59.0912 172.616 60.1118M172.541 57.4009C172.499 56.8694 172.446 56.4973 172.361 56.4016C171.872 55.8382 157.701 56.6461 157.074 57.454C156.457 58.262 156.457 63.3329 157.01 64.885C157.573 66.4265 160.784 65.9375 160.784 65.9375C160.784 65.9375 162.697 65.0126 164.186 64.7574C165.663 64.5129 169.512 64.7574 171.861 65.0126C174.21 65.2571 174.891 66.554 175.763 68.2869C176.624 70.0197 175.763 69.8921 174.827 70.328C173.902 70.7639 172.414 68.5952 171.181 68.4782C169.947 68.3506 172.478 69.5307 172.478 69.5307C172.478 69.5307 173.402 70.8914 173.339 71.6994C173.275 72.5073 171.478 71.5718 170.681 71.5718C169.884 71.5718 172.286 72.316 172.786 73.0495C173.286 73.7936 172.913 73.7936 172.605 74.9737C172.297 76.1431 170.32 74.6654 169.575 74.7929C168.831 74.9205 172.297 76.0261 172.733 76.462C173.169 76.8978 172.244 77.7058 170.755 78.6945C170.638 78.7795 170.49 78.8539 170.33 78.9283C169.99 79.0878 169.565 79.226 169.097 79.3429C167.088 79.8745 164.281 80.119 163.771 80.119C163.091 80.119 161.23 79.8745 159.689 79.8107C158.147 79.7469 156.531 81.3522 155.734 82.1601C155.404 82.4897 155.171 82.8086 154.947 83.1381C154.628 83.6272 154.331 84.1587 153.81 84.8178C152.949 85.9341 152.332 84.9454 151.705 84.9454C151.301 84.9454 152.013 84.5308 152.566 84.1906C152.864 84.0099 153.119 83.8398 153.119 83.776C153.119 83.5846 152.566 82.107 151.939 80.4911C151.322 78.8858 148.973 76.345 148.229 76.1537C147.485 75.973 143.338 79.3748 140.372 81.1077C137.406 82.8405 132.58 84.1374 130.656 84.6371C130.209 84.754 129.742 84.956 129.274 85.243C129.157 85.4769 129.029 85.8065 128.923 86.253C128.423 88.2941 127.934 95.2254 128.487 97.7024C129.04 100.179 129.412 100.732 129.784 100.796C130.156 100.86 131.145 100.179 131.145 100.179C131.145 100.179 130.954 101.976 129.54 102.284C128.115 102.593 127.307 102.04 126.319 102.22C125.33 102.401 125.574 103.773 123.661 102.965C122.821 102.614 122.141 102.433 121.62 102.231C120.939 101.987 120.535 101.742 120.418 101.136C120.195 100.062 120.323 95.9696 120.631 96.0333C120.78 96.0652 121.28 97.83 121.747 99.2439C122.247 100.775 122.704 101.912 122.608 100.052C122.545 98.8505 122.513 97.4472 122.534 96.2034C122.555 93.7158 122.736 91.8023 123.108 93.1205C123.161 93.3012 123.214 93.5138 123.267 93.7583C123.863 96.246 124.841 101.625 124.958 98.0745C125.085 94.1729 124.277 92.7484 125.33 90.0269C126.138 87.9327 127.711 86.1679 129.263 85.243C129.678 84.3926 130.061 84.6158 129.72 84.0843C129.38 83.5527 128.647 83.6272 127.998 83.9036C127.817 83.978 127.658 84.063 127.499 84.1481C126.754 84.5839 126.637 84.2756 125.702 83.9036C124.766 83.5315 123.905 84.2756 123.044 85.3281C122.183 86.3805 121.003 88.3047 120.323 91.4621C119.642 94.6194 119.993 98.2658 119.993 98.2658C119.993 98.2658 112.105 94.258 110.436 92.2381C108.767 90.2076 106.503 88.9001 105.312 86.3912C104.121 83.8823 103.526 80.7887 103.526 77.8121C103.526 74.8355 104.366 80.9163 105.195 83.776C106.035 86.6357 114.635 81.905 119.143 83.4145C123.65 84.9241 124.628 83.8929 124.628 83.8929C124.628 83.8929 123.012 82.7023 121.29 81.3947C119.568 80.0765 118.909 78.535 117.835 75.7922C116.761 73.0495 116.049 70.2536 113.785 68.4676C113.53 68.2656 113.274 68.1168 113.03 67.9892M172.616 60.1118C172.743 61.7914 172.956 63.5136 172.786 64.3216C172.563 65.374 172.626 62.6525 172.616 60.1118ZM113.03 67.9892C111.35 67.1919 109.83 68.0849 109.012 68.3081M113.03 67.9892C112.488 68.3081 110.011 68.2869 109.012 68.3081M113.03 67.9892C113.136 67.9254 113.168 67.8404 113.072 67.7447C112.36 67.0324 111.287 67.0324 107.374 67.2982C107.14 67.3088 106.917 67.3301 106.726 67.3407C104.089 67.5002 105.259 67.245 106.726 66.0438C106.928 65.8737 107.14 65.6929 107.342 65.4803C109.128 63.6943 111.988 63.5774 113.54 62.8545C115.092 62.1422 114.848 62.4931 114.848 64.5236C114.848 66.554 115.922 68.9353 116.751 70.7213C117.591 72.5073 119.09 66.8623 120.195 66.8092C121.29 66.756 125.34 81.0332 125.829 82.883C126.308 84.7328 123.438 70.7213 122.247 68.34C122.002 67.8616 121.737 67.4151 121.439 66.9899C120.27 65.3102 118.792 64.0026 117.814 62.3868C116.985 61.0154 116.857 58.953 116.506 58.0919C116.347 57.6986 116.134 57.5604 115.794 57.8686C114.699 58.8573 114.497 60.5795 113.912 61.4193C113.317 62.2592 111.287 62.3761 109.139 63.4179C108.48 63.7369 107.619 64.2046 106.737 64.7574C104.738 66.0225 102.569 67.7553 101.995 69.4137C101.846 69.839 101.761 70.5619 101.719 71.4655C101.676 72.4116 101.687 73.5704 101.719 74.7823C101.729 75.2394 101.751 75.7178 101.772 76.1856C101.921 79.9383 102.24 83.8079 102.091 84.1693C102.016 84.3607 102.07 85.4876 102.197 87.0609C102.325 88.6343 102.505 90.6648 102.707 92.6527C102.963 95.2998 103.218 97.8937 103.313 99.2757C103.547 102.731 103.547 103.688 103.547 109.173C103.547 114.659 102.707 118.475 102.707 118.475C102.548 118.932 101.814 119.357 101.347 119.24C100.677 119.07 100.209 118.422 100.039 117.752C99.869 117.082 99.9434 116.37 100.018 115.679C100.337 112.724 100.656 109.768 100.975 106.813C101.06 106.016 101.421 105.367 101.496 104.57C101.729 102.199 102.474 94.3537 102.474 93.3225C102.474 93.1311 102.559 92.9079 102.697 92.6634C103.409 91.3558 105.482 89.3572 102.994 87.4862C102.718 87.2735 102.442 87.146 102.187 87.0716C102.027 87.0184 101.868 87.0078 101.719 87.0184C100.677 87.0503 99.9115 88.1984 99.5394 89.5911C99.2205 90.8136 99.2099 92.2275 99.6032 93.2374C99.7733 93.6733 99.5075 93.5776 98.9547 93.2587M109.012 68.3081C108.873 68.34 108.746 68.3613 108.65 68.3507C108.491 68.3294 108.65 68.3188 109.012 68.3081ZM98.9547 93.2587C97.9236 92.674 95.8824 91.3133 93.6819 91.1432C92.353 91.0368 91.747 90.314 91.5876 89.4635C91.4919 88.9851 91.545 88.4642 91.6939 87.9964C91.9597 87.1779 92.5018 86.5294 93.0759 86.5294C93.6925 86.5294 95.2233 86.3912 96.7116 86.3168C98.8165 86.1998 100.826 86.2317 100.039 86.9652C99.0504 87.9008 98.6677 88.6449 98.5933 89.5698C98.5189 90.4947 98.7315 91.6003 98.9547 93.2587ZM98.9547 93.2587C98.9973 93.5883 99.0398 93.9497 99.0823 94.3218C99.2205 95.5869 98.9547 98.9356 98.8272 100.318C98.7953 100.679 98.5189 100.966 98.1574 101.009L83.9227 102.826C83.9227 102.826 71.7717 104.623 65.5527 105.197C65.4676 107.387 65.3719 109.226 65.3294 110.183C65.3082 110.587 64.9786 110.895 64.5746 110.895H63.2458C62.9162 110.895 62.6186 110.672 62.5229 110.353L61.2047 105.761C59.408 104.985 52.9339 102.943 50.6163 101.891C49.6702 101.487 50.2655 94.056 50.9672 94.3005C51.5944 94.5238 61.2897 96.5649 61.598 97.3941C61.9063 98.2233 61.9913 104.4 61.9913 105.229C61.9913 105.442 63.4265 105.388 65.5633 105.186C65.744 100.36 65.8928 93.8647 65.4782 91.5578C65.2656 90.3671 64.6171 89.5379 63.7879 89.0383C63.1288 88.6343 62.3528 88.4429 61.6086 88.4748C60.9814 88.4961 60.3754 88.6662 59.8758 88.9745C59.323 89.3147 58.8871 89.8249 58.6851 90.5053C58.1536 92.3232 58.4087 94.2793 59.2698 95.4486M59.2698 95.4486C61.2684 95.9802 62.5122 96.4161 61.5661 96.5117C60.5987 96.618 59.812 96.1822 59.2698 95.4486ZM59.2698 95.4486C55.9424 94.5663 50.5419 93.4501 49.7234 93.2906C48.7028 93.0886 47.6184 90.5266 48.841 88.8044C49.1812 88.326 49.6915 87.9114 50.425 87.635C50.7758 87.4968 51.1691 87.4011 51.5837 87.3373C51.6582 87.3267 51.7219 87.3161 51.7857 87.3054M51.7857 87.3054C53.2953 87.1034 55.0919 87.3054 56.5909 87.5925C58.632 87.9858 60.1309 88.5386 59.6419 88.5067C58.4619 88.4217 57.452 88.3791 56.5909 88.3473C53.3591 88.2303 52.2322 88.326 51.7857 87.3054ZM51.7857 87.3054C51.6901 87.1034 51.6263 86.8589 51.5837 86.5719C51.5306 86.2742 51.4987 85.9234 51.4668 85.5088C51.3818 84.265 51.3818 83.3826 51.5837 82.7448C52.0196 81.3309 53.3804 81.1608 56.6015 81.1289C57.2287 81.1289 57.9197 81.1289 58.6958 81.1183C59.7376 81.1183 60.705 81.097 61.6193 81.0758C63.5541 81.0332 65.2125 80.9695 66.6264 80.9057C68.8589 80.81 70.4854 80.7143 71.6441 80.6931C71.9843 80.6931 72.282 80.6931 72.5371 80.6931C74.5357 80.7781 73.8234 85.0092 74.8015 88.411C74.8865 88.6874 74.961 88.9426 75.0354 89.1871C76.1197 92.4826 76.917 92.3338 71.4421 92.589C64.9148 92.8972 65.2444 92.8441 66.7858 94.2899C68.136 95.555 81.4989 93.8859 83.2424 94.2899C83.9759 94.4706 84.1779 97.3197 83.4656 97.511C81.8923 97.9469 66.3606 98.2871 66.2649 99.1269C66.1586 100.137 97.9554 96.9476 98.0405 96.3416C98.1255 95.7357 98.4764 93.3012 97.9554 93.163C97.4345 93.0354 85.7194 94.1198 84.4118 94.0773C83.1042 94.0347 79.7555 92.7165 78.8412 92.5996C75.535 92.1637 93.0759 91.6428 92.2042 91.1219C90.7371 90.2395 77.8419 92.1743 77.1403 91.9086C76.8426 91.8023 76.3855 90.6967 75.9071 89.219C74.8759 86.0297 73.7703 81.1395 74.1424 80.9376C74.7271 80.6293 75.6094 80.7568 76.6513 80.9694C78.097 81.2565 79.883 81.7136 81.669 81.3628C81.8285 81.3309 81.9879 81.299 82.1474 81.2459C83.742 80.7887 85.326 80.4698 86.6761 80.3316C87.9199 80.204 88.9618 80.2466 89.6421 80.5017M89.6421 80.5017C89.7165 80.523 89.7803 80.5548 89.8548 80.5867C90.4288 80.8738 91.1304 81.9156 91.6939 83.0212C92.4061 84.4138 92.8845 85.9022 92.5975 86.0723C92.3636 86.2105 92.066 85.6789 91.6939 84.871C91.1411 83.6165 90.4394 81.6924 89.6421 80.5017ZM89.6421 80.5017C89.185 79.8213 88.6854 79.3748 88.1644 79.4386C87.7605 79.4811 87.2502 79.5768 86.6761 79.6831C85.2091 79.9595 83.3274 80.3635 81.6584 80.5442C80.7335 80.6505 79.8724 80.6824 79.192 80.5974C78.4585 80.5017 77.5549 80.3529 76.6513 80.204C74.5889 79.8638 72.5265 79.5662 72.5903 80.0552C72.6009 80.1509 72.2607 80.2147 71.6335 80.2466C70.5917 80.3103 68.7844 80.2997 66.6157 80.2891C65.0743 80.2784 63.3521 80.2572 61.6086 80.2466C59.9183 80.2466 58.2068 80.2466 56.5909 80.2891C54.7092 80.3316 52.9764 80.4167 51.5731 80.5761C49.7446 80.7781 48.4902 81.097 48.2882 81.5967C47.342 83.9142 48.1606 87.2416 48.1606 87.2416C48.437 88.124 48.2776 88.4004 48.0649 88.7937C47.9055 89.0808 47.7141 89.4422 47.661 90.1864C47.5121 92.1956 48.2031 93.4394 49.1918 93.8965C49.4363 94.0029 49.5639 94.2686 49.5107 94.5344C49.3087 95.4593 48.9579 97.6067 49.2131 100.275C49.3619 101.891 49.8509 102.582 50.8608 102.901C51.0203 102.943 51.1373 103.092 51.1479 103.262L51.1691 103.645M51.1691 103.645H53.189C53.3272 103.645 53.4441 103.773 53.4123 103.911L53.0933 105.909C53.0721 106.079 52.8913 106.175 52.7425 106.122L51.5625 105.707C51.403 105.654 51.2967 105.516 51.2861 105.346L51.1691 103.645ZM51.1691 103.645H43.5575C43.3449 103.645 43.1429 103.592 42.9621 103.486C42.8133 103.39 42.6964 103.262 42.6007 103.124C42.0373 102.22 42.2392 99.7967 42.0266 100.775C41.9735 100.987 41.8034 101.179 41.527 101.327C40.5489 101.902 38.4015 102.114 37.0195 101.785C36.8388 101.742 36.6687 101.625 36.5092 101.455C36.3817 101.317 36.2647 101.126 36.1584 100.913C36.0308 100.679 35.9245 100.403 35.8182 100.094C35.4674 99.9136 35.1166 99.584 34.8827 99.0844C34.5213 98.3296 33.7984 96.2353 32.7884 94.3962C32.2675 93.4607 30.641 89.623 32.9373 92.5571C34.5213 94.5875 35.0847 98.0319 35.8289 100.094C36.0627 100.222 36.3072 100.286 36.5199 100.286C36.9876 100.286 37.3278 100.02 37.1896 99.5628C37.1683 99.4884 37.1364 99.3608 37.1152 99.1907C36.977 98.4678 36.775 96.9582 36.5199 95.3317C36.0415 92.1956 35.4355 88.5918 34.9678 89.1871C34.5638 89.6974 34.8189 92.3976 35.2442 94.8852C35.5737 96.8094 35.9777 98.606 36.5199 99.1163C36.6262 99.212 36.7218 99.2545 36.8281 99.2651C36.9238 99.2651 37.0195 99.2439 37.1046 99.1907C37.3916 99.0419 37.6574 98.6592 37.8806 98.0957M37.8806 98.0957C38.4759 96.618 38.8161 93.9072 38.4866 90.888C38.4121 90.1864 38.2633 89.3997 38.0613 88.6237C37.6361 86.9227 36.9982 85.2749 36.5092 84.6477C36.3604 84.4564 36.2222 84.3607 36.1053 84.3926C35.7119 84.4989 36.084 86.0297 36.5092 87.4862C36.6155 87.8795 36.7325 88.2622 36.8388 88.613C36.977 89.0808 37.0939 89.4848 37.1577 89.7612C37.3916 90.7605 37.5617 95.5124 37.8806 98.0957ZM37.8806 98.0957C38.0188 99.2439 38.1995 99.9774 38.4228 99.7541C39.1669 99.0419 39.6134 91.5684 39.3795 89.2828C39.3583 89.102 39.3264 88.8894 39.2945 88.6449C38.8693 85.849 37.3597 79.6831 37.9338 79.7256C38.6885 79.7788 39.8473 85.3281 40.2088 88.6555C40.2619 89.1658 40.3044 89.6229 40.3151 90.0057C40.3682 91.3133 40.4533 93.3863 40.4639 95.2786M40.4639 95.2786C40.4852 97.5004 40.4001 99.4884 40.0493 99.7329C39.8048 99.903 39.2307 98.0851 40.4639 95.2786ZM40.4639 95.2786C40.7297 94.6832 41.0699 94.0454 41.5163 93.365C41.7396 93.0248 41.9841 92.674 42.2605 92.3232C45.5029 88.1453 42.3881 93.9922 41.5163 96.4905C41.4632 96.6287 41.4207 96.7669 41.3888 96.8838C40.7722 99.0419 40.9635 98.9249 41.5163 99.1907C41.5163 99.1907 41.527 99.1907 41.5376 99.2013C41.8459 99.3502 42.016 99.8392 41.5163 100.286C41.0911 100.668 40.2088 101.019 38.5397 101.147C37.6999 101.211 37.0301 101.147 36.4986 100.998C36.371 100.966 36.2541 100.924 36.1478 100.892C34.6914 100.36 34.4468 99.2757 34.0641 99.4565C33.5326 99.701 33.9472 102.348 32.6396 102.986C31.5234 103.528 30.7579 104.708 33.3838 105.431C33.8303 105.559 34.3512 105.665 34.9996 105.75C36.86 106.016 38.5822 105.633 39.9111 105.144C40.5277 104.921 41.0699 104.655 41.4951 104.432C41.9947 104.166 42.3349 103.932 42.4838 103.836C42.505 103.826 42.5156 103.815 42.5263 103.804L42.5475 103.783" stroke="#1D4484" stroke-width="0.5" stroke-linecap="round" stroke-linejoin="round"/>
<g opacity="0.65">
<mask id="mask0_21_371" style="mask-type:luminance" maskUnits="userSpaceOnUse" x="106" y="0" width="76" height="35">
<path d="M106.683 34.1934H181.45L140.766 18.7149L106.683 0.259766V34.1934Z" fill="white"/>
</mask>
<g mask="url(#mask0_21_371)">
<path d="M106.747 34.0548L181.386 0.408203" stroke="#1D4484" stroke-width="0.3" stroke-miterlimit="10"/>
</g>
</g>
<path d="M22.0829 24.8491L19.1807 24.5195" stroke="#1D4484" stroke-width="0.3" stroke-miterlimit="10"/>
<path d="M21.4982 39.8604L19.1382 39.584" stroke="#1D4484" stroke-width="0.3" stroke-miterlimit="10"/>
<path d="M21.4556 71.5507L19.0317 71.3594" stroke="#1D4484" stroke-width="0.3" stroke-miterlimit="10"/>
<g opacity="0.65">
<mask id="mask1_21_371" style="mask-type:luminance" maskUnits="userSpaceOnUse" x="21" y="24" width="86" height="83">
<path d="M106.865 24.6055H21.2974V106.112H106.865V24.6055Z" fill="white"/>
</mask>
<g mask="url(#mask1_21_371)">
<path d="M26.4743 25.3273V55.0724L21.4565 54.6472V24.7852L26.4743 25.3273Z" stroke="#1D4484" stroke-width="0.3" stroke-miterlimit="10"/>
<path d="M36.4993 26.4328V55.9227L31.4922 55.4975V25.8906L36.4993 26.4328Z" stroke="#1D4484" stroke-width="0.3" stroke-miterlimit="10"/>
<path d="M46.5348 27.5285V56.7633L41.5171 56.3487V26.9863L46.5348 27.5285Z" stroke="#1D4484" stroke-width="0.3" stroke-miterlimit="10"/>
<path d="M41.5168 26.9864L36.499 26.4336" stroke="#1D4484" stroke-width="0.3" stroke-miterlimit="10"/>
<path d="M56.5593 28.6329V57.6125L51.5415 57.1873V28.0801L56.5593 28.6329Z" stroke="#1D4484" stroke-width="0.3" stroke-miterlimit="10"/>
<path d="M66.5848 29.7384V58.4522L61.5776 58.0376V29.1855L66.5848 29.7384Z" stroke="#1D4484" stroke-width="0.3" stroke-miterlimit="10"/>
<path d="M61.5773 29.1856L56.5596 28.6328" stroke="#1D4484" stroke-width="0.3" stroke-miterlimit="10"/>
<path d="M76.6198 30.8332V59.3026L71.6021 58.8773V30.291L76.6198 30.8332Z" stroke="#1D4484" stroke-width="0.3" stroke-miterlimit="10"/>
<path d="M86.6447 31.9395V60.1538L81.627 59.7285V31.3867L86.6447 31.9395Z" stroke="#1D4484" stroke-width="0.3" stroke-miterlimit="10"/>
<path d="M81.6272 31.3868L76.6201 30.834" stroke="#1D4484" stroke-width="0.3" stroke-miterlimit="10"/>
<path d="M96.6804 33.0344V60.9935L91.6626 60.5682V32.4922L96.6804 33.0344Z" stroke="#1D4484" stroke-width="0.3" stroke-miterlimit="10"/>
<path d="M101.687 33.588L96.6802 33.0352" stroke="#1D4484" stroke-width="0.3" stroke-miterlimit="10"/>
<path d="M91.6623 32.4923L86.6445 31.9395" stroke="#1D4484" stroke-width="0.3" stroke-miterlimit="10"/>
<path d="M71.6022 30.293L66.5845 29.7402" stroke="#1D4484" stroke-width="0.3" stroke-miterlimit="10"/>
<path d="M51.5418 28.0801L46.5347 27.5273" stroke="#1D4484" stroke-width="0.3" stroke-miterlimit="10"/>
<path d="M31.4924 25.8896L26.4746 25.3262" stroke="#1D4484" stroke-width="0.3" stroke-miterlimit="10"/>
<path d="M71.6022 44.7499V74.5268L66.5845 74.2611V44.2715L71.6022 44.7499Z" stroke="#1D4484" stroke-width="0.3" stroke-miterlimit="10"/>
<path d="M61.5773 43.8037V73.9953L56.5596 73.7189V43.3359L61.5773 43.8037Z" stroke="#1D4484" stroke-width="0.3" stroke-miterlimit="10"/>
<path d="M81.6272 45.6855V75.0585L76.6201 75.1755V45.5898L81.6272 45.6855Z" stroke="#1D4484" stroke-width="0.3" stroke-miterlimit="10"/>
<path d="M56.5593 57.6138V80.2575C54.6776 80.3 52.9448 80.3851 51.5415 80.5445V57.1992L56.5593 57.6244V57.6138Z" stroke="#1D4484" stroke-width="0.3" stroke-miterlimit="10"/>
<path d="M101.741 76.1434L101.688 76.1328" stroke="#1D4484" stroke-width="0.3" stroke-miterlimit="10"/>
<path d="M99.5077 89.5271L98.5615 89.5059" stroke="#1D4484" stroke-width="0.3" stroke-miterlimit="10"/>
<path d="M91.6625 89.4102H91.5562" stroke="#1D4484" stroke-width="0.3" stroke-miterlimit="10"/>
<path d="M31.4922 88.5176L36.4993 88.592H36.8289" stroke="#1D4484" stroke-width="0.3" stroke-miterlimit="10"/>
<path d="M46.5347 88.7402L48.0336 88.7615L48.799 88.7721" stroke="#1D4484" stroke-width="0.3" stroke-miterlimit="10"/>
<path d="M71.6022 74.5275V80.2044C70.5604 80.2681 68.7532 80.2575 66.5845 80.2469V74.2617L71.6022 74.5275Z" stroke="#1D4484" stroke-width="0.3" stroke-miterlimit="10"/>
<path d="M31.492 105.504L26.4743 105.727L21.4565 105.95" stroke="#1D4484" stroke-width="0.3" stroke-miterlimit="10"/>
<path d="M106.705 34.1407V61.834L101.688 61.4194V33.5879L106.705 34.1407Z" stroke="#1D4484" stroke-width="0.3" stroke-miterlimit="10"/>
<path d="M106.705 64.7149V61.834" stroke="#1D4484" stroke-width="0.3" stroke-miterlimit="10"/>
<path d="M101.688 86.955V76.1328" stroke="#1D4484" stroke-width="0.3" stroke-miterlimit="10"/>
<path d="M101.687 47.5771V76.1316L96.6802 75.8658V47.1094L101.687 47.5771Z" stroke="#1D4484" stroke-width="0.3" stroke-miterlimit="10"/>
<path d="M96.6802 86.2516V75.8652" stroke="#1D4484" stroke-width="0.3" stroke-miterlimit="10"/>
<path d="M91.6626 82.9774V75.5996" stroke="#1D4484" stroke-width="0.3" stroke-miterlimit="10"/>
<path d="M91.6623 46.6318V75.6008L86.6445 75.3351V46.1641L91.6623 46.6318Z" stroke="#1D4484" stroke-width="0.3" stroke-miterlimit="10"/>
<path d="M86.6445 79.6395V75.334" stroke="#1D4484" stroke-width="0.3" stroke-miterlimit="10"/>
<path d="M81.627 80.5016V75.0586" stroke="#1D4484" stroke-width="0.3" stroke-miterlimit="10"/>
<path d="M76.6201 80.1607V74.8027" stroke="#1D4484" stroke-width="0.3" stroke-miterlimit="10"/>
<path d="M61.5776 80.2045V73.9961" stroke="#1D4484" stroke-width="0.3" stroke-miterlimit="10"/>
<path d="M51.5418 42.8564V73.452L46.5347 73.1862V42.3887L51.5418 42.8564Z" stroke="#1D4484" stroke-width="0.3" stroke-miterlimit="10"/>
<path d="M41.5171 101.296V100.276V99.1807V96.4805" stroke="#1D4484" stroke-width="0.3" stroke-miterlimit="10"/>
<path d="M41.5171 93.3542V88.666" stroke="#1D4484" stroke-width="0.3" stroke-miterlimit="10"/>
<path d="M36.499 95.3104V88.5917V87.4648" stroke="#1D4484" stroke-width="0.3" stroke-miterlimit="10"/>
<path d="M41.5168 41.9111V72.9213L36.499 72.6555V41.4434L41.5168 41.9111Z" stroke="#1D4484" stroke-width="0.3" stroke-miterlimit="10"/>
<path d="M36.499 84.6266V72.6562" stroke="#1D4484" stroke-width="0.3" stroke-miterlimit="10"/>
<path d="M26.4746 105.729V88.4434" stroke="#1D4484" stroke-width="0.3" stroke-miterlimit="10"/>
<path d="M46.5348 56.7623V88.7398L41.5171 88.6654V56.3477L46.5348 56.7623Z" stroke="#1D4484" stroke-width="0.3" stroke-miterlimit="10"/>
<path d="M46.5348 88.7398V103.612H43.5476C43.3349 103.612 43.133 103.559 42.9522 103.453C42.8034 103.357 42.6865 103.24 42.5908 103.091C42.0273 102.198 42.2293 99.764 42.0167 100.742C41.9636 100.955 41.7935 101.146 41.5171 101.295C40.539 101.869 38.3916 102.081 37.0202 101.763C36.8395 101.72 36.6694 101.603 36.5099 101.433C36.3824 101.295 36.2654 101.114 36.1591 100.891C34.7027 100.359 34.4582 99.275 34.0755 99.4557C33.5439 99.7002 33.9585 102.347 32.6509 102.985C31.5347 103.527 30.7693 104.707 33.3951 105.43L31.4922 105.515V55.5078L36.5099 55.933V72.666L41.5171 72.9317V88.676L46.5348 88.7504V88.7398Z" stroke="#1D4484" stroke-width="0.3" stroke-miterlimit="10"/>
<path d="M31.4924 40.9658V72.3799L26.4746 72.1141V40.498L31.4924 40.9658Z" stroke="#1D4484" stroke-width="0.3" stroke-miterlimit="10"/>
<path d="M26.4743 55.0717V88.4419L21.4565 88.3675V54.6465L26.4743 55.0717Z" stroke="#1D4484" stroke-width="0.3" stroke-miterlimit="10"/>
<path d="M21.4565 105.951V88.3672" stroke="#1D4484" stroke-width="0.3" stroke-miterlimit="10"/>
</g>
</g>
</g>
<defs>
<clipPath id="clip0_21_371">
<rect width="233" height="118" fill="white" transform="translate(0 0.259766)"/>
</clipPath>
</defs>
</svg>
