<svg width="233" height="119" viewBox="0 0 233 119" fill="none" xmlns="http://www.w3.org/2000/svg">
<g clip-path="url(#clip0_21_445)">
<path d="M213.748 5.6037L213.66 113.996L181.71 117.365L181.96 56.9978V56.7358L182.047 34.4833C182.21 34.346 182.359 34.2087 182.509 34.0839C182.509 34.0839 182.522 34.0714 182.534 34.0589C184.207 32.5863 185.48 31.3507 185.455 30.9888C185.367 29.9903 184.556 26.5957 184.219 26.4459C183.969 26.3336 183.283 26.4334 182.971 26.4834C182.884 26.059 182.821 25.7096 182.834 25.4974C182.846 24.7735 182.372 23.6254 182.097 23.0263L182.21 2.49609L213.76 5.62867L213.748 5.6037Z" fill="#00AB4E"/>
<path d="M182.472 34.0222L182.372 42.2718L182.185 56.6991C182.185 56.5243 182.073 56.437 181.898 56.3995C181.736 56.3746 181.536 56.3995 181.312 56.437C180.887 56.5243 180.4 56.7115 180.138 56.8239C180.101 56.8363 180.063 56.8488 180.026 56.8738C179.989 56.8988 179.964 56.9112 179.951 56.9112C180.101 56.7989 181.237 55.9128 181.511 55.451C181.811 54.9518 181.511 54.3652 181.224 53.0922C181.187 52.93 181.137 52.8052 181.062 52.7303C181.037 52.6929 180.999 52.6804 180.962 52.6554C180.5 52.4183 179.664 53.579 179.34 53.579C179.315 53.579 179.302 53.579 179.29 53.579C179.115 53.4542 180.351 52.4682 180.625 51.8192C180.925 51.1328 180.825 51.2327 180.425 50.2467C180.388 50.1594 180.351 50.097 180.313 50.047C180.301 50.0346 180.288 50.0221 180.276 50.0096C180.251 49.9846 180.213 49.9721 180.188 49.9597C179.677 49.76 178.753 50.9207 177.692 51.3325C177.542 51.3949 177.455 51.4074 177.418 51.3949C177.118 51.3076 179.652 49.4605 179.652 49.4605C179.652 49.4605 179.851 48.6742 179.652 47.9878C179.602 47.813 179.464 47.6633 179.29 47.526C179.165 47.4386 179.028 47.3638 178.878 47.2889C178.766 47.239 178.653 47.189 178.553 47.1516C178.553 47.1516 178.553 47.1516 178.541 47.1516C178.416 47.2514 178.117 47.3762 177.742 47.501C177.73 47.0268 176.581 42.8583 176.507 42.5963V42.5838C176.507 42.5838 176.394 42.6087 176.207 42.6462C176.107 42.3466 176.007 42.147 175.945 42.097C175.658 42.0596 174.947 42.1844 174.872 42.1969C174.872 42.1969 174.085 40.6368 174.984 40.0752C175.496 39.7507 179.252 36.8178 182.073 34.4216C182.223 34.2968 182.385 34.1595 182.535 34.0347C182.535 34.0347 182.547 34.0222 182.56 34.0098" fill="#00AB4E"/>
<path d="M182.472 30.8007V32.7975C182.472 32.7975 182.472 32.7975 182.459 32.81C182.309 32.9348 182.16 33.0846 181.997 33.2219C181.523 33.6462 180.987 34.1205 180.412 34.5947C180.263 34.7195 180.113 34.8568 179.963 34.9816C176.955 37.5401 173.361 40.4605 173.361 40.4605V40.5229L173.461 42.1453L173.673 43.1562C173.673 43.1562 173.623 43.1562 173.611 43.1687C173.386 43.2186 173.211 43.2686 173.086 43.306C172.974 43.3435 172.912 43.4183 172.874 43.5307C172.637 44.242 173.536 46.3138 173.673 46.5509C173.673 46.5509 173.673 46.5759 173.686 46.6133L173.611 46.6507L171.739 47.4495C171.739 47.4495 171.739 47.4495 171.701 47.4745C171.701 47.4745 171.614 47.5493 171.539 47.5993C171.514 47.6242 171.489 47.6367 171.452 47.6617C171.427 47.6741 171.402 47.6991 171.377 47.7116C170.828 48.1359 169.779 48.9721 169.355 49.5337C169.305 49.5961 169.255 49.671 169.23 49.7584C169.23 49.7708 169.205 49.7958 169.205 49.8208C168.793 50.7568 168.881 52.5914 168.881 53.465C168.881 54.1015 168.793 55.075 168.444 55.7864C168.444 55.7864 168.444 55.7989 168.444 55.8113C168.244 56.1857 167.982 56.4853 167.608 56.6101C166.659 56.9595 166.01 57.596 165.873 57.7583C165.324 57.6709 164.949 57.7084 164.862 57.8831C164.862 57.908 164.837 57.9205 164.837 57.9455C164.587 58.5321 164.862 59.3558 164.862 59.3558C164.862 59.3558 166.135 58.3698 165.935 58.9564C165.935 58.9813 165.91 59.0188 165.885 59.0562C165.361 59.8799 161.704 63.1248 159.545 63.961C158.834 64.2356 158.098 64.5726 157.411 64.897V34.9442C157.411 34.9442 157.486 34.9442 157.623 34.9067C158.622 34.7445 163.227 34.0206 168.269 33.1969L168.431 33.172C172.924 32.4356 177.742 31.6369 180.65 31.1002H180.675C181.199 31.0004 181.648 30.913 182.035 30.8381C182.21 30.8007 182.359 30.7757 182.509 30.7383" fill="#00AB4E"/>
<path fill-rule="evenodd" clip-rule="evenodd" d="M182.197 56.3112L181.685 117.353L177.929 117.752L177.829 108.879C177.829 107.98 177.804 107.019 177.342 106.245C176.893 105.459 175.87 104.922 175.058 105.334C173.873 105.933 174.197 107.655 173.985 108.966C173.848 109.765 173.448 110.513 172.862 111.063C172.662 111.25 172.437 111.4 172.175 111.449C171.451 111.562 170.952 110.713 170.852 109.989C170.665 108.429 171.339 106.894 171.377 105.322C171.389 104.748 171.314 104.123 170.977 103.662C170.64 103.187 169.979 102.913 169.455 103.138C169.13 103.275 168.905 103.574 168.706 103.874C166.871 106.744 167.333 110.464 166.534 113.771C166.422 114.245 166.272 114.732 165.885 115.031C165.149 115.63 163.963 115.119 163.526 114.283C163.09 113.446 163.177 112.448 163.302 111.499C163.614 108.941 164.013 106.357 163.814 103.787C163.789 103.4 163.726 102.988 163.489 102.701C163.04 102.164 162.116 102.276 161.629 102.788C161.143 103.287 161.005 104.036 160.993 104.735C160.993 106.021 161.317 107.318 161.043 108.591C160.768 109.852 159.495 111.05 158.297 110.588C157.386 110.239 157.012 109.141 157.012 108.18C157.012 107.206 157.349 106.22 157.374 105.396V79.662C160.656 76.7416 165.311 71.8867 166.884 70.2393C169.143 67.8805 170.715 65.6091 170.715 65.6091C170.715 65.6091 170.515 63.1505 168.743 60.7917C166.971 58.4329 165.798 57.9462 165.798 57.9462C165.798 57.9462 165.798 57.9337 165.823 57.9087C167.046 58.1209 169.143 58.9945 170.715 60.5046C172.974 62.6637 172.088 64.8353 171.801 65.8213C171.501 66.8072 172.987 64.9352 174.16 63.8494C175.345 62.7636 177.604 60.9914 177.991 60.7917C178.391 60.6045 179.963 60.2051 180.25 59.6185C180.55 59.0319 181.798 57.397 181.523 56.3487C181.199 56.2239 182.197 56.3237 182.197 56.3112Z" fill="#00AB4E"/>
<path d="M157.361 79.8242V105.484C157.336 106.308 157 107.294 157 108.254C157 109.228 157.374 110.326 158.285 110.663C159.483 111.125 160.756 109.927 161.031 108.666C161.305 107.406 160.968 106.108 160.981 104.822C160.981 104.123 161.118 103.375 161.605 102.875C162.092 102.376 163.015 102.251 163.464 102.788C163.714 103.088 163.764 103.487 163.789 103.874C163.989 106.445 163.602 109.028 163.277 111.587C163.165 112.523 163.065 113.534 163.502 114.37C163.939 115.206 165.124 115.718 165.861 115.119C166.235 114.819 166.397 114.32 166.51 113.858C167.308 110.551 166.847 106.832 168.681 103.961C168.868 103.662 169.105 103.362 169.43 103.225C169.967 103 170.616 103.275 170.953 103.749C171.29 104.223 171.377 104.835 171.364 105.409C171.314 106.981 170.641 108.517 170.84 110.064C170.928 110.788 171.427 111.637 172.163 111.524C172.425 111.487 172.65 111.325 172.85 111.137C173.449 110.588 173.848 109.84 173.973 109.041C174.185 107.73 173.86 106.008 175.046 105.409C175.857 104.997 176.881 105.534 177.33 106.32C177.779 107.106 177.804 108.055 177.804 108.953C177.842 111.886 177.867 114.819 177.904 117.74" stroke="#1D4484" stroke-width="0.27" stroke-miterlimit="10"/>
<path d="M182.459 32.9731V31.0137C182.459 31.0137 182.447 31.0137 182.434 31.0137L182.01 31.0886L180.649 31.3257H180.624L168.419 33.3974L168.256 33.4224L157.573 35.2445C157.573 35.2445 157.498 35.257 157.473 35.257C157.461 35.257 157.448 35.257 157.436 35.257H157.423H157.374V65.1849" stroke="#1D4484" stroke-width="0.27" stroke-miterlimit="10"/>
<path d="M182.447 34.1973L182.372 42.4218L181.698 117.354" stroke="#1D4484" stroke-width="0.27" stroke-miterlimit="10"/>
<g opacity="0.65">
<mask id="mask0_21_445" style="mask-type:luminance" maskUnits="userSpaceOnUse" x="21" y="87" width="74" height="24">
<path d="M94.1614 87.1875H21.2012V110.875H94.1614V87.1875Z" fill="white"/>
</mask>
<g mask="url(#mask0_21_445)">
<path d="M89.0685 98.4347C88.9437 98.4347 88.8563 98.3224 88.8813 98.21C89.0186 97.5985 89.368 95.9511 89.3431 95.7514C89.3056 95.5018 88.12 95.5392 87.8829 95.6391C87.6832 95.7264 87.3587 97.7483 87.3587 97.6983C87.3587 97.6484 87.3837 95.5268 87.7706 95.377C88.1824 95.2147 88.4944 95.2272 89.2308 95.377C89.9546 95.5143 81.5678 92.2943 81.7925 93.1056C82.0296 93.9168 81.2558 95.6141 81.4305 95.7389C81.9422 96.1009 93.0872 100.469 93.8111 100.731C94.1106 100.831 94.1355 102.99 93.4741 103.327C93.1621 103.477 93.212 103.639 93.1995 103.826L93.0373 106.672C93.0373 106.672 92.9873 106.784 92.9374 106.784L91.6395 106.984C91.5646 106.984 91.5147 107.059 91.5396 107.133L92.0139 109.23C92.0139 109.23 92.0763 109.33 92.1387 109.33H92.4382C92.5006 109.33 92.563 109.28 92.563 109.205V106.734C92.563 106.659 92.5006 106.597 92.4257 106.609L82.092 108.169C82.0046 108.182 81.9422 108.269 81.9547 108.357L82.3666 110.628C82.379 110.703 82.4414 110.753 82.5163 110.753H82.8533C82.9407 110.753 83.0155 110.69 83.0155 110.591V107.882C83.0155 107.782 82.9282 107.72 82.8408 107.733L82.1544 107.82C82.1544 107.82 82.0795 107.82 82.0546 107.795L76.2387 104.388C76.2387 104.388 76.1513 104.363 76.1139 104.363L74.766 104.538C74.6662 104.55 74.5913 104.65 74.5913 104.75L74.7535 106.709C74.7535 106.821 74.8534 106.896 74.9657 106.884L75.2278 106.859C75.3276 106.859 75.4025 106.772 75.4025 106.672L75.5148 104.388C75.5148 104.263 75.415 104.163 75.2902 104.188L51.7023 106.722C51.59 106.722 51.5151 106.834 51.5276 106.946L51.9145 109.704C51.9269 109.804 52.0143 109.879 52.1142 109.879H52.6258C52.7257 109.879 52.8131 109.804 52.8255 109.704L53.0876 107.421C53.1126 107.233 52.9379 107.059 52.7507 107.084C52.1266 107.158 50.9036 107.258 50.2171 106.909C48.6197 106.073 47.6212 98.4971 48.0206 98.2475C48.42 97.9979 50.2421 97.7483 50.4043 98.2475C51.7023 102.491 51.4277 106.46 51.6524 106.472C51.9894 106.497 51.7772 103.876 51.7772 103.627C51.7772 103.502 53.8115 103.627 64.2575 102.528C69.9611 101.929 75.5148 101.243 75.7769 101.28C76.1763 101.343 75.4899 103.764 75.8643 103.764C76.2387 103.764 76.0016 101.28 76.3011 101.28C76.663 101.28 80.9688 104.45 82.4914 104.612C84.0015 104.775 93.212 103.102 93.212 103.102C93.3742 102.99 93.836 101.892 93.4491 100.981C93.3368 100.694 83.6271 102.204 82.8533 102.091C82.0795 101.979 76.7005 98.859 76.4883 99.0088C76.2761 99.1585 76.4509 100.806 76.0889 100.818C75.7145 100.818 76.1763 99.3208 76.064 99.0337C75.9517 98.7467 64.919 100.032 64.8192 100.032C64.7193 100.032 65.0563 101.73 64.7692 101.904C64.3948 102.141 52.6258 103.302 52.0143 103.165C51.5775 103.065 51.253 99.7451 51.3653 100.319C51.4652 100.793 51.8271 101.168 52.2639 101.168C52.7007 101.168 64.9065 100.207 64.7692 99.8824C64.6195 99.5579 62.061 97.5985 61.724 97.4612C61.1874 97.249 61.0626 90.285 60.5509 89.7359C60.0517 89.1992 61.3621 89.4488 63.7209 89.3739C66.0797 89.2991 71.1342 88.5128 71.3339 89.1992C71.7208 90.4972 71.6085 95.8637 72.0203 95.9386C72.3074 95.9885 71.8955 89.3365 71.5461 89.0869C71.2715 88.8747 81.3931 88.2757 81.4929 88.9995C81.5803 89.6859 81.6053 95.4768 81.0561 95.5143C80.5195 95.5517 73.3557 96.1258 72.0703 96.3879C71.7832 96.4503 62.3605 97.1118 61.8239 97.1617C61.4495 97.1991 61.1 97.274 60.7381 97.2366C60.4136 97.1991 52.4636 97.6235 50.6165 97.7483C50.3794 97.7607 50.1547 97.6734 49.9925 97.5111C49.381 96.8871 47.8958 95.3146 47.8708 94.9651C47.8334 94.5158 48.2577 94.728 48.4824 95.1898C48.8817 96.0135 49.1563 96.4503 49.4059 96.2881C49.6555 96.1258 49.4059 89.4488 48.732 90.1727C48.37 90.5596 51.3653 90.1477 54.3107 90.0229C57.2311 89.9106 60.3013 89.998 60.1265 89.7109C59.9393 89.3989 48.8817 89.4987 48.3825 89.8981C47.6087 90.5096 48.6197 94.6531 48.42 94.5034C47.9208 94.129 46.2359 94.1789 45.8241 94.8778C45.4496 95.5018 46.161 99.1336 46.4231 100.456C46.6602 101.692 46.9098 101.954 47.9208 103.689C48.0206 103.851 47.8958 104.051 47.7086 104.051H42.1299C40.6322 104.051 41.3186 97.948 41.8179 98.1601C42.3171 98.3723 41.3935 104.201 40.1954 104.263C38.9973 104.338 35.8522 103.914 38.2984 104.375C40.5573 104.812 39.3967 98.0103 39.1346 97.9604C38.8725 97.9105 34.1424 97.7358 38.0862 98.21C40.0332 98.4472 42.0799 97.898 41.8678 97.7233C41.7055 97.586 41.1814 97.586 40.9068 97.5611C40.4325 97.5236 42.1423 95.2522 42.6166 94.3411C43.0909 93.4176 43.9395 91.3958 44.8381 91.3209C45.4996 91.271 45.874 89.6235 46.7975 89.3864C47.9332 89.0994 48.9691 91.1586 48.6945 90.7842C48.1454 90.0604 45.6992 89.1243 44.9255 89.4114C44.3638 89.6111 43.3779 90.31 43.4029 91.9449C43.4153 93.1056 40.108 97.7233 40.4575 97.4862C40.8069 97.249 41.7804 92.5315 42.2547 91.9199C42.7289 91.3084 44.3014 91.7827 45.225 92.2319C46.1485 92.6812 45.5744 94.2538 45.5744 94.2538C45.5744 94.2538 45.25 93.6422 44.2266 92.5814C43.64 91.9699 41.8428 91.6578 41.7555 92.3193C41.4684 94.441 40.1829 97.5486 39.9208 97.5361C39.4715 97.5111 40.2703 93.3302 40.2703 92.6812C40.2703 92.0323 40.4325 91.7452 40.8319 91.246C41.3686 90.5596 41.5183 89.4863 40.133 89.3989C39.3842 89.349 41.6057 91.6703 41.3935 91.271C41.0191 90.5596 42.2921 89.7234 42.2422 89.5112C42.1548 89.1618 39.9458 89.012 39.4965 89.1867C38.9099 89.3989 39.0472 90.909 39.7087 91.9449C40.3701 92.9808 39.4216 97.586 39.0722 97.5611C38.7227 97.5361 38.2235 90.2101 38.1985 89.6111C38.1736 89.0245 39.4715 88.2257 39.3967 87.9137C39.3093 87.5144 36.2641 87.4145 36.7758 87.8014C37.3 88.1758 37.9989 89.6735 37.9614 89.3615C37.7992 88.1883 39.2095 87.8264 39.1471 87.5518C39.0722 87.2648 36.5262 87.2273 36.2641 87.5518C36.002 87.8763 37.8241 89.3615 37.8241 89.7858C37.8241 90.2101 38.9474 97.7982 38.4856 97.7108C37.9614 97.611 36.9755 92.3567 36.7633 91.6454C36.5636 90.9839 36.3639 90.4472 36.0519 89.8981C35.8148 89.4738 34.5917 89.3989 33.456 89.8482C32.2829 90.31 32.8445 92.6812 32.9818 91.6828C33.0941 90.9215 34.3296 90.6719 34.5668 90.3848C34.8039 90.0978 35.1533 89.7733 36.2641 91.2834C37.2126 92.5814 37.3499 97.5111 37.7742 97.5361C37.8491 97.5361 37.0504 95.8887 36.1268 94.0416C34.8289 91.4706 33.9303 90.7218 32.8944 90.0604C32.3203 89.6984 32.0457 89.9231 31.3343 89.8232C30.623 89.7359 29.5621 89.1867 28.8383 90.6969C28.1019 92.207 27.403 92.6064 28.8383 91.3833C29.3 90.9839 31.0598 90.8841 31.6214 90.6345C32.8944 90.0479 33.3811 90.5471 34.2423 91.3833C35.665 92.7811 37.3249 97.5361 37.3249 97.5361L36.5387 97.6484C36.1892 97.6983 35.9396 97.9979 35.9396 98.3473C35.9646 99.1336 36.0145 100.494 36.1892 101.505C36.3639 102.516 36.5262 103.152 36.7758 103.602C37.0129 104.013 36.9006 104.251 36.2516 104.251L21.2627 105.636" stroke="#1D4484" stroke-width="0.23" stroke-miterlimit="10"/>
</g>
</g>
<g opacity="0.65">
<mask id="mask1_21_445" style="mask-type:luminance" maskUnits="userSpaceOnUse" x="123" y="0" width="36" height="17">
<path d="M158.684 0H123.914V16.6738H158.684V0Z" fill="white"/>
</mask>
<g mask="url(#mask1_21_445)">
<path d="M123.976 16.5504L158.634 0.138672" stroke="#1D4484" stroke-width="0.23" stroke-miterlimit="10"/>
</g>
</g>
<g opacity="0.65">
<mask id="mask2_21_445" style="mask-type:luminance" maskUnits="userSpaceOnUse" x="83" y="26" width="19" height="67">
<path d="M101.936 26.8828H83.1035V92.854H101.936V26.8828Z" fill="white"/>
</mask>
<g mask="url(#mask2_21_445)">
<path d="M83.2529 92.8679V75.4827V74.3845V35.8326L101.874 27.0215" stroke="#1D4484" stroke-width="0.23" stroke-miterlimit="10"/>
</g>
</g>
<g opacity="0.65">
<mask id="mask3_21_445" style="mask-type:luminance" maskUnits="userSpaceOnUse" x="21" y="29" width="63" height="8">
<path d="M83.2784 29.5645H21.3633V36.0168H83.2784V29.5645Z" fill="white"/>
</mask>
<g mask="url(#mask3_21_445)">
<path d="M83.2527 35.8684L21.375 29.7031" stroke="#1D4484" stroke-width="0.23" stroke-miterlimit="10"/>
</g>
</g>
<g opacity="0.65">
<mask id="mask4_21_445" style="mask-type:luminance" maskUnits="userSpaceOnUse" x="54" y="47" width="14" height="11">
<path d="M67.4391 47.8496H54.7466V57.6467H67.4391V47.8496Z" fill="white"/>
</mask>
<g mask="url(#mask4_21_445)">
<path d="M67.3018 57.51L54.8838 56.3618V48L67.3018 49.1482V57.51Z" stroke="#1D4484" stroke-width="0.22" stroke-miterlimit="10"/>
<path d="M66.8155 56.8738L55.4209 55.8753V48.6367L66.8155 49.6351V56.8738Z" stroke="#1D4484" stroke-width="0.22" stroke-miterlimit="10"/>
</g>
</g>
<g opacity="0.65">
<mask id="mask5_21_445" style="mask-type:luminance" maskUnits="userSpaceOnUse" x="51" y="56" width="9" height="8">
<path d="M59.2912 56.959H51.3662V63.1118H59.2912V56.959Z" fill="white"/>
</mask>
<g mask="url(#mask5_21_445)">
<path d="M59.1664 62.9751L51.5034 62.2638V57.1094L59.1664 57.8208V62.9751Z" stroke="#1D4484" stroke-width="0.22" stroke-miterlimit="10"/>
<path d="M58.8668 62.5873L51.8403 61.9758V57.5078L58.8668 58.1193V62.5873Z" stroke="#1D4484" stroke-width="0.22" stroke-miterlimit="10"/>
</g>
</g>
<g opacity="0.65">
<mask id="mask6_21_445" style="mask-type:luminance" maskUnits="userSpaceOnUse" x="59" y="57" width="8" height="6">
<path d="M66.2048 57.6094H59.9521V62.4767H66.2048V57.6094Z" fill="white"/>
</mask>
<g mask="url(#mask6_21_445)">
<path d="M66.0804 62.3401L60.0898 61.7909V57.7598L66.0804 58.3089V62.3401Z" stroke="#1D4484" stroke-width="0.22" stroke-miterlimit="10"/>
<path d="M65.8434 62.0293L60.3521 61.555V58.0605L65.8434 58.5473V62.0293Z" stroke="#1D4484" stroke-width="0.22" stroke-miterlimit="10"/>
</g>
</g>
<g opacity="0.65">
<mask id="mask7_21_445" style="mask-type:luminance" maskUnits="userSpaceOnUse" x="59" y="62" width="6" height="5">
<path d="M64.5194 62.6523H59.8892V66.2716H64.5194V62.6523Z" fill="white"/>
</mask>
<g mask="url(#mask7_21_445)">
<path d="M64.382 66.135L60.0264 65.7356V62.8027L64.382 63.2021V66.135Z" stroke="#1D4484" stroke-width="0.22" stroke-miterlimit="10"/>
<path d="M64.2071 65.9228L60.2134 65.5733V63.0273L64.2071 63.3768V65.9228Z" stroke="#1D4484" stroke-width="0.22" stroke-miterlimit="10"/>
</g>
</g>
<path d="M166.147 118.999C150.26 113.895 136.407 109.452 136.082 109.365C135.296 109.165 129.493 109.464 129.33 108.191C129.168 106.931 121.817 108.478 118.872 108.379C115.914 108.279 122.903 107.006 123.689 105.62C124.476 104.248 117.499 102.575 112.182 99.8171C106.878 97.059 117.786 100.703 121.031 101.19C124.276 101.677 116.613 93.4147 114.641 87.3243C112.669 81.2214 123.29 97.4583 127.421 102.176C131.552 106.893 125.449 96.2727 124.476 92.5411C123.49 88.8094 129.293 95.8858 131.452 99.8171C133.611 103.748 134.597 107.293 134.797 108.179C134.996 109.065 134.797 105.62 134.797 103.948C134.797 102.276 134.597 97.1588 134.497 94.2134C134.397 91.2556 134.884 81.5209 134.984 80.8345C135.046 80.3977 135.271 79.4741 135.883 78.9624C136.232 78.6754 136.706 78.5256 137.343 78.6754C138.716 78.9874 140.276 80.2354 141.911 80.822C142.372 80.9967 142.859 81.109 143.333 81.134C145.492 81.2339 146.191 74.4445 147.664 72.7722C149.137 71.0998 151.009 80.6348 151.495 79.5615C151.982 78.4757 151.595 72.9718 151.595 70.9126C151.595 69.5897 152.818 68.1419 153.692 67.2683C154.179 66.7816 154.553 66.4821 154.553 66.4821C154.553 66.4821 157.212 65.0094 159.47 64.1233C161.729 63.2372 165.661 59.6927 165.86 59.1062C166.06 58.5196 164.775 59.4931 164.775 59.4931C164.775 59.4931 164.475 58.6069 164.775 58.0204C164.862 57.8456 165.249 57.7957 165.786 57.8956C167.021 58.1077 169.105 58.9814 170.678 60.4915C172.937 62.6506 172.051 64.8222 171.751 65.7956C171.452 66.7816 172.937 64.9095 174.11 63.8237C175.296 62.7379 177.554 60.9782 177.941 60.7785C178.328 60.5788 179.913 60.192 180.2 59.6054C180.5 59.0188 181.473 57.8332 181.573 56.8472C181.673 55.9112 180.088 56.8347 179.913 56.9346" stroke="#1D4484" stroke-width="0.5" stroke-miterlimit="10"/>
<path d="M179.938 56.9475C179.938 56.9475 179.938 56.9475 179.951 56.9475C180.088 56.8352 181.236 55.949 181.511 55.4873C181.81 55.0005 181.511 54.414 181.224 53.1285C180.924 51.8555 179.751 53.6152 179.352 53.6152C178.952 53.6152 180.338 52.5294 180.637 51.843C180.937 51.1566 180.837 51.2564 180.437 50.2705C180.038 49.2845 178.965 50.8571 177.679 51.3438C176.406 51.8305 179.651 49.4717 179.651 49.4717C179.651 49.4717 179.851 48.6855 179.651 47.9991C179.539 47.5872 178.977 47.3251 178.528 47.1754C178.503 47.1754 178.478 47.1629 178.453 47.1504" stroke="#1D4484" stroke-width="0.27" stroke-miterlimit="10"/>
<path d="M173.623 46.6884L174.184 46.4887L173.635 43.2812C173.386 43.3437 173.186 43.4061 173.036 43.4435C172.275 43.6806 173.473 46.4138 173.623 46.6884Z" stroke="#1D4484" stroke-width="0.27" stroke-miterlimit="10"/>
<path d="M183.37 28.6169C183.632 29.8275 183.844 31.0131 183.645 31.4998C183.557 31.687 183.133 32.1488 182.472 32.7603C182.472 32.7603 182.472 32.7603 182.459 32.7728C182.309 32.9101 182.16 33.0474 181.997 33.1972C181.536 33.6215 180.999 34.0957 180.412 34.595C180.263 34.7198 180.113 34.857 179.963 34.9819C177.205 37.3656 173.835 40.1362 173.361 40.5231C173.323 40.5481 173.311 40.5731 173.311 40.5731L173.411 42.2579L173.611 43.1814V43.2688C174.422 43.0566 175.62 42.7946 176.169 42.6698C176.331 42.6323 176.431 42.6198 176.469 42.6074C176.469 42.6074 177.779 47.3499 177.692 47.5121C177.692 47.5121 177.679 47.5121 177.654 47.4872C177.43 47.1252 176.631 43.9802 176.157 42.6698C176.157 42.6698 176.157 42.6698 176.157 42.6573C176.044 42.3453 175.944 42.1456 175.882 42.1206C175.57 42.0832 174.809 42.2205 174.809 42.2205C174.746 42.0957 174.072 40.6479 174.933 40.1113C175.47 39.7743 179.164 36.9038 182.01 34.4577C182.16 34.3329 182.309 34.1956 182.472 34.0583C182.472 34.0583 182.484 34.0458 182.497 34.0333C184.156 32.5856 185.404 31.3625 185.38 31.0006C185.292 30.0147 184.481 26.6699 184.156 26.5202C183.907 26.4078 183.233 26.5077 182.921 26.5451C182.821 26.5576 182.771 26.5701 182.771 26.5701C182.771 26.5701 183.046 27.2066 183.245 27.9804C183.283 28.1426 183.333 28.3173 183.358 28.4921C183.358 28.517 183.358 28.542 183.37 28.5669C183.37 28.5919 183.37 28.6044 183.37 28.6293C183.532 29.5529 183.52 30.5014 182.809 30.7635C182.734 30.7884 182.621 30.8259 182.472 30.8633C182.472 30.8633 182.459 30.8633 182.447 30.8633C182.447 30.8633 182.434 30.8633 182.422 30.8633C182.297 30.9008 182.16 30.9257 181.997 30.9632C177.767 31.8742 159.682 34.7572 157.536 35.0942C157.498 35.0942 157.461 35.1067 157.436 35.1067C157.424 35.1067 157.411 35.1067 157.399 35.1067C157.399 35.1067 157.399 35.1067 157.386 35.1067C157.349 35.1067 157.336 35.1067 157.336 35.1067C157.336 35.1067 156.937 34.6698 156.35 33.0724C155.764 31.4873 155.514 28.6293 156.238 28.1925C156.962 27.7682 181.848 22.7012 181.848 22.7012C181.848 22.7012 181.922 22.8509 182.035 23.0881C182.297 23.6871 182.771 24.8228 182.759 25.5342C182.759 25.7464 182.809 26.0833 182.896 26.5077C182.983 26.932 183.096 27.4312 183.22 27.9429C183.258 28.1176 183.295 28.2799 183.333 28.4546C183.333 28.4796 183.333 28.5045 183.345 28.5295C183.345 28.5545 183.345 28.5669 183.345 28.5919" stroke="#1D4484" stroke-width="0.5" stroke-miterlimit="10"/>
<path d="M178.54 47.1501L178.515 47.1751C178.179 47.4746 176.157 47.9364 175.508 48.3981C174.821 48.8849 174.422 49.9707 172.662 50.7569C170.89 51.5432 174.534 48.3981 174.534 48.3981L174.834 46.2266L171.689 47.512C171.689 47.512 169.916 48.8849 169.33 49.6711C168.731 50.4574 168.843 52.629 168.843 53.6025C168.843 54.5759 168.644 56.3606 167.558 56.7475C166.609 57.097 165.973 57.7335 165.823 57.8957C165.81 57.9207 165.798 57.9331 165.798 57.9331C165.798 57.9331 166.984 58.4199 168.743 60.7911C170.516 63.1499 170.715 65.6086 170.715 65.6086C170.715 65.6086 169.143 67.8675 166.871 70.2263C164.612 72.5851 155.963 81.6334 154.191 81.9329C153.667 82.0203 153.23 82.0577 152.843 82.0702C151.945 82.1076 151.446 81.9703 151.233 81.833C150.934 81.6334 150.834 82.6193 149.96 83.7051C149.074 84.7909 149.374 82.7192 149.374 80.56C149.374 78.4009 147.701 82.4321 145.929 84.1045C144.157 85.7768 147.215 80.56 147.801 77.9017C148.388 75.2559 146.628 78.5881 144.457 81.2465C142.372 83.8049 141.199 82.3447 141.112 82.2324" stroke="#1D4484" stroke-width="0.27" stroke-miterlimit="10"/>
<path d="M141.087 82.2315C141.137 82.3563 141.898 83.829 142.659 84.5903C143.445 85.3765 145.118 84.2907 148.562 84.9896C152.007 85.676 150.434 84.9896 152.007 83.7166C152.294 83.4795 152.569 82.8929 152.831 82.0942C153.991 78.4499 154.778 70.2378 154.366 68.8775C154.141 68.1411 153.979 67.6794 153.704 67.2925C153.367 66.7933 152.843 66.3939 151.807 65.6326C149.935 64.2597 149.548 64.7465 147.876 64.7465C146.204 64.7465 149.548 67.0054 149.249 68.8775C148.962 70.7495 147.576 65.1458 146.204 64.8463C145.268 64.6466 145.193 65.4454 145.093 66.294C145.043 66.6934 144.993 67.0928 144.831 67.4048C144.344 68.3907 141.885 70.8494 138.74 72.9086C135.595 74.9679 138.74 71.9227 140.413 68.4781C142.085 65.0335 136.082 69.8509 129.692 71.4235C123.302 72.996 137.555 65.5203 136.968 62.4751C136.382 59.4298 134.41 60.0164 131.265 57.7575C128.12 55.4985 126.447 58.6436 122.316 59.0305C118.185 59.4174 125.861 53.614 126.747 53.4268C127.633 53.2271 130.391 54.7996 132.55 55.9853C134.322 56.9463 142.26 63.8105 145.105 66.2816C145.742 66.8307 146.116 67.1677 146.116 67.1677C146.116 67.1677 145.717 73.3829 144.444 76.8275C143.67 78.9117 142.722 80.1972 141.935 80.8461C141.424 81.283 140.974 81.4327 140.712 81.3578C140.4 81.2705 138.328 80.2097 135.92 78.9991C132.962 77.5139 129.48 75.7916 128.132 75.3673C125.673 74.581 130.191 76.2534 131.477 78.4125C132.762 80.5716 130.491 81.5575 129.218 84.8024C127.945 88.0473 129.517 82.7432 129.904 80.2845C130.291 77.8259 125.673 83.7291 121.343 86.3874C117.012 89.0333 124.288 81.6699 126.847 78.8119C129.405 75.9663 123.402 79.7978 117.798 82.2564C112.195 84.7151 126.16 75.4671 127.046 75.2674C127.932 75.0677 120.257 73.2082 120.257 73.2082C120.257 73.2082 118.098 70.9492 116.226 67.0179C114.354 63.0866 116.837 58.5313 117.898 55.9104C118.959 53.2895 124.188 52.7653 125.174 52.366C126.16 51.9666 121.343 51.9666 118.385 54.0383C115.427 56.0976 114.653 60.5281 112.095 61.0148C109.536 61.5016 115.639 55.2115 116.425 53.8386C117.212 52.4658 113.867 54.2255 110.822 55.3113C106.616 56.7965 111.259 52.0914 115.839 50.3941C118.335 49.4705 120.931 49.0587 122.129 48.7467C122.591 48.6343 122.84 48.5345 122.815 48.4222C122.765 48.235 122.404 47.586 121.879 46.8372C121.305 46.0259 120.544 45.1024 119.783 44.4908C118.31 43.3177 116.051 42.519 115.851 41.1461C115.652 39.7733 121.355 45.377 123.227 45.9635C125.099 46.5626 127.845 44.8902 128.731 44.0915C129.617 43.3052 130.004 40.1602 130.204 38.0884C130.403 36.0292 129.617 30.8124 129.118 29.2398C128.631 27.6673 127.159 23.5363 127.159 23.5363C127.159 23.5363 118.41 27.2679 116.138 28.0667C115.177 28.4037 114.329 28.8405 113.505 29.3646C112.394 30.0511 111.296 30.8623 109.948 31.6985C108.775 32.4348 107.552 33.2211 106.553 33.7702C105.555 34.3318 104.781 34.6563 104.544 34.4566C104.407 34.3443 104.257 34.0323 104.12 33.6329C103.933 33.0838 103.77 32.3724 103.683 31.7484C103.608 31.2117 103.583 30.75 103.658 30.5253C103.858 29.8389 117.723 22.7501 120.282 21.9638C122.84 21.1775 126.285 19.8047 126.285 19.8047C126.285 19.8047 125.099 17.6456 123.826 16.3601C122.553 15.0871 120.095 14.5879 120.095 14.5879L121.804 16.4974C121.804 16.4974 121.817 16.5099 121.829 16.5223L122.653 17.4334" stroke="#1D4484" stroke-width="0.5" stroke-miterlimit="10"/>
<path d="M122.604 17.4213C122.554 17.3589 122.329 17.0344 121.78 16.5102C121.78 16.5102 121.768 16.5102 121.755 16.4852C121.268 16.0235 120.532 15.3995 119.459 14.6756C117 13.0032 113.456 12.6039 110.311 13.3028C107.265 13.9642 104.12 18.3323 103.933 18.5944" stroke="#1D4484" stroke-width="0.27" stroke-miterlimit="10"/>
<path d="M103.92 18.5951C103.92 18.5951 103.92 18.5951 103.92 18.5826C104.182 18.3206 108.164 14.1896 111.97 14.7637C115.652 15.3128 118.398 17.5093 118.722 17.7839" stroke="#1D4484" stroke-width="0.27" stroke-miterlimit="10"/>
<path d="M118.772 17.809C118.772 17.809 118.747 17.7841 118.735 17.7841C115.103 14.951 110.198 14.7638 107.452 16.0368C104.694 17.3098 102.036 21.6405 101.849 25.472C101.686 28.8042 102.997 31.475 103.022 32.7605M103.022 32.7605C103.022 32.9477 102.997 33.11 102.934 33.2348C102.672 33.7714 102.747 33.3471 103.022 32.7605ZM103.022 32.7605C103.184 32.4235 103.396 32.0242 103.658 31.7122C103.771 31.5749 103.895 31.4501 104.02 31.3752C104.906 30.7886 114.928 26.1584 118.173 24.199C121.418 22.2396 125.449 20.667 126.335 20.4674C127.221 20.2677 131.752 19.7809 131.452 20.7669C131.153 21.7528 118.672 25.9837 114.828 27.8432C112.207 29.1162 106.778 31.6373 104.083 33.6092C102.835 34.5202 102.173 35.3065 102.635 35.8057C103.721 36.9664 105.306 35.8057 106.055 35.1443C106.317 34.9071 106.466 34.7324 106.466 34.7324C106.466 34.7324 107.377 40.7355 108.076 41.5217C108.763 42.308 108.176 40.7355 108.276 40.049C108.338 39.5623 109.636 39.6122 110.597 39.4874M110.597 39.4874C111.009 39.425 111.359 39.3501 111.533 39.1629C111.209 39.4874 110.897 39.5623 110.597 39.4874ZM110.597 39.4874C109.237 39.138 108.176 35.5686 108.438 36.1177C107.652 34.4454 108.738 33.9461 110.21 33.7589C111.683 33.5593 110.847 36.2176 112.519 38.0896C114.192 39.9617 113.655 36.2176 112.969 34.4578C112.282 32.6856 113.268 32.8853 113.655 31.6997C114.054 30.5265 113.855 29.2411 113.855 29.2411C113.855 29.2411 113.717 29.2785 113.48 29.3534C112.644 29.603 110.647 30.252 109.736 30.7013C108.863 31.1381 107.303 32.6981 106.541 33.7589C106.267 34.1458 106.104 34.4578 106.104 34.645C106.104 34.7449 106.104 34.9196 106.079 35.1567C106.005 36.5171 105.855 39.7745 107.115 41.035C108.076 41.996 108.538 42.62 108.738 43.3688M108.738 43.3688C108.85 43.7682 108.888 44.2175 108.888 44.7666C108.888 46.3391 108.301 45.6527 107.315 45.453C106.554 45.3033 107.627 44.0303 108.738 43.3688ZM108.738 43.3688C109.062 43.1816 109.387 43.0443 109.674 42.9944C110.934 42.7947 118.66 44.3298 121.867 46.8134C121.917 46.8508 121.955 46.8883 122.004 46.9257C125.137 49.4842 125.474 50.2705 125.761 51.2564C126.036 52.1924 124.014 50.1956 122.117 48.7229C122.017 48.648 121.917 48.5731 121.83 48.4983C119.858 47.0256 111.434 45.9398 109.961 45.7401C108.488 45.5404 104.083 46.9881 104.083 46.9881C104.083 46.9881 103.047 48.9475 101.275 52.804C99.5023 56.6604 98.8658 72.4106 98.8658 74.9816C98.8658 77.5525 98.8658 82.2077 98.3791 88.6476C97.8924 95.075 98.7036 109.228 98.7036 109.228L92.5508 107.056" stroke="#1D4484" stroke-width="0.5" stroke-linecap="round" stroke-linejoin="round"/>
<g opacity="0.65">
<mask id="mask8_21_445" style="mask-type:luminance" maskUnits="userSpaceOnUse" x="69" y="34" width="2" height="55">
<path d="M70.0488 34.5469H69.7617V88.824H70.0488V34.5469Z" fill="white"/>
</mask>
<g mask="url(#mask8_21_445)">
<path d="M69.9111 34.5469V88.824" stroke="#1D4484" stroke-width="0.23" stroke-miterlimit="10"/>
</g>
</g>
<g opacity="0.65">
<mask id="mask9_21_445" style="mask-type:luminance" maskUnits="userSpaceOnUse" x="48" y="32" width="2" height="58">
<path d="M49.043 32.4609H48.7061V89.7458H49.043V32.4609Z" fill="white"/>
</mask>
<g mask="url(#mask9_21_445)">
<path d="M48.9064 32.4609L48.8564 89.7458" stroke="#1D4484" stroke-width="0.23" stroke-miterlimit="10"/>
</g>
</g>
<g opacity="0.65">
<mask id="mask10_21_445" style="mask-type:luminance" maskUnits="userSpaceOnUse" x="93" y="30" width="2" height="71">
<path d="M94.1611 30.7383H93.874V100.99H94.1611V30.7383Z" fill="white"/>
</mask>
<g mask="url(#mask10_21_445)">
<path d="M94.0234 30.7383V100.99" stroke="#1D4484" stroke-width="0.23" stroke-miterlimit="10"/>
</g>
</g>
<g opacity="0.65">
<mask id="mask11_21_445" style="mask-type:luminance" maskUnits="userSpaceOnUse" x="134" y="11" width="1" height="47">
<path d="M134.91 11.4355H134.623V57.5755H134.91V11.4355Z" fill="white"/>
</mask>
<g mask="url(#mask11_21_445)">
<path d="M134.772 11.4355V57.5879" stroke="#1D4484" stroke-width="0.23" stroke-miterlimit="10"/>
</g>
</g>
</g>
<defs>
<clipPath id="clip0_21_445">
<rect width="232.83" height="118.52" fill="white"/>
</clipPath>
</defs>
</svg>
