<svg width="233" height="119" viewBox="0 0 233 119" fill="none" xmlns="http://www.w3.org/2000/svg">
<g clip-path="url(#clip0_21_307)">
<path d="M33.8402 110.951C33.4802 111.181 33.0602 111.351 32.6102 111.451C31.9102 111.611 31.1302 111.611 30.3402 111.461C29.2802 111.271 28.1502 110.891 26.9602 110.421C25.3902 110.561 23.7102 110.871 21.9202 111.361C21.9002 111.361 21.8802 111.361 21.8502 111.361C21.7502 111.361 21.6702 111.271 21.6802 111.171C21.6802 111.061 21.6802 110.941 21.6802 110.841C21.5802 109.951 20.8502 109.301 19.7902 108.831C18.6902 108.351 17.2502 108.081 15.7902 108.001C14.7502 107.931 13.7002 107.961 12.7602 108.071C6.65018 108.741 2.84018 109.051 1.16018 109.061C0.35018 109.061 -0.0298195 108.961 0.00018052 108.741C0.0201805 108.581 0.41018 108.401 1.16018 108.231C2.92018 107.821 6.92018 107.171 12.9702 106.371C17.1302 105.821 21.1502 107.541 24.7702 109.091C25.5402 109.421 26.2902 109.741 27.0202 110.031C29.5102 109.811 31.7602 110.001 33.8002 110.521C33.8702 110.471 33.9402 110.411 34.0102 110.341C34.4002 109.981 34.6702 109.501 34.7802 108.891C34.8602 108.441 34.8602 107.921 34.7402 107.321C34.2002 107.511 33.7402 107.411 33.3502 107.141C33.0102 106.911 32.7402 106.551 32.5202 106.161C31.9602 106.921 31.1602 107.431 30.3402 107.641C29.9602 107.741 29.5702 107.761 29.2102 107.721C28.8402 107.671 28.4902 107.561 28.1802 107.361C27.9902 107.241 27.8102 107.091 27.6502 106.901C27.4602 107.151 27.2602 107.371 27.0502 107.551C26.7302 107.831 26.3802 108.031 26.0302 108.091C25.6602 108.161 25.3002 108.081 24.9702 107.801C24.7502 107.621 24.5402 107.351 24.3602 106.971C23.3002 107.341 22.1202 107.171 21.2602 106.691C20.8802 106.481 20.5702 106.211 20.3502 105.901C20.3502 105.901 20.3502 105.901 20.3502 105.891C20.1202 105.571 19.9902 105.201 20.0002 104.811C20.0202 104.261 20.3002 103.681 20.9702 103.121C20.1302 102.401 19.9202 101.471 20.1102 100.661C20.2002 100.261 20.3902 99.8906 20.6602 99.5906C20.5902 99.4606 20.5402 99.3306 20.5002 99.1806C20.3302 98.4406 20.6202 97.4706 21.6602 96.3506C20.8902 96.0906 20.3002 95.4206 20.0702 94.6806C19.9702 94.3406 19.9302 93.9806 19.9902 93.6406C20.0402 93.2906 20.1902 92.9506 20.4402 92.6606C21.0302 91.9706 22.2102 91.5406 24.1902 91.8006L24.9202 90.4306C24.9202 90.4306 24.9302 90.4106 24.9402 90.4006C25.0002 90.3206 25.1102 90.3006 25.2002 90.3606C25.2302 90.3806 25.2602 90.4006 25.2902 90.4206C25.7502 90.7206 26.3202 90.7706 26.8502 90.6506C27.3802 90.5306 27.8702 90.2206 28.1802 89.8106C28.2002 89.7806 28.2202 89.7506 28.2302 89.7306C28.2402 89.7106 28.2602 89.6906 28.2802 89.6806C28.3602 89.6206 28.4802 89.6406 28.5402 89.7206C29.1702 90.5606 30.0102 91.4706 30.8102 91.9606C31.1602 92.1706 31.4902 92.3006 31.7802 92.2906C32.0502 92.2906 32.2902 92.1506 32.4902 91.8606C32.7002 91.5406 32.8602 91.0206 32.9402 90.2706C32.9402 90.1706 33.0302 90.0906 33.1302 90.1006C33.6002 90.1306 34.0702 90.0606 34.5302 89.9206C34.6202 89.8906 34.7102 89.8606 34.7902 89.8306C34.6302 88.9106 34.0102 88.0306 33.3202 87.1506C33.2902 87.2106 33.2502 87.2706 33.2102 87.3206C32.9302 87.7206 32.5102 88.0606 32.0002 88.3006C31.5002 88.5406 30.9202 88.6906 30.3202 88.7206C29.4802 88.7606 28.6002 88.5706 27.8502 88.0806C27.5802 88.3606 27.2202 88.5706 26.8102 88.7006C26.3902 88.8306 25.9202 88.8806 25.4502 88.8506C24.9802 88.8206 24.5002 88.7206 24.0702 88.5506C23.0702 88.1506 22.2902 87.3906 22.2602 86.3006C22.1602 82.3706 25.3202 81.6306 27.7102 81.0606C28.6502 80.8406 29.4602 80.6506 29.8602 80.3106C30.1002 80.1106 30.1802 79.8206 30.0302 79.4006C29.4102 79.2706 28.8302 78.9206 28.3702 78.4606C27.6502 77.7306 27.2302 76.6906 27.4202 75.6906C27.5502 75.0506 27.9202 74.4306 28.6202 73.9106C28.5602 73.8706 28.5102 73.8206 28.4702 73.7706C28.1002 73.4006 27.9402 72.8706 27.9702 72.3406C28.0002 71.8106 28.2202 71.2906 28.6202 70.9206C29.1502 70.4406 29.9902 70.2306 31.1102 70.6706C31.5202 70.2706 31.8702 70.2106 32.1902 70.3606C32.3802 70.4506 32.5602 70.6206 32.7202 70.8506C32.8302 69.8406 33.2602 68.9406 33.7302 68.3806C33.8102 68.2906 33.8802 68.2106 33.9602 68.1306C33.8202 67.5306 33.8902 66.9806 34.1102 66.5606C34.2502 66.2906 34.4502 66.0706 34.7002 65.9306C34.9502 65.7906 35.2502 65.7306 35.5702 65.7606C35.7202 65.7806 35.8802 65.8206 36.0302 65.8806C36.0302 65.8506 36.0302 65.8206 36.0302 65.7906C36.0302 65.5506 36.1002 65.3606 36.2302 65.2306C36.3602 65.0906 36.5502 65.0106 36.7902 65.0006C37.1102 64.9906 37.5402 65.1006 38.0802 65.3506C38.5402 65.5606 38.9102 65.8706 39.0802 66.2806C39.2102 66.6006 39.2202 66.9706 39.0802 67.4006C39.8002 67.5406 39.9802 68.1006 40.1402 68.7206C40.8002 68.0606 41.4102 67.7106 41.9602 67.6106C42.3702 67.5306 42.7402 67.6106 43.0502 67.7906C43.3602 67.9706 43.6002 68.2706 43.7702 68.6506C44.0302 69.2406 44.1102 70.0506 43.9502 70.9706C44.5702 70.6106 45.1302 70.4406 45.5902 70.4306C45.9402 70.4306 46.2402 70.5206 46.4702 70.7006C46.7002 70.8806 46.8602 71.1506 46.9302 71.4806C47.0102 71.8806 46.9702 72.4006 46.7602 73.0006C47.3702 72.8806 47.9402 72.8806 48.3402 73.0006C48.5602 73.0606 48.7302 73.1706 48.8402 73.3106C48.9602 73.4606 49.0002 73.6606 48.9402 73.8806C48.8802 74.1206 48.6902 74.4106 48.3402 74.7406C48.7102 74.9706 49.0402 75.2106 49.3202 75.4906C49.6302 75.8106 49.8802 76.1906 50.0602 76.6606C50.5402 76.8206 50.7902 77.2106 50.8502 77.6006C50.8902 77.8506 50.8502 78.1106 50.7402 78.3106C50.6202 78.5306 50.4302 78.6806 50.1602 78.7006C49.8402 78.7206 49.4302 78.5506 48.9402 78.0206C48.8102 78.1006 48.6702 78.1306 48.5202 78.1206C48.4202 78.1206 48.3202 78.0806 48.2202 78.0406C48.1402 78.5106 48.0202 78.9406 47.8902 79.3606C47.7402 79.8206 47.5502 80.2706 47.3302 80.7406C47.7702 81.0306 48.0502 81.3706 48.2102 81.7106C48.3402 82.0006 48.3802 82.2906 48.3502 82.5906C48.3202 82.8806 48.2202 83.1606 48.0602 83.4306C47.7802 83.8906 47.3202 84.3006 46.7702 84.6006C47.1002 84.9506 47.3602 85.2806 47.5902 85.6506C47.8402 86.0506 48.0302 86.4906 48.2002 87.0106C48.2502 87.0406 48.3002 87.0606 48.3402 87.0806C48.7102 87.2606 49.0502 87.4306 49.4702 87.4006C50.7502 87.3106 51.4802 87.4806 51.8202 87.8006C52.0302 88.0006 52.0902 88.2306 52.0502 88.5006C52.0102 88.7306 51.8902 88.9806 51.6902 89.2206C51.3602 89.6306 50.8202 90.0406 50.2302 90.3306C50.2602 90.5406 50.2702 90.7506 50.2602 90.9806C50.2602 91.8806 50.0602 92.9006 49.7602 93.7306C49.4502 94.5906 49.0302 95.2406 48.6002 95.3906C48.3502 95.4706 48.1102 95.4106 47.9002 95.1606C47.8702 95.4706 47.8002 95.8206 47.7002 96.1406C47.5902 96.5006 47.4402 96.8506 47.2302 97.1006C47.0102 97.3806 46.7302 97.5406 46.3802 97.5206C46.3202 97.5206 46.2602 97.5106 46.2002 97.4906L46.2202 97.6606C46.3302 98.4006 46.4802 99.3806 46.4902 100.341C46.5102 101.671 46.2002 102.711 45.8302 103.191C45.6702 103.401 45.4902 103.521 45.3002 103.541C45.1002 103.551 44.9102 103.461 44.7602 103.221C44.5102 102.831 44.3502 102.001 44.4002 100.631C44.3302 100.661 44.2702 100.681 44.2002 100.691C44.1202 100.701 44.0402 100.691 43.9502 100.691C44.2202 102.091 43.7802 103.441 43.1702 104.201C42.9202 104.501 42.6502 104.721 42.3702 104.821C42.0602 104.931 41.7602 104.901 41.4902 104.701C41.1202 104.431 40.8202 103.831 40.7002 102.781C40.0502 103.381 39.4902 103.331 39.0702 102.971C38.7502 102.701 38.5302 102.231 38.4402 101.771C38.3502 101.301 38.3902 100.821 38.5902 100.541C38.7902 100.251 39.1202 100.151 39.5802 100.381C39.6202 100.071 39.6802 99.7606 39.7402 99.4506L39.7802 99.2506C39.6002 99.3806 39.4502 99.4106 39.3102 99.3606C39.0702 99.2906 38.9202 99.0106 38.8002 98.6806C38.7402 98.5206 38.7002 98.3806 38.6702 98.2606C38.6102 98.3706 38.5402 98.5006 38.4702 98.6306C38.0402 99.4106 37.6102 99.5706 37.1802 99.3406C36.4102 98.9106 35.7902 96.9306 35.2902 95.3406C35.1302 94.8406 34.9902 94.3906 34.8602 94.0306C34.8102 94.2106 34.7502 94.3706 34.6202 94.5406C35.5502 95.5606 35.9102 97.3306 35.7302 99.0106C35.6602 99.6706 35.5102 100.311 35.2802 100.881C35.0402 101.461 34.7302 101.981 34.3302 102.391C33.8702 102.861 33.3102 103.171 32.6402 103.241C32.8502 103.381 33.0302 103.541 33.2002 103.701C33.3702 103.861 33.5302 104.041 33.6802 104.231C33.7102 103.841 33.8602 103.621 34.1002 103.521C34.3702 103.411 34.7402 103.491 35.1802 103.691C35.1802 103.261 35.2702 102.951 35.4302 102.761C35.5902 102.571 35.8102 102.481 36.0602 102.481C36.2802 102.481 36.5302 102.561 36.7902 102.681C37.4202 103.001 38.1102 103.661 38.4702 104.351C38.6302 104.161 38.8302 103.971 39.0502 103.841C39.3202 103.681 39.6202 103.611 39.9102 103.731C41.0002 104.201 41.0902 105.091 40.7102 105.991C40.4502 106.591 39.9802 107.181 39.4502 107.641C38.9802 108.041 38.4602 108.341 38.0102 108.441C37.9802 108.661 37.9402 108.881 37.9002 109.101C37.7202 110.111 37.5502 111.081 38.0202 111.601C38.0402 111.421 38.1302 111.251 38.2602 111.091C38.4502 110.861 38.7302 110.681 39.0102 110.551C39.1102 110.501 38.9202 110.451 39.0102 110.411L33.8402 110.921V110.951ZM39.0102 110.721C38.9302 110.751 39.0302 110.791 38.9402 110.831C38.7002 110.941 38.6802 111.171 38.5302 111.351C38.4002 111.511 38.3402 111.691 38.4002 111.881C38.4002 111.901 38.4202 111.921 38.4202 111.941C38.4602 112.031 38.4202 112.141 38.3302 112.191C38.2802 112.211 38.2202 112.211 38.1802 112.191C37.0702 111.671 37.3002 110.391 37.5302 109.061C37.5702 108.871 37.6002 108.691 37.6302 108.501C37.1302 108.481 36.7702 108.161 36.7002 107.401C36.6502 106.861 36.8102 106.471 37.0202 106.281C37.1102 106.191 37.2202 106.141 37.3402 106.131C37.4602 106.121 37.5702 106.141 37.6802 106.211C37.8902 106.351 38.0602 106.681 38.0902 107.211C38.1102 107.491 38.0902 107.781 38.0602 108.071C38.4202 107.961 38.8302 107.711 39.2102 107.381C39.7002 106.961 40.1402 106.411 40.3702 105.871C40.6802 105.161 40.6002 104.461 39.7602 104.101C39.6002 104.031 39.4102 104.081 39.2302 104.181C38.9602 104.341 38.7102 104.611 38.5902 104.831C38.5402 104.921 38.4202 104.951 38.3402 104.901C38.3002 104.881 38.2702 104.841 38.2602 104.801C37.9902 104.091 37.2802 103.361 36.6202 103.031C36.4202 102.931 36.2202 102.861 36.0502 102.861C35.9102 102.861 35.7902 102.901 35.7102 103.001C35.5702 103.161 35.5102 103.481 35.5702 103.981C35.5802 104.081 35.5102 104.171 35.4102 104.191C35.3702 104.191 35.3302 104.191 35.2902 104.161C34.8202 103.911 34.4502 103.781 34.2402 103.871C34.0602 103.941 33.9902 104.231 34.0802 104.831C34.1002 104.931 34.0302 105.021 33.9302 105.041C33.8602 105.051 33.7802 105.021 33.7502 104.961C33.4902 104.561 33.2402 104.251 32.9502 103.981C32.6602 103.701 32.3302 103.471 31.9202 103.231C31.8302 103.181 31.8002 103.071 31.8502 102.981C31.8902 102.911 31.9602 102.881 32.0302 102.891C32.8602 102.981 33.5402 102.681 34.0702 102.141C34.4302 101.771 34.7202 101.301 34.9402 100.761C35.1602 100.211 35.3002 99.6106 35.3702 98.9906C35.5402 97.3506 35.1802 95.6206 34.2502 94.7006C34.1802 94.6306 34.1802 94.5106 34.2502 94.4406C34.4902 94.1706 34.5302 93.8806 34.5702 93.5206C34.5702 93.5006 34.5702 93.4806 34.5902 93.3706C34.6002 93.2706 34.7002 93.2006 34.8002 93.2106C34.8602 93.2106 34.9102 93.2506 34.9402 93.3006C35.1402 93.6406 35.3802 94.3806 35.6502 95.2406C36.1302 96.7706 36.7302 98.6706 37.3702 99.0306C37.5902 99.1606 37.8602 99.0206 38.1602 98.4706C38.2602 98.3006 38.3202 98.1806 38.3602 98.0906C38.5302 97.7806 38.6002 97.6406 38.7602 97.6606C38.9202 97.6806 38.9502 97.8006 38.9902 98.0106C39.0202 98.1506 39.0602 98.3406 39.1502 98.5806C39.2302 98.8206 39.3202 99.0006 39.4202 99.0306C39.5102 99.0606 39.6702 98.9406 39.9302 98.5806C39.9902 98.5006 40.1002 98.4806 40.1902 98.5406C40.2502 98.5806 40.2702 98.6506 40.2602 98.7206C40.2202 98.9906 40.1702 99.2606 40.1202 99.5406C40.0402 99.9406 39.9702 100.331 39.9202 100.731C39.9102 100.831 39.8202 100.901 39.7202 100.891C39.6802 100.891 39.6502 100.871 39.6302 100.851C39.2502 100.591 39.0202 100.611 38.9102 100.771C38.7702 100.971 38.7502 101.341 38.8202 101.721C38.9002 102.111 39.0702 102.491 39.3302 102.711C39.6502 102.981 40.1302 102.971 40.7302 102.261C40.8002 102.181 40.9102 102.171 40.9902 102.241C41.0302 102.281 41.0502 102.321 41.0502 102.371C41.1202 103.551 41.3902 104.191 41.7202 104.431C41.8802 104.551 42.0702 104.561 42.2602 104.491C42.4802 104.411 42.7002 104.241 42.9002 103.981C43.5002 103.231 43.9102 101.861 43.5402 100.481C43.5202 100.381 43.5702 100.281 43.6702 100.251C43.7102 100.241 43.7502 100.251 43.7802 100.251C43.9602 100.311 44.0702 100.351 44.1702 100.331C44.2702 100.321 44.3702 100.261 44.5102 100.141C44.5902 100.081 44.7102 100.091 44.7702 100.171C44.8002 100.211 44.8102 100.251 44.8102 100.301C44.7202 101.811 44.8602 102.671 45.0902 103.031C45.1602 103.141 45.2302 103.181 45.2902 103.181C45.3702 103.181 45.4602 103.101 45.5602 102.981C45.8902 102.551 46.1602 101.611 46.1502 100.361C46.1402 99.4306 45.9902 98.4606 45.8802 97.7306C45.8502 97.5606 45.8302 97.4106 45.8102 97.2306C45.8002 97.1306 45.8702 97.0406 45.9702 97.0206C46.0102 97.0206 46.0502 97.0206 46.0902 97.0406C46.2202 97.1106 46.3302 97.1506 46.4302 97.1606C46.6402 97.1706 46.8202 97.0606 46.9702 96.8806C47.1402 96.6706 47.2702 96.3706 47.3702 96.0406C47.5502 95.4406 47.6102 94.7806 47.5602 94.4506C47.5502 94.3506 47.6202 94.2606 47.7202 94.2406C47.8102 94.2306 47.9002 94.2806 47.9202 94.3706C48.1002 94.9206 48.3002 95.1006 48.4902 95.0406C48.8102 94.9306 49.1502 94.3606 49.4202 93.6006C49.7002 92.8106 49.9002 91.8406 49.9002 90.9806C49.9002 90.8106 49.9002 90.6506 49.8802 90.4906C49.5202 90.6306 49.1502 90.7306 48.7902 90.7506C48.0902 90.8006 47.6202 90.5506 47.4002 90.2106C47.3002 90.0606 47.2502 89.8906 47.2502 89.7206C47.2502 89.5506 47.2902 89.3806 47.3702 89.2206C47.5702 88.8606 48.0102 88.5706 48.6902 88.5706C49.5302 88.5706 49.9802 89.1406 50.1702 89.9606C50.6802 89.7006 51.1302 89.3506 51.4102 88.9906C51.5602 88.8006 51.6602 88.6106 51.6902 88.4406C51.7102 88.3006 51.6802 88.1706 51.5702 88.0706C51.3102 87.8206 50.6702 87.6806 49.5102 87.7706C48.9902 87.8106 48.6102 87.6206 48.1902 87.4206C48.1202 87.3906 48.0502 87.3506 47.9702 87.3206C47.9202 87.3006 47.8902 87.2506 47.8702 87.2106C47.7102 86.6806 47.5202 86.2506 47.2802 85.8606C47.0402 85.4606 46.7302 85.1006 46.3402 84.7006C46.2702 84.6306 46.2702 84.5106 46.3402 84.4406C46.3502 84.4206 46.3702 84.4106 46.3902 84.4006C46.9802 84.1306 47.4602 83.7306 47.7402 83.2606C47.8702 83.0406 47.9602 82.8106 47.9902 82.5706C48.0102 82.3406 47.9902 82.1106 47.8802 81.8806C47.7402 81.5606 47.4602 81.2606 47.0102 80.9806C46.9202 80.9306 46.8902 80.8206 46.9402 80.7306C47.1902 80.2206 47.3902 79.7406 47.5502 79.2506C47.7102 78.7606 47.8302 78.2606 47.9202 77.7006C47.9302 77.6006 48.0302 77.5306 48.1302 77.5506C48.1702 77.5506 48.2002 77.5806 48.2302 77.6006C48.2502 77.6106 48.2702 77.6306 48.2802 77.6406C48.3602 77.7006 48.4602 77.7406 48.5602 77.7506C48.6502 77.7506 48.7302 77.7406 48.7902 77.6706C48.8002 77.6706 48.8102 77.6506 48.8202 77.6406C48.8802 77.5606 49.0002 77.5406 49.0802 77.6106C49.1002 77.6106 49.1102 77.6306 49.1102 77.6406C49.5502 78.1706 49.9002 78.3506 50.1402 78.3306C50.2702 78.3306 50.3602 78.2406 50.4202 78.1306C50.4902 78.0006 50.5202 77.8306 50.4902 77.6506C50.4402 77.3606 50.2502 77.0706 49.8802 76.9806C49.8202 76.9606 49.7702 76.9206 49.7502 76.8606C49.5902 76.4006 49.3602 76.0406 49.0602 75.7406C48.7602 75.4306 48.3802 75.1706 47.9502 74.9206C47.8602 74.8706 47.8302 74.7606 47.8802 74.6706C47.8902 74.6506 47.9102 74.6306 47.9202 74.6206C48.3302 74.2706 48.5302 73.9906 48.5902 73.7806C48.6202 73.6706 48.6002 73.5906 48.5502 73.5306C48.4902 73.4506 48.3802 73.3906 48.2402 73.3506C47.8302 73.2306 47.2002 73.2606 46.5202 73.4406C46.4202 73.4706 46.3202 73.4006 46.3002 73.3106C46.2902 73.2706 46.3002 73.2206 46.3002 73.1806C46.5702 72.5106 46.6502 71.9606 46.5702 71.5506C46.5202 71.3006 46.4102 71.1106 46.2402 70.9906C46.0802 70.8606 45.8502 70.7906 45.5802 70.8006C45.1002 70.8006 44.4902 71.0306 43.7702 71.5106C43.6902 71.5706 43.5702 71.5406 43.5102 71.4606C43.4802 71.4106 43.4702 71.3506 43.4902 71.3006C43.7302 70.2906 43.6802 69.4106 43.4202 68.8006C43.2802 68.4906 43.0902 68.2506 42.8502 68.1106C42.6102 67.9706 42.3302 67.9206 42.0102 67.9806C41.4802 68.0806 40.8502 68.4606 40.1702 69.2306C40.1302 69.2706 40.0802 69.2906 40.0302 69.2906C40.3202 69.3606 40.6402 69.3806 40.9902 69.3406C41.0402 69.3406 41.0802 69.3406 41.1202 69.3806C41.2002 69.4406 41.2202 69.5506 41.1602 69.6406C40.5102 70.5206 40.1002 71.4106 39.8602 72.3306C39.6202 73.2606 39.5502 74.2206 39.5702 75.2306C39.5902 76.2206 39.5902 76.8206 39.4502 76.9306C39.2202 77.1306 38.9802 76.6606 38.6602 75.3906C38.5802 75.0706 38.5202 74.7506 38.4802 74.4206C38.4402 74.0906 38.4302 73.7506 38.4302 73.3906C38.4702 70.5106 37.7002 69.2906 37.0202 68.2106C36.7902 67.8506 36.5802 67.5106 36.4002 67.1206C36.2602 66.8306 36.1702 66.5606 36.1102 66.3306C35.9102 66.2306 35.7102 66.1706 35.5402 66.1506C35.2902 66.1206 35.0702 66.1706 34.8902 66.2706C34.7002 66.3806 34.5502 66.5406 34.4502 66.7406C34.2902 67.0406 34.2302 67.4406 34.3002 67.8806L34.3202 67.8606C34.5402 67.7306 34.7502 67.6906 34.9302 67.7406C35.0702 67.7906 35.1902 67.8906 35.2702 68.0506C35.4902 68.5106 35.4902 68.9306 35.3702 69.1806C35.3202 69.3006 35.2302 69.3906 35.1302 69.4406C35.0202 69.4906 34.9002 69.5006 34.7702 69.4406C34.5502 69.3606 34.3002 69.0806 34.1002 68.5406V68.5206C34.1002 68.5206 34.0402 68.5706 34.0202 68.6006C33.5102 69.2106 33.0402 70.2606 33.0702 71.4106C33.0702 71.5106 32.9902 71.5906 32.8902 71.6006C32.8202 71.6006 32.7602 71.5606 32.7302 71.5106C32.4902 71.1106 32.2702 70.7906 32.0402 70.6806C31.8502 70.5906 31.6102 70.6606 31.2902 71.0006C31.2402 71.0606 31.1502 71.0706 31.0802 71.0406C30.0502 70.6106 29.3102 70.7706 28.8602 71.1806C28.5302 71.4806 28.3502 71.9106 28.3302 72.3506C28.3102 72.7806 28.4402 73.2106 28.7302 73.5006C28.8002 73.5706 28.8702 73.6306 28.9502 73.6806C29.3702 73.4206 29.9002 73.2006 30.5302 73.0306C31.2902 72.8206 31.7302 72.7606 31.9402 72.7906C32.1602 72.8206 32.2402 72.9206 32.2302 73.0806C32.2202 73.1806 32.1502 73.2806 32.0402 73.3806C31.7902 73.6006 31.2402 73.9106 30.7702 74.0706C30.0202 74.3306 29.4202 74.3106 28.9702 74.1106C28.2702 74.5806 27.9002 75.1606 27.7902 75.7506C27.6202 76.6306 28.0002 77.5406 28.6402 78.1906C28.9702 78.5306 29.3702 78.7906 29.8002 78.9406C29.6702 78.7306 29.4902 78.4906 29.2602 78.2206C29.2302 78.1806 29.2202 78.1406 29.2202 78.0906C29.2202 77.9906 29.3102 77.9106 29.4202 77.9206C30.4302 77.9806 31.0802 76.6806 31.5502 75.7306C31.6202 75.5906 31.6902 75.4506 31.7702 75.3006C31.8002 75.2306 31.8702 75.1906 31.9502 75.2006C32.0502 75.2006 32.1302 75.2906 32.1202 75.3906C32.0602 76.3206 32.2302 77.2006 32.6302 77.9406C33.0002 77.4506 33.3202 76.7806 33.5602 75.9006C33.5902 75.8006 33.6902 75.7506 33.7902 75.7706C33.8402 75.7906 33.8902 75.8206 33.9102 75.8706C34.1502 76.4006 34.4902 76.6706 34.8502 76.7406C35.1002 76.7906 35.3602 76.7406 35.6102 76.6406C35.8802 76.5206 36.1302 76.3306 36.3602 76.0906C36.5702 75.8606 36.7602 75.5806 36.8902 75.2706C36.7402 74.7606 36.5702 74.2506 36.4102 73.7706C36.0002 72.5406 35.8702 71.8106 35.9202 71.4606C35.9502 71.2106 36.0602 71.0906 36.2302 71.0806C36.3602 71.0806 36.5002 71.1606 36.6402 71.3206C36.9302 71.6606 37.3002 72.4306 37.4702 73.3606C37.6002 74.0506 37.5102 74.7106 37.2802 75.2806C37.6102 76.3906 37.8702 77.5106 37.8502 78.4106C37.8102 79.8606 37.1002 80.7406 34.9602 80.1606C33.9102 79.8706 33.1202 79.3006 32.5802 78.5506C32.1302 79.0206 31.6402 79.2806 31.1302 79.3906C30.9002 79.4406 30.6602 79.4506 30.4302 79.4406C30.5702 79.9306 30.4302 80.2906 30.0902 80.5706C29.6202 80.9606 28.7702 81.1606 27.7902 81.4006C25.5202 81.9306 22.5302 82.6406 22.6202 86.2706C22.6402 87.1806 23.3202 87.8406 24.1902 88.1806C24.5902 88.3406 25.0202 88.4306 25.4502 88.4606C25.8802 88.4806 26.3002 88.4406 26.6802 88.3206C27.0102 88.2206 27.3102 88.0506 27.5302 87.8306C27.3302 87.6706 27.1402 87.4806 26.9702 87.2706C26.5102 86.7106 26.4402 86.2506 26.5502 85.9206C26.6402 85.6606 26.8502 85.4906 27.0902 85.4306C27.3202 85.3706 27.6002 85.4106 27.8302 85.5606C28.1602 85.7706 28.4102 86.2206 28.3402 86.9206C28.3102 87.2406 28.2102 87.5206 28.0602 87.7606C28.7402 88.2006 29.5302 88.3706 30.2902 88.3306C30.8402 88.3006 31.3702 88.1706 31.8202 87.9406C32.2702 87.7306 32.6402 87.4306 32.8802 87.0806C32.9402 86.9906 33.0002 86.9006 33.0402 86.8006L32.9402 86.6806C32.8202 86.5306 32.7002 86.3706 32.5902 86.2406C32.1802 85.7106 32.0602 85.1806 32.1202 84.8506C32.1502 84.6906 32.2102 84.5606 32.3202 84.4806C32.4402 84.3906 32.5802 84.3806 32.7402 84.4606C32.9502 84.5706 33.2002 84.8806 33.4202 85.4906C33.5802 85.9306 33.5802 86.3606 33.4602 86.7406C34.2102 87.7006 34.9102 88.6406 35.1302 89.6406C35.7402 89.3306 36.3102 88.8806 36.7702 88.3306C37.3102 87.6706 37.6902 86.8606 37.8202 85.9506C37.2202 85.5806 36.7702 85.0606 36.5102 84.3506C36.1702 83.4406 36.1402 82.6706 36.2802 82.2606C36.3402 82.0806 36.4402 81.9406 36.5702 81.8806C36.7102 81.8106 36.8802 81.8306 37.0502 81.9406C37.0502 81.9406 37.0502 81.9406 37.0602 81.9506C37.3402 82.1506 37.6602 82.6706 37.9602 83.6106C38.1802 84.3006 38.2602 84.9706 38.2202 85.6006C38.2202 85.6506 38.2202 85.7006 38.2102 85.7506C38.3902 85.8406 38.5802 85.9306 38.7802 86.0006C39.8602 86.3706 41.2502 86.3806 42.7402 86.1806C42.8202 86.1706 42.9002 86.2106 42.9302 86.2906C42.9702 86.3806 42.9302 86.4906 42.8302 86.5306C41.3702 87.1606 40.0302 87.8306 38.9902 88.7606C37.9702 89.6806 37.2502 90.8606 37.0302 92.5206C37.0302 92.5506 37.0102 92.5906 36.9902 92.6206C36.9302 92.7006 36.8102 92.7106 36.7302 92.6506C36.4002 92.3906 35.9502 92.3206 35.4802 92.3606C34.8602 92.4106 34.2202 92.6606 33.7902 92.9306C33.7202 92.9806 33.6102 92.9706 33.5502 92.9006C33.4802 92.8306 33.4802 92.7106 33.5502 92.6406C34.4802 91.7806 34.8102 90.9706 34.7802 90.1906C34.7202 90.2106 34.6502 90.2406 34.5902 90.2606C34.1402 90.4006 33.6902 90.4706 33.2302 90.4706C33.1402 91.1906 32.9702 91.7106 32.7502 92.0506C32.4802 92.4606 32.1402 92.6406 31.7502 92.6506C31.3802 92.6606 30.9802 92.5106 30.5802 92.2706C29.8102 91.8006 29.0002 90.9506 28.3602 90.1406C28.0002 90.5806 27.4702 90.8906 26.9002 91.0206C26.3102 91.1606 25.6702 91.1006 25.1302 90.7906L24.4302 92.1106C24.3902 92.1806 24.3102 92.2206 24.2402 92.2106C22.3302 91.9306 21.2202 92.3106 20.6902 92.9306C20.4902 93.1706 20.3702 93.4406 20.3302 93.7306C20.2802 94.0206 20.3102 94.3206 20.4002 94.6106C20.6302 95.3406 21.2402 95.9806 22.0202 96.1106C22.1202 96.1306 22.1902 96.2206 22.1702 96.3206C22.1702 96.3606 22.1402 96.4006 22.1102 96.4306C20.9902 97.5406 20.6702 98.4606 20.8302 99.1406C20.8502 99.2206 20.8702 99.2906 20.9002 99.3606C21.1902 99.1106 21.5502 98.9406 21.9302 98.8806C22.6702 98.7606 23.5202 99.0506 24.3102 99.9906C24.7402 99.7806 25.1402 99.4706 25.4902 99.0506C24.9202 98.3306 24.6902 97.3706 25.1102 96.3206C25.4202 95.5606 25.7402 95.1006 26.0202 94.9206C26.1802 94.8206 26.3402 94.7906 26.4802 94.8306C26.6202 94.8806 26.7302 94.9906 26.8102 95.1706C26.9502 95.5106 26.9802 96.1306 26.8102 97.0106C26.6502 97.8406 26.3602 98.5106 25.9702 99.0506C26.0102 99.0906 26.0502 99.1306 26.1002 99.1706C26.5502 99.5806 27.1302 99.8606 27.7302 99.9706C28.3302 100.071 28.9502 100.001 29.4802 99.7106C30.0902 99.3706 30.5902 98.7206 30.8102 97.6906C30.4902 97.2806 30.3002 96.7806 30.2202 96.2106C30.1202 95.5306 30.2002 95.0506 30.3302 94.8106C30.4102 94.6806 30.5102 94.6006 30.6202 94.5806C30.7402 94.5606 30.8602 94.6106 30.9602 94.7306C31.1202 94.9206 31.2602 95.3506 31.2902 96.0306C31.3202 96.6106 31.2902 97.1306 31.2002 97.5806C31.2402 97.6206 31.2702 97.6606 31.3102 97.7006C31.7202 98.1106 32.3102 98.4106 33.1002 98.5806C33.2002 98.6006 33.2602 98.7006 33.2402 98.8006C33.2402 98.8306 33.2202 98.8606 33.2002 98.8806C32.8402 99.3406 32.6202 99.7106 32.5002 100.111C32.3802 100.511 32.3602 100.951 32.3902 101.551C32.3902 101.651 32.3202 101.741 32.2202 101.741C32.1702 101.741 32.1202 101.721 32.0902 101.691C31.5902 101.271 31.0802 101.031 30.6102 100.961C30.3402 100.921 30.0802 100.951 29.8502 101.031C29.6202 101.111 29.4102 101.261 29.2302 101.471C28.9602 101.791 28.7602 102.271 28.6702 102.891C28.6602 102.991 28.5602 103.061 28.4602 103.051C28.4102 103.051 28.3702 103.021 28.3402 102.981C27.8202 102.331 27.1102 102.091 26.4002 101.851C25.6102 101.591 24.8202 101.321 24.2502 100.531C24.2302 100.501 24.2002 100.471 24.1802 100.441C24.0202 100.501 23.8602 100.561 23.6902 100.601C22.9602 100.791 22.2302 100.741 21.6402 100.511C21.3102 100.381 21.0302 100.191 20.8202 99.9406C20.6302 100.181 20.4902 100.471 20.4202 100.781C20.2502 101.521 20.4702 102.371 21.3202 103.011C21.4002 103.071 21.4202 103.191 21.3602 103.271C21.3502 103.291 21.3402 103.301 21.3202 103.311C20.6202 103.831 20.3302 104.371 20.3102 104.861C20.3102 105.171 20.4002 105.461 20.5902 105.721C20.7802 105.981 21.0502 106.221 21.3802 106.401C22.2002 106.861 23.3302 107.001 24.3302 106.601C24.4202 106.561 24.5302 106.601 24.5702 106.701C24.7502 107.101 24.9502 107.381 25.1602 107.551C25.4002 107.751 25.6602 107.811 25.9202 107.761C26.2002 107.711 26.4902 107.541 26.7602 107.301C26.9802 107.111 27.1902 106.871 27.3802 106.611C27.2502 106.391 27.1402 106.121 27.0602 105.831C26.9502 105.391 27.3302 104.791 27.7102 104.451C27.8702 104.311 28.0502 104.211 28.1902 104.181C28.4102 104.131 28.5802 104.211 28.6302 104.461C28.6802 104.681 28.6002 105.081 28.3002 105.731C28.1602 106.031 28.0002 106.331 27.8102 106.611C27.9502 106.801 28.1202 106.951 28.3102 107.071C28.5702 107.231 28.8702 107.331 29.1902 107.371C29.5102 107.411 29.8502 107.381 30.1902 107.301C31.0002 107.091 31.8002 106.551 32.3202 105.731C32.3802 105.641 32.4902 105.621 32.5702 105.671C32.6002 105.691 32.6202 105.711 32.6402 105.741C32.8602 106.171 33.1402 106.601 33.5002 106.851C33.8302 107.081 34.2402 107.151 34.7302 106.911C34.8202 106.871 34.9302 106.911 34.9702 106.991C34.9702 107.011 34.9802 107.021 34.9902 107.041C35.1602 107.781 35.1702 108.421 35.0702 108.971C34.9402 109.661 34.6302 110.211 34.1902 110.631L34.1602 110.651M37.6202 108.131C37.6602 107.821 37.6802 107.511 37.6602 107.231C37.6302 106.831 37.5302 106.601 37.4102 106.521C37.3802 106.501 37.3502 106.491 37.3202 106.491C37.2802 106.491 37.2502 106.511 37.2102 106.551C37.0702 106.681 36.9802 106.961 37.0102 107.371C37.0602 107.901 37.2902 108.121 37.6202 108.131ZM38.6402 98.0206C38.6402 98.0206 38.6102 98.0206 38.6102 98.0406C38.6602 98.0406 38.7002 98.0306 38.6402 98.0206ZM40.9502 102.351L49.7102 90.1206L40.9502 102.351ZM49.7102 90.1206C49.5702 89.4306 49.2202 88.9406 48.5702 88.9406C48.0502 88.9406 47.7202 89.1406 47.5702 89.4006C47.5102 89.5006 47.4902 89.6106 47.4902 89.7206C47.4902 89.8206 47.5202 89.9306 47.5802 90.0206C47.7402 90.2606 48.0902 90.4306 48.6402 90.3906C48.9902 90.3606 49.3502 90.2706 49.7002 90.1206H49.7102ZM39.8602 69.2706C39.8602 69.2706 39.8402 69.2606 39.8302 69.2506C39.8002 69.2206 39.7802 69.1906 39.7702 69.1606L39.7302 68.9806C39.5802 68.3806 39.4502 67.8106 38.7302 67.7606C38.6302 67.7606 38.5502 67.6706 38.5602 67.5706C38.5602 67.5406 38.5602 67.5206 38.5802 67.5006C38.7602 67.0706 38.7602 66.7206 38.6502 66.4506C38.5202 66.1306 38.2302 65.8906 37.8402 65.7106C37.3502 65.4906 36.9802 65.3906 36.7202 65.4006C36.5802 65.4006 36.4702 65.4406 36.4102 65.5106C36.3502 65.5806 36.3102 65.6906 36.3102 65.8306C36.3102 65.9106 36.3102 66.0006 36.3402 66.1006C36.7102 66.3206 37.1002 66.6706 37.4902 67.1706L37.5302 67.2206C38.2202 68.1206 38.9102 69.0006 39.8702 69.2806L39.8602 69.2706ZM36.5102 66.6706C36.5502 66.7706 36.5902 66.8706 36.6402 66.9706C36.8102 67.3306 37.0202 67.6706 37.2402 68.0206C37.9502 69.1506 38.7502 70.4106 38.7102 73.4006C38.7102 73.7406 38.7102 74.0606 38.7602 74.3806C38.8002 74.7006 38.8502 75.0006 38.9302 75.3006C39.1602 76.1706 39.0402 76.7206 39.1302 76.6506C39.1402 76.6406 39.1302 76.1206 39.1202 75.2406C39.1002 74.2006 39.1702 73.2106 39.4302 72.2406C39.6502 71.3906 40.0102 70.5606 40.5602 69.7406C39.0302 69.7606 38.1402 68.6106 37.2302 67.4306L37.1902 67.3806C36.9602 67.0806 36.7302 66.8506 36.5102 66.6606V66.6706ZM34.2802 68.2806C34.3002 68.3406 34.3202 68.3906 34.3402 68.4506C34.5002 68.8806 34.6602 69.0806 34.8002 69.1306C34.8302 69.1406 34.8502 69.1406 34.8702 69.1306C34.8902 69.1206 34.9202 69.0906 34.9402 69.0506C35.0202 68.8806 35.0102 68.5806 34.8402 68.2306C34.8102 68.1606 34.7702 68.1206 34.7202 68.1106C34.6402 68.0906 34.5302 68.1106 34.4102 68.1906C34.3702 68.2106 34.3302 68.2406 34.2902 68.2706L34.2802 68.2806ZM29.3002 73.8806C29.6302 73.9506 30.0502 73.9106 30.5502 73.7406C30.9502 73.6006 31.4002 73.3606 31.6402 73.1706C31.4302 73.1906 31.0702 73.2606 30.5302 73.4106C30.0502 73.5406 29.6402 73.7006 29.2902 73.8806H29.3002ZM30.2002 79.0906C30.4602 79.1206 30.7102 79.1206 30.9702 79.0606C31.4202 78.9606 31.8802 78.7106 32.2902 78.2706C31.9302 77.6506 31.7202 76.9406 31.6602 76.1806C31.2102 77.0606 30.6102 78.1106 29.6802 78.2906C29.9102 78.5806 30.0802 78.8506 30.2002 79.0906ZM33.7002 76.4506C33.4402 77.2406 33.1102 77.8506 32.7402 78.3106C33.2302 79.0306 33.9802 79.5806 34.9702 79.8506C36.7702 80.3406 37.3702 79.6306 37.3902 78.4506C37.4102 77.7006 37.2202 76.7706 36.9502 75.8206C36.8302 76.0206 36.6902 76.2106 36.5402 76.3806C36.2802 76.6606 35.9802 76.8806 35.6702 77.0206C35.3502 77.1606 35.0102 77.2106 34.6902 77.1506C34.3202 77.0806 33.9802 76.8606 33.7002 76.4606V76.4506ZM37.0002 74.7006C37.0802 74.3106 37.1002 73.9006 37.0202 73.4706C36.8602 72.6106 36.5302 71.9106 36.2702 71.6006C36.2102 71.5306 36.1702 71.4806 36.1502 71.4806C36.1202 71.4806 36.1902 71.5006 36.1902 71.5406C36.1502 71.8406 36.2702 72.5106 36.6702 73.6906C36.7802 74.0206 36.8902 74.3606 37.0002 74.7006ZM27.6902 87.5806C27.8002 87.3906 27.8802 87.1706 27.9002 86.9206C27.9502 86.3806 27.7802 86.0506 27.5602 85.9006C27.4202 85.8106 27.2602 85.7906 27.1102 85.8206C26.9802 85.8606 26.8702 85.9506 26.8202 86.0806C26.7502 86.3006 26.8202 86.6306 27.1802 87.0806C27.3302 87.2706 27.5002 87.4306 27.6802 87.5806H27.6902ZM33.1002 86.4106C33.1302 86.1706 33.1002 85.9206 33.0102 85.6606C32.8202 85.1506 32.6502 84.9006 32.5102 84.8306C32.4902 84.8206 32.4802 84.8206 32.4802 84.8206C32.4602 84.8406 32.4402 84.8806 32.4302 84.9506C32.3902 85.2006 32.4902 85.6206 32.8302 86.0606C32.9302 86.1906 33.0202 86.3006 33.1102 86.4106H33.1002ZM35.1302 90.0606C35.1902 90.7606 35.0002 91.4806 34.4002 92.2406C34.7202 92.1306 35.0602 92.0506 35.3902 92.0206C35.8402 91.9806 36.2802 92.0406 36.6502 92.2306C36.9302 90.6106 37.6702 89.4406 38.6902 88.5206C39.5102 87.7806 40.5102 87.2006 41.6002 86.6806C40.4902 86.7506 39.4502 86.6606 38.6002 86.3706C38.4302 86.3106 38.2602 86.2406 38.1002 86.1606C37.9402 87.0806 37.5402 87.9106 36.9902 88.5806C36.4702 89.2106 35.8302 89.7106 35.1302 90.0406V90.0606ZM36.7902 84.2606C37.0002 84.8206 37.3402 85.2506 37.7902 85.5706C37.8202 85.0006 37.7502 84.3806 37.5502 83.7606C37.2802 82.9006 37.0102 82.4506 36.7902 82.2906C36.7402 82.2506 36.7002 82.2406 36.6802 82.2506C36.6402 82.2706 36.6102 82.3206 36.5802 82.4106C36.4602 82.7506 36.5002 83.4206 36.8102 84.2506L36.7902 84.2606ZM21.0502 99.6906C21.2302 99.9006 21.4702 100.071 21.7602 100.181C22.2802 100.391 22.9202 100.421 23.5802 100.251C23.6902 100.221 23.8002 100.191 23.9102 100.151C23.2402 99.3906 22.5402 99.1606 21.9402 99.2506C21.6102 99.3006 21.3002 99.4606 21.0502 99.6806V99.6906ZM25.6702 98.7606C26.0002 98.2706 26.2502 97.6706 26.3902 96.9406C26.5402 96.1406 26.5302 95.5906 26.4102 95.3206C26.3802 95.2506 26.3402 95.2006 26.3102 95.1906C26.2802 95.1906 26.2302 95.1906 26.1702 95.2406C25.9502 95.3806 25.6802 95.7906 25.4002 96.4706C25.0502 97.3406 25.2202 98.1406 25.6702 98.7606ZM25.6902 99.3406C25.3302 99.7506 24.9302 100.071 24.4902 100.291L24.5102 100.321C25.0102 101.021 25.7402 101.271 26.4702 101.511C27.1202 101.731 27.7802 101.951 28.3202 102.471C28.4402 101.951 28.6402 101.541 28.8902 101.241C29.1102 100.981 29.3702 100.791 29.6602 100.691C29.9502 100.581 30.2702 100.551 30.6002 100.601C31.0402 100.661 31.5002 100.851 31.9502 101.171C31.9502 100.731 31.9802 100.361 32.0802 100.011C32.1902 99.6306 32.3702 99.2806 32.6702 98.8706C31.9702 98.6806 31.4302 98.4006 31.0302 98.0106C30.7602 99.0106 30.2202 99.6606 29.5802 100.021C28.9702 100.361 28.2602 100.441 27.5902 100.321C26.9202 100.201 26.2702 99.8906 25.7702 99.4306C25.7302 99.3906 25.7002 99.3606 25.6702 99.3306L25.6902 99.3406ZM30.8402 97.1506C30.8802 96.8206 30.8902 96.4606 30.8702 96.0606C30.8402 95.4606 30.7402 95.1206 30.6302 94.9806C30.6202 94.9606 30.6302 94.9506 30.6302 94.9506C30.6302 94.9506 30.6302 94.9706 30.6102 94.9906C30.5102 95.1706 30.4602 95.5706 30.5402 96.1606C30.5902 96.5206 30.6902 96.8606 30.8502 97.1506H30.8402ZM27.5902 106.281C27.7302 106.061 27.8502 105.831 27.9602 105.591C28.2202 105.021 28.2902 104.701 28.2602 104.551C28.2602 104.551 28.2602 104.551 28.2502 104.551C28.1702 104.571 28.0602 104.641 27.9402 104.741C27.6402 105.011 27.3302 105.461 27.4002 105.751C27.4502 105.941 27.5102 106.121 27.5902 106.281ZM32.4702 111.121C32.7502 111.051 33.0202 110.971 33.2602 110.851C31.5702 110.451 29.7602 110.281 27.7702 110.391C28.6702 110.721 29.5302 110.991 30.3402 111.141C31.0802 111.271 31.8102 111.281 32.4702 111.141V111.121ZM26.1702 110.151C25.6402 109.931 25.1002 109.701 24.5602 109.471C20.9902 107.941 17.0202 106.241 12.9502 106.771C6.92018 107.571 2.92018 108.221 1.17018 108.631C0.59018 108.761 0.300181 108.821 0.300181 108.821C0.300181 108.881 0.570181 108.731 1.10018 108.731C2.75018 108.711 6.55018 108.411 12.6602 107.731C13.6202 107.631 14.6902 107.601 15.7502 107.661C17.2502 107.751 18.7302 108.031 19.8702 108.531C21.0502 109.041 21.8702 109.801 21.9802 110.831C21.9802 110.881 21.9802 110.931 21.9902 110.971C23.4502 110.581 24.8402 110.301 26.1602 110.151H26.1702Z" fill="#194A88"/>
<g opacity="0.65">
<mask id="mask0_21_307" style="mask-type:luminance" maskUnits="userSpaceOnUse" x="20" y="19" width="32" height="14">
<path d="M51.9298 19.3594H20.8198V32.2294H51.9298V19.3594Z" fill="white"/>
</mask>
<g mask="url(#mask0_21_307)">
<path d="M30.4196 20.7303C30.0796 20.9303 29.7296 21.1603 29.5596 21.5303C29.3496 22.0003 29.4996 22.5403 29.4696 23.0503C29.3896 24.3703 28.0996 25.3103 26.8296 25.7003C25.5596 26.0903 24.1896 26.1303 22.9696 26.6703C21.7596 27.2203 20.7196 28.5503 21.1496 29.8103C21.6096 31.1503 23.2996 31.5003 24.6996 31.6103C32.3796 32.2403 40.1296 32.0903 47.7796 31.1603C48.8596 31.0303 49.9996 30.8503 50.8296 30.1603C51.6596 29.4603 51.9996 28.0603 51.2296 27.3003C50.7396 26.8203 49.9996 26.7303 49.3496 26.5103C48.6996 26.2903 48.0196 25.7303 48.1496 25.0603C48.2296 24.6303 48.6196 24.3203 48.8696 23.9603C52.6796 18.2703 32.8996 19.3303 30.4096 20.7403L30.4196 20.7303Z" stroke="#194A88" stroke-width="0.5" stroke-miterlimit="10"/>
</g>
</g>
<g opacity="0.65">
<mask id="mask1_21_307" style="mask-type:luminance" maskUnits="userSpaceOnUse" x="13" y="40" width="21" height="10">
<path d="M33.0398 40.9609H13.0498V49.3309H33.0398V40.9609Z" fill="white"/>
</mask>
<g mask="url(#mask1_21_307)">
<path d="M26.8399 41.9107C27.0599 42.0407 27.2799 42.1907 27.3899 42.4207C27.5199 42.7207 27.4299 43.0607 27.4499 43.3907C27.4999 44.2307 28.3199 44.8307 29.1299 45.0807C29.9399 45.3207 30.8199 45.3507 31.5899 45.7007C32.3599 46.0507 33.0199 46.9007 32.7499 47.7007C32.4599 48.5507 31.3799 48.7807 30.4899 48.8507C25.5999 49.2507 20.6599 49.1607 15.7799 48.5607C15.0899 48.4807 14.3699 48.3607 13.8299 47.9207C13.2999 47.4807 13.0799 46.5807 13.5699 46.0907C13.8799 45.7807 14.3499 45.7307 14.7699 45.5907C15.1799 45.4507 15.6199 45.1007 15.5399 44.6607C15.4899 44.3807 15.2399 44.1907 15.0799 43.9607C12.6499 40.3407 25.2599 41.0107 26.8399 41.9107Z" stroke="#194A88" stroke-width="0.48" stroke-miterlimit="10"/>
</g>
</g>
<g opacity="0.65">
<mask id="mask2_21_307" style="mask-type:luminance" maskUnits="userSpaceOnUse" x="78" y="22" width="19" height="9">
<path d="M96.0502 22.6094H78.6602V30.8694H96.0502V22.6094Z" fill="white"/>
</mask>
<g mask="url(#mask2_21_307)">
<path d="M78.8804 23.0098C78.9904 23.3498 79.1604 23.6698 79.4004 23.9398C79.5604 23.7798 79.7304 23.6198 79.9004 23.4698" stroke="#194A88" stroke-width="0.48" stroke-miterlimit="10"/>
<path d="M83.0405 22.8301C83.3005 22.9301 83.4805 23.1901 83.4805 23.4701C83.7205 23.2601 83.9605 23.0501 84.2005 22.8401" stroke="#194A88" stroke-width="0.48" stroke-miterlimit="10"/>
<path d="M86.1401 23.0098C86.6101 23.1798 87.0101 23.5098 87.2601 23.9398C87.4801 23.4598 87.9901 23.1298 88.5201 23.1098" stroke="#194A88" stroke-width="0.48" stroke-miterlimit="10"/>
<path d="M91.0703 23.1699C91.2803 23.3399 91.4603 23.5399 91.6003 23.7599C91.8803 23.5699 92.1503 23.3799 92.4203 23.1899" stroke="#194A88" stroke-width="0.48" stroke-miterlimit="10"/>
<path d="M84.7603 25.0497C84.9503 25.1897 85.1403 25.3197 85.3303 25.4597C85.3703 25.4897 85.4102 25.5197 85.4502 25.5197C85.5002 25.5197 85.5403 25.4997 85.5703 25.4697C85.8603 25.2897 86.1403 25.1097 86.4303 24.9297" stroke="#194A88" stroke-width="0.48" stroke-miterlimit="10"/>
<path d="M80.6904 25.2607C81.0804 25.2307 81.4704 25.3707 81.7504 25.6407C81.8004 25.6907 81.8504 25.7507 81.9204 25.7507C81.9704 25.7507 82.0104 25.7207 82.0504 25.6907C82.2504 25.5407 82.4504 25.3807 82.6504 25.2207" stroke="#194A88" stroke-width="0.48" stroke-miterlimit="10"/>
<path d="M84.0005 27.7392C84.4105 27.7492 84.8105 27.9492 85.0705 28.2692C85.0705 28.0792 85.0705 27.8792 85.1505 27.6992C85.2305 27.5192 85.4005 27.3792 85.6005 27.3892" stroke="#194A88" stroke-width="0.48" stroke-miterlimit="10"/>
<path d="M94.3403 23.4609C94.6303 23.7509 94.9103 24.0609 95.1603 24.3909C95.3203 24.0509 95.6003 23.7609 95.9503 23.6009" stroke="#194A88" stroke-width="0.48" stroke-miterlimit="10"/>
<path d="M88.3003 24.9004C88.6503 24.9304 88.9803 25.2004 89.0803 25.5404C89.2703 25.4704 89.4503 25.3704 89.6203 25.2704" stroke="#194A88" stroke-width="0.48" stroke-miterlimit="10"/>
<path d="M88.1704 27.4004C88.5604 27.7204 88.9804 28.0004 89.4204 28.2504C89.4604 28.0204 89.5804 27.8104 89.7604 27.6604" stroke="#194A88" stroke-width="0.48" stroke-miterlimit="10"/>
<path d="M91.3506 25.3203C91.7406 25.6403 92.1606 25.9303 92.6006 26.1703C92.6406 25.9403 92.7606 25.7303 92.9406 25.5803" stroke="#194A88" stroke-width="0.48" stroke-miterlimit="10"/>
<path d="M86.8203 29.3406C87.1103 29.4006 87.3903 29.5506 87.5803 29.7806C87.5003 29.5406 87.6203 29.2506 87.8403 29.1406" stroke="#194A88" stroke-width="0.48" stroke-miterlimit="10"/>
</g>
</g>
<path d="M192.23 97.93C192.07 99.01 191.66 100.05 191.03 100.94C190.75 101.33 190.43 101.7 190 101.91C189.56 102.13 189.05 102.16 188.56 102.17C186.5 102.25 184.44 102.22 182.38 102.08C181.65 102.03 180.89 101.96 180.25 101.6C179.58 101.23 179.11 100.58 178.74 99.91C178.25 99.04 177.89 98.1 177.65 97.14C177.28 95.57 177.26 93.95 177.24 92.34C177.2 88.21 177.85 84.87 178.26 80.76C178.33 80.11 182.37 81.07 182.87 80.65C183.17 80.4 183.82 77.3 186.08 77.29C186.94 77.29 187.89 77.31 188.54 77.87C189.02 78.28 189.26 78.91 189.45 79.51C190.44 82.51 191.06 85.63 191.29 88.77C191.49 91.51 191.34 94.46 189.77 96.71C189.71 96.79 189.65 96.87 189.56 96.9C189.46 96.92 189.36 96.89 189.27 96.84C188.23 96.32 187.54 95.25 187.21 94.13C186.88 93.01 186.88 91.83 186.89 90.66C186.93 87.7 187.13 84.66 188.3 81.94C188.74 80.92 189.59 79.82 190.68 80C191.83 80.19 192.23 81.61 192.37 82.76C192.81 86.28 193.05 89.82 193.09 93.36C193.1 94.47 193.09 95.6 192.78 96.67C192.6 97.27 192.33 97.84 192.06 98.41C191.88 98.79 191.7 99.17 191.41 99.46C190.78 100.09 189.8 100.17 188.9 100.18C188.1 100.18 187.28 100.16 186.55 99.84C185.6 99.42 184.93 98.56 184.42 97.66C182.21 93.78 182.38 89.03 182.75 84.58C182.9 82.78 183.08 80.94 183.9 79.33C184.72 77.72 186.31 76.38 188.12 76.4C189.24 76.41 190.28 76.93 191.23 77.51C192.95 78.57 194.49 79.9 194.75 81.91C196.5 82.03 198.25 82.15 199.99 82.27C204.67 82.6 209.35 82.92 213.99 83.58C214.81 83.7 215.65 83.84 216.34 84.28C217.02 84.71 217.65 85.43 218.43 85.29C219.42 85.1 219.65 83.72 220.51 83.21C221.03 82.9 221.71 82.97 222.23 83.28C222.75 83.59 223.11 84.11 223.36 84.66C223.87 85.81 223.91 87.1 223.94 88.35C223.98 90.2 224.02 92.07 223.63 93.88C223.51 94.42 223.34 94.97 222.96 95.37C222.58 95.77 221.92 95.94 221.46 95.64C221.15 95.44 221 95.07 220.87 94.72C219.83 91.84 219.61 88.67 220.24 85.68C220.38 85.04 220.56 84.39 220.96 83.87C221.36 83.35 222.03 82.99 222.67 83.13C223.1 84.27 223.54 85.41 223.97 86.55C224.44 87.77 224.87 88.42 224.97 89.72C225.17 92.22 223.76 98.6 222.53 98.08C220.91 98.09 219.28 98.11 217.66 98.12C217.28 98.12 216.88 98.12 216.53 97.97C215.75 97.64 215.38 96.74 215.08 95.95C214.36 94.06 213.56 88.92 214.22 85.65C214.36 84.95 214.36 84.09 215.01 83.81C215.57 83.57 216.27 84.11 216.86 83.95C216.58 81.72 217.15 82.81 217.8 80.66C217.96 80.14 218.16 79.59 218.6 79.27C219.08 78.92 219.72 78.9 220.32 78.91C221.04 78.91 221.76 78.92 222.48 78.92C222.89 78.92 223.32 78.92 223.67 79.14C224 79.33 224.21 79.66 224.39 79.99C225.1 81.31 225.47 82.8 225.46 84.3C226.47 84.13 227.77 84.1 228.2 85.02C228.33 85.29 228.35 85.6 228.37 85.9C228.43 87 228.5 88.09 228.56 89.19C227.53 89.29 226.5 89.28 225.48 89.15C225.48 88.18 225.47 87.21 225.46 86.24C225.46 85.92 225.46 85.6 225.58 85.31C226 84.3 227.43 84.35 228.5 84.58C228.2 74.88 227.91 65.18 227.61 55.48C227.59 54.79 227.57 54.08 227.82 53.44C228.07 52.8 228.65 52.23 229.34 52.22C230.34 52.21 230.99 53.29 231.25 54.26C231.54 55.37 231.61 56.55 231.45 57.69C231.36 58.36 231.17 59.04 230.73 59.55C230.29 60.06 229.54 60.35 228.92 60.09C228.08 59.74 227.87 58.66 227.78 57.75C227.24 52.55 226.45 47.39 225.41 42.27C225.23 41.37 225.02 40.42 224.43 39.72C224.06 39.27 223.56 38.95 223.06 38.64C220.63 37.1 218.2 35.55 215.77 34C215.54 48.63 215.6 63.4 216.29 78.02C218.18 77.22 220.28 76.91 222.32 77.13C223.03 77.21 223.73 77.35 224.38 77.64C226.64 78.66 227.73 81.67 226.64 83.9" stroke="#194A88" stroke-width="0.48" stroke-miterlimit="10"/>
<path d="M218.64 39.3708C218.9 39.2008 219.24 39.3408 219.52 39.4908C220.64 40.1008 221.76 40.7108 222.88 41.3108C223.14 41.4508 223.4 41.6008 223.58 41.8408C223.75 42.0708 223.81 42.3708 223.86 42.6508C224.79 47.4608 225.72 52.2708 226.27 57.1308C226.29 57.3008 226.31 57.4808 226.24 57.6308C226.11 57.9208 225.75 58.0108 225.44 58.0408C223.31 58.3208 221.13 58.1508 219.06 57.5608C218.69 57.4508 218.3 57.3108 218.11 56.9708C217.95 56.6808 218 56.3208 218.05 55.9908C218.36 53.8908 218.52 51.7808 218.53 49.6608C218.53 48.9108 218.53 48.1608 218.59 47.4208C218.65 46.7508 218.78 46.0908 218.84 45.4308C218.94 44.2508 218.78 43.0808 218.44 41.9508C218.24 41.3008 217.95 39.8308 218.65 39.3708H218.64Z" stroke="#194A88" stroke-width="0.48" stroke-miterlimit="10"/>
<path d="M215.63 39.7392C215.95 36.7692 215.18 33.7592 215.5 30.7892C215.54 30.4092 215.58 30.0092 215.44 29.6492C215.27 29.2292 214.88 28.9492 214.5 28.6992C200.81 19.2792 187.11 9.86922 173.41 0.449219V79.5592C173.41 79.5592 174.67 80.6492 178.05 80.0692C178.94 80.1292 180.64 79.8092 181.75 80.2392C182.2 80.1992 182.32 75.0992 182.32 75.0992C182.32 75.0992 182.44 70.7592 185.7 70.7592C188.96 70.7592 192.21 70.2492 193.8 72.2892C195.39 74.3292 195.52 78.0892 195.52 78.0892L195.46 81.2792C195.46 81.2792 215.87 83.7892 215.87 83.0892C215.87 82.3892 215.55 76.1792 215.55 76.1792L215.61 39.7292L215.63 39.7392Z" stroke="#194A88" stroke-width="0.48" stroke-miterlimit="10"/>
<path d="M104.44 16.8409L172.32 0.460938V80.1309C172.32 80.6609 171.89 81.0909 171.36 81.0909H101.98C101.98 81.0909 101.98 79.9809 105.3 79.8109C107.17 80.0709 135.49 79.6409 135.49 79.6409L169.11 79.8109C169.71 79.8109 170.2 79.3309 170.2 78.7309L170.54 4.27094C170.54 4.27094 170.65 3.61094 169.39 3.89094C168.2 4.25094 107.61 19.1309 107.61 19.1309C107.61 19.1309 106.24 19.0709 106.53 20.7209C106.53 21.9609 106.56 31.7309 106.56 31.7309C106.56 31.7309 103.92 33.3309 104.24 30.5609C104.56 27.8009 104.45 16.8209 104.45 16.8209L104.44 16.8409Z" stroke="#194A88" stroke-width="0.48" stroke-miterlimit="10"/>
<path d="M175.97 81.8906C151.92 81.9906 127.86 82.1006 103.81 82.2006C103.44 82.2006 103.04 82.2106 102.73 82.4206C102.2 82.7706 102.14 83.5106 102.14 84.1506C102.14 85.0106 102.14 85.8706 102.14 86.7306C102.14 87.5106 102.21 88.4206 102.86 88.8406C103.2 89.0606 103.61 89.0906 104.01 89.1106C107.32 89.2906 110.65 89.3406 113.96 89.2706C113.74 92.2406 114.15 95.2506 115.16 98.0506C115.58 99.2006 116.12 100.351 117.06 101.141C118.56 102.391 120.69 102.441 122.65 102.431C123.84 102.431 125.12 102.391 126.07 101.681C127.79 100.411 127.57 97.8206 127.16 95.7206C126.69 93.2806 126.43 91.9306 125.96 89.4906C123.3 89.7206 123.37 95.3006 125.55 98.0206C127.76 100.861 126.77 92.0906 126.27 89.1206C126.25 92.3806 127.1 95.5806 127.95 98.7306C128.19 99.6106 128.45 100.541 129.11 101.171C129.88 101.921 131.03 102.091 132.1 102.191C133.96 102.361 135.82 102.431 137.69 102.381C138.47 102.361 139.31 102.301 139.9 101.791C140.33 101.431 140.54 100.881 140.72 100.351C141.68 97.4906 141.75 94.4106 141.86 91.4006C141.89 90.4206 142.08 89.2106 143.01 88.8806C143.37 88.7506 143.76 88.7906 144.14 88.8306C150.77 89.5306 157.47 89.5306 164.1 88.8106C163.34 91.5006 163.28 94.1906 163.82 97.3806C164.07 98.8406 164.7 99.9406 165.86 100.871C166.69 101.531 167.72 102.021 168.75 102.241C171.96 102.931 174.89 102.591 178.08 101.811C178.45 101.721 178.83 101.611 179.07 101.321C179.52 100.771 179.21 99.9706 178.92 99.3306C177.39 95.9806 176.68 92.2706 176.85 88.5906C176.11 88.1806 175.12 88.5906 174.63 89.2806C174.15 89.9806 174.06 90.8706 174.07 91.7206C174.12 93.9806 175.47 97.9406 177.95 98.2606C177.69 95.0206 175.6 91.6106 175.34 88.3706C163.29 89.0806 151.2 88.9106 139.17 87.8606C140.13 89.4706 140.1 91.4606 140.02 93.3306C139.98 94.2106 139.94 95.1306 139.53 95.9106C139.13 96.6906 138.27 97.3206 137.4 97.1506C137.17 94.8706 136.93 92.5906 136.7 90.3006C136.64 89.7406 136.61 89.1006 137.02 88.7106C137.65 88.1006 138.69 88.6206 139.39 89.1606C130.89 91.1506 121.99 88.6106 113.28 89.2106" stroke="#194A88" stroke-width="0.48" stroke-miterlimit="10"/>
<path d="M146.39 20.2504C146.98 20.3804 147.59 20.4504 148.2 20.4504C148.5 20.4504 148.8 20.4404 149.08 20.3504C149.35 20.2704 149.6 20.1104 149.84 19.9604C150.52 19.5404 151.2 19.1204 151.89 18.7004C152.15 18.5404 152.43 18.3604 152.54 18.0704C152.63 17.8104 152.56 17.5204 152.41 17.3004C152.26 17.0804 152.03 16.9104 151.8 16.7704C150.29 15.8604 148.24 15.9504 146.82 16.9904C146.63 17.1304 146.45 17.2804 146.33 17.4804C146.13 17.7904 146.09 18.1704 146.09 18.5404C146.09 19.0604 146.18 19.5704 146.34 20.0604C146.37 20.1404 146.4 20.2304 146.36 20.3204C146.34 20.3804 146.29 20.4204 146.24 20.4604C145.59 20.9904 144.88 21.4404 144.12 21.8004C144.47 21.9204 144.83 22.0104 145.19 22.0804C145.58 22.1504 145.99 22.1804 146.37 22.0804C146.79 21.9804 147.15 21.7304 147.51 21.4904C148.03 21.1404 148.55 20.7804 148.99 20.3304" stroke="#194A88" stroke-width="0.48" stroke-linecap="round" stroke-linejoin="round"/>
<path d="M147.93 16.6699C147.84 17.3499 147.75 18.0799 148.04 18.6999C148.23 19.0999 148.55 19.4099 148.86 19.7099" stroke="#194A88" stroke-width="0.48" stroke-miterlimit="10"/>
<path d="M147.16 21.7598C147.37 22.2198 147.58 22.6698 147.8 23.1298C148.05 23.6698 148.31 24.2198 148.67 24.6998C148.9 25.0098 149.21 25.2998 149.59 25.3498C150.08 25.4198 150.53 25.0698 150.88 24.7098C151.62 23.9498 152.2 23.0598 152.6 22.0798C152.39 23.7698 151.7 25.3998 150.62 26.7198C150.5 26.8598 150.38 26.9998 150.33 27.1798C150.28 27.3398 150.29 27.5098 150.3 27.6798C150.39 29.1198 150.58 30.5598 150.87 31.9698C150.78 32.0898 150.57 32.0198 150.5 31.8898C150.43 31.7598 150.45 31.5998 150.47 31.4498C150.66 30.1298 150.57 28.7598 150.21 27.4698C149.83 27.6898 149.55 28.0198 149.27 28.3598C148.43 29.3998 147.65 30.4998 146.75 31.4998C145.85 32.4898 144.81 33.3898 143.58 33.9198C144.4 34.7998 144.95 36.4298 144.98 37.6398C145.34 37.5298 145.73 37.3898 145.9 37.0598C145.99 36.8798 145.99 36.6698 145.98 36.4798C145.98 36.0398 145.88 35.1698 145.84 34.7398C145.77 34.0698 145.63 33.3498 145.15 32.8898C145.05 32.7998 144.93 32.7098 144.8 32.7198C144.71 32.7198 144.62 32.7698 144.54 32.8198C144.14 33.0598 143.75 33.3298 143.39 33.6298C144.5 34.4598 144.81 36.4198 144.98 37.7898C145.45 37.5198 145.78 37.0098 145.84 36.4598C145.75 36.5798 145.66 36.6898 145.57 36.8098C145.74 36.8798 145.91 36.7398 146.04 36.6198C147.38 35.3498 148.89 33.8798 150.59 33.1598C150.23 33.2298 149.86 33.0498 149.61 32.7798C149.36 32.5098 149.21 32.1698 149.06 31.8398C148.14 32.6898 147.38 33.6998 146.82 34.8198C146.71 34.5598 146.59 34.2998 146.48 34.0398C146.44 33.9598 146.4 33.8698 146.33 33.8098C146.12 33.6498 145.83 33.8698 145.66 34.0798" stroke="#194A88" stroke-width="0.48" stroke-linecap="round" stroke-linejoin="round"/>
<path d="M152.66 18.1191C152.77 19.2691 152.98 20.4191 153.51 21.4491C154.04 22.4791 154.91 23.3691 156.02 23.6891C156.5 23.8291 157 23.8691 157.46 24.0391C158.48 24.4291 159.1 25.4491 159.62 26.4091C161.7 30.2791 163.26 34.4291 164.24 38.7091C164.3 38.9491 164.35 39.1891 164.3 39.4391C164.27 39.6091 164.19 39.7591 164.11 39.9091C163.27 41.4691 161.76 42.5791 160.13 43.2691C158.5 43.9591 156.74 44.2791 155.01 44.5891C154.51 44.6791 153.92 44.7391 153.59 44.3591C153.28 44.0091 153.39 43.4291 153.7 43.0791C154.01 42.7291 154.47 42.5491 154.91 42.3891C155.72 42.0991 156.53 41.8091 157.26 41.3591C157.73 41.0591 158.2 40.5991 158.14 40.0391C158.07 39.4291 157.39 39.0791 156.78 39.0291C156.17 38.9891 159.94 36.8191 159.34 36.7091C159.24 36.6891 152.47 39.8291 152.62 40.7891C152.78 41.8691 153.48 44.9791 154.53 45.2991C153.34 48.1791 152.34 51.1391 151.05 53.9691C148.61 59.2991 149.25 68.0291 148.62 75.0891C148.62 75.1791 148.6 75.2891 148.55 75.3591C148.49 75.4391 148.4 75.4791 148.31 75.5191C147.17 75.9891 146.03 76.4591 144.84 76.7991C144.46 76.9091 144.06 77.0091 143.73 77.2391C143.4 77.4691 143.15 77.8591 143.22 78.2491C143.28 78.6391 143.63 78.9191 144 79.0491C144.37 79.1691 144.77 79.1691 145.16 79.1891C145.47 79.2091 145.81 79.2291 146.05 79.0391C146.42 78.7391 146.3 78.1591 146.16 77.6991C146.02 77.2391 145.95 76.6291 146.37 76.3891C146.74 76.9791 146.93 77.6791 146.93 78.3791C146.89 77.4591 146.96 76.5391 147.13 75.6391C147.4 75.6791 147.48 76.0191 147.5 76.2891C147.54 76.8391 147.57 77.4091 147.38 77.9291C147.18 78.4491 146.69 78.8891 146.14 78.8591C146.13 79.1891 146.63 79.2491 146.9 79.0591C147.17 78.8691 147.34 78.5491 147.65 78.4391C148 78.3191 148.37 78.5291 148.71 78.6791C149.42 78.9991 150.23 79.0891 151 78.9391C151.15 78.9091 151.31 78.8591 151.4 78.7391C151.48 78.6291 151.48 78.4891 151.48 78.3591C151.48 77.6991 151.48 77.0391 151.48 76.3691C151.48 76.2291 151.48 76.0791 151.39 75.9691C151.29 75.8391 151.1 75.8091 150.93 75.7991C150.28 75.7391 149.63 75.6791 148.98 75.6091C149.97 75.4391 151.85 75.3891 152.84 75.2191C152.49 75.1791 152.28 74.7691 152.31 74.4091C152.34 74.0491 152.54 73.7391 152.7 73.4191C154.06 70.7191 152.81 67.3591 153.74 64.4891" stroke="#194A88" stroke-width="0.48" stroke-linecap="round" stroke-linejoin="round"/>
<path d="M155.47 45.8301C154.3 52.3301 153.12 58.9501 154.01 65.4901C154.48 69.0001 155.48 72.0301 156.03 75.5301L157.7 75.4301C157.68 75.8401 157.87 76.2501 158.19 76.4901C157.93 76.1601 157.56 75.9201 157.15 75.8101C157.03 76.3201 156.13 76.1701 156.6 76.4101C156.37 76.0901 156 75.8601 155.61 75.8101C155.62 75.9401 155.64 76.0701 155.65 76.2001C155.5 76.0201 155.36 75.8301 155.22 75.6501C155.18 75.7201 155.15 75.7901 155.11 75.8601C154.84 75.8401 154.62 76.1901 154.34 76.1801C154.01 76.1701 153.64 76.1701 153.4 76.4001C153.19 76.6001 153.14 76.9101 153.16 77.1901C153.16 77.2901 153.14 77.1201 153.19 77.3601C153.32 77.9801 153.88 78.4101 154.52 78.3801C156.2 78.2901 158.72 78.5601 160.16 78.4901C160.23 78.4901 160.92 78.3801 161.1 78.1601C161.21 78.0201 161.28 76.5001 161.19 75.8501C161.32 75.8501 160.12 75.9201 160.24 75.9101C159.52 76.1601 158.68 76.0201 158.08 75.5601C158.91 75.5301 159.83 75.4401 160.66 75.5001C160.81 73.6001 160.47 71.6901 160.23 69.8001C159.6 64.8101 159.74 59.6401 161.4 54.8901C162.3 52.3201 163.63 49.9101 164.46 47.3101C165.29 44.7101 165.56 41.7801 164.37 39.3301" stroke="#194A88" stroke-width="0.48" stroke-linecap="round" stroke-linejoin="round"/>
<path d="M158.49 28.0398C158.46 28.6798 158.23 29.2898 158.02 29.8998C157.12 32.4598 156.45 35.0998 155.97 37.7698C154.42 36.9098 152.66 36.4298 150.88 36.4098C151.4 36.2198 151.48 35.5398 151.62 34.9998C151.65 34.8898 151.69 34.7798 151.78 34.6998C151.87 34.6198 152.01 34.6098 152.13 34.6198C152.73 34.6398 153.29 34.9098 153.82 35.2098C154.62 35.6598 155.38 36.1798 156.1 36.7598C154.96 35.5898 153.29 34.9698 151.67 35.0998C152.14 35.1398 152.63 35.0798 153.07 34.9198C152.88 34.7798 152.64 34.7098 152.41 34.7098C152.01 34.7098 153.22 31.1098 153.34 30.8398C153.84 29.7398 154.38 28.6998 154.76 27.5498C155.03 26.7198 155.35 26.1998 156.27 26.0398C157.6 25.8098 158.55 26.7098 158.49 28.0398Z" stroke="#194A88" stroke-width="0.48" stroke-linecap="round" stroke-linejoin="round"/>
<path d="M150.6 33.1504C150.61 33.9104 151.13 35.1204 151.4 35.8304" stroke="#194A88" stroke-width="0.48" stroke-linecap="round" stroke-linejoin="round"/>
<path d="M151.5 36.7305C149.76 38.9305 148.11 41.1905 146.53 43.5105" stroke="#194A88" stroke-width="0.48" stroke-linecap="round" stroke-linejoin="round"/>
<path d="M155.37 37.6797C152.67 40.4697 149.69 42.9997 146.5 45.2097C146.54 45.2097 146.58 45.2397 146.6 45.2697C146.4 45.3897 146.1 45.4097 145.95 45.5897C145.48 46.1497 145 46.7197 144.37 47.1097C143.61 47.5897 142.69 47.7397 141.8 47.8597C141.54 47.8897 141.29 47.9197 141.03 47.9197C140.74 47.9197 140.4 47.8397 140.3 47.5697C140.23 47.3897 140.3 47.1997 140.38 47.0197C140.4 46.9897 140.41 46.9497 140.45 46.9297C140.48 46.9097 140.52 46.9197 140.56 46.9297C141.16 47.0097 141.78 47.0497 142.37 46.9297C142.96 46.7997 143.53 46.4797 143.85 45.9597C143.52 46.2397 143.14 46.4697 142.74 46.6497C142.59 46.7097 142.43 46.7697 142.28 46.7397C142.12 46.7097 141.97 46.5597 142 46.4097C142.6 45.9897 143.24 45.5397 143.48 44.8497C143.53 44.6997 143.57 44.5397 143.69 44.4397C143.75 44.3897 143.83 44.3597 143.91 44.3397C144.64 44.1097 145.37 43.8697 146.1 43.6397C146.23 43.5997 146.34 43.6097 146.47 43.6097C146.53 43.6097 146.61 43.5997 146.63 43.5397C146.59 43.5197 146.56 43.4897 146.53 43.4697" stroke="#194A88" stroke-width="0.48" stroke-linecap="round" stroke-linejoin="round"/>
<path d="M57.7699 33.5699C59.3599 34.4899 61.1699 35.0299 63.0099 35.1099C63.4499 35.1299 63.8899 35.1199 64.3199 35.0199C64.7399 34.9199 65.1599 34.7099 65.4399 34.3799C64.8699 33.9599 64.0999 33.8299 63.4299 34.0499C62.8499 34.2399 62.3499 34.6699 61.7399 34.7699C62.3599 34.3199 63.0599 33.9699 63.7899 33.7399C63.8299 33.7299 63.8699 33.7099 63.8899 33.6799C63.9099 33.6499 63.9099 33.5999 63.9099 33.5599C63.8999 33.1899 63.8399 32.8099 63.7399 32.4499C63.6699 32.2099 63.5899 31.9699 63.4199 31.7899C63.1699 31.5199 62.7899 31.4299 62.4199 31.3699C61.6699 31.2399 60.8999 31.1699 60.1399 31.1699C59.5799 31.1699 58.9699 31.2199 58.5399 31.5899C58.1299 31.9299 57.9699 32.4799 57.8499 33.0099C57.6599 33.8299 57.5199 34.6899 57.6399 35.5199C57.6999 35.9299 57.8099 36.3399 57.8299 36.7499C57.8699 37.6099 57.5099 38.4299 57.1499 39.2099" stroke="#194A88" stroke-width="0.48" stroke-linecap="round" stroke-linejoin="round"/>
<path d="M63.8901 35.2891C63.7601 36.4491 63.6201 37.6091 63.2501 38.7091C63.1501 38.9991 63.0101 39.3191 62.7301 39.4491C62.5701 39.5191 62.3901 39.5191 62.2101 39.4991C61.3001 39.3791 60.5401 38.7791 59.8501 38.1791C59.7501 38.0891 59.6401 37.9991 59.5801 37.8791C59.4901 37.7091 59.4901 37.4891 59.3501 37.3591C59.7001 37.6191 59.8001 38.0991 60.0301 38.4691C60.4001 39.0591 60.9201 39.4391 61.1301 40.0991C61.3401 40.7591 61.4001 40.7691 61.3801 41.4691" stroke="#194A88" stroke-width="0.48" stroke-linecap="round" stroke-linejoin="round"/>
<path d="M56.9899 39.1602C56.3799 40.6102 55.1699 41.7602 54.5599 43.2102C54.0999 44.3002 53.9999 45.5002 53.9699 46.6802C53.9199 48.6202 54.0399 50.5602 54.3299 52.4702C54.4899 53.5002 54.6899 54.5102 54.7599 55.5502C54.9199 57.7502 54.8599 60.0902 55.9799 62.0002C56.1199 62.2502 56.6799 62.7602 56.9099 62.7602C59.3799 62.8502 61.8999 62.9302 64.2599 62.2402C61.9299 62.5702 59.6099 62.9502 57.2899 63.3802C56.7899 65.1602 57.0499 67.1902 57.4199 69.0002C58.1799 72.6902 58.9199 76.6102 57.5799 80.1202C57.1799 81.1602 56.6199 82.1302 56.1199 83.1302C54.6099 86.1602 53.7599 89.4602 52.9199 92.7302C52.8599 92.9702 52.7999 93.2402 52.9199 93.4602C53.0099 93.6402 53.2099 93.7502 53.3899 93.8402C54.6899 94.4902 56.1499 94.7802 57.5999 94.6902C56.1199 94.6902 54.6299 94.7002 53.1499 94.7102C52.9999 95.5902 52.8499 96.4802 52.7099 97.3602C52.6899 97.5102 52.6599 97.6702 52.7299 97.8002C52.8299 98.0102 53.0999 98.0702 53.3299 98.1002C55.0899 98.3402 56.8899 98.3002 58.6399 97.9902C59.1099 97.9102 59.6399 97.7402 59.7899 97.2902C59.9799 96.7202 59.3499 96.1902 58.7599 96.1002C58.1699 96.0202 57.5599 96.1802 56.9699 96.0702C56.3799 95.9502 55.8099 95.3402 56.0799 94.8102C56.4099 94.4202 57.1199 94.8102 57.5399 94.5102C57.6699 94.4202 57.7499 94.2702 57.8199 94.1302C58.5399 92.7102 59.2599 91.3002 59.9899 89.8802C61.4699 86.9702 62.9699 84.0302 63.7399 80.8602C64.0199 79.7102 64.1999 78.5302 64.3699 77.3502C64.8599 73.9702 65.2499 70.5702 65.5599 67.1702C65.8699 71.6502 65.4099 76.1902 64.1999 80.5202C64.0099 81.1902 63.8099 81.8602 63.7599 82.5502C63.6799 83.8302 64.1499 85.0702 64.5399 86.2902C65.3299 88.7802 65.7899 91.3802 65.8999 93.9902C65.9299 94.7602 65.7699 95.7502 65.0199 95.9202C65.1099 96.2902 65.6099 96.3302 65.9799 96.2802C67.2799 96.1102 68.5599 95.8602 69.8299 95.5202C68.5599 95.6602 67.2999 95.9502 66.0999 96.3802C66.0399 96.8702 66.0399 97.3602 66.1199 97.8402C66.1399 97.9802 66.1799 98.1402 66.2799 98.2402C66.4099 98.3702 66.6099 98.4002 66.7999 98.4102C68.7599 98.5302 70.7399 98.4102 72.6699 98.0702C73.0299 98.0102 73.4699 97.8302 73.4599 97.4602C73.4599 97.2202 73.2399 97.0502 73.0399 96.9202C72.3499 96.4702 71.6099 96.1002 70.8299 95.8302C70.4999 95.7202 70.1499 95.6002 69.9599 95.3202C69.8099 95.0902 69.7999 94.8102 69.7899 94.5402C69.6399 88.6102 69.5699 82.6802 69.5999 76.7402C69.6199 73.1402 68.1499 68.9002 67.0299 65.4802" stroke="#194A88" stroke-width="0.48" stroke-linecap="round" stroke-linejoin="round"/>
<path d="M62.5301 42.3896C61.3701 42.3896 60.2101 42.2096 59.1001 41.8496C60.7301 42.5096 62.2401 43.4696 63.5201 44.6596C63.1101 44.6596 62.6901 44.5696 62.3201 44.3796C62.7501 44.9296 63.6201 45.1496 63.7901 45.8196C63.8601 46.0796 63.7901 46.3496 63.7601 46.6196C63.6101 47.7896 63.9101 48.9696 64.2501 50.0996C64.3701 50.4896 64.4901 50.8896 64.4301 51.2996C64.3701 51.6996 64.0901 52.0396 63.6901 52.1296C64.3301 52.5296 64.7501 52.6996 65.0201 53.4196C65.3601 54.3096 65.5801 55.0796 66.3701 55.7096" stroke="#194A88" stroke-width="0.48" stroke-linecap="round" stroke-linejoin="round"/>
<path d="M58.1699 39.8398C59.8499 40.2298 61.2799 41.3098 62.6399 42.3598" stroke="#194A88" stroke-width="0.48" stroke-linecap="round" stroke-linejoin="round"/>
<path d="M54.9899 43.7305C54.9199 44.3705 55.0499 45.0105 55.1699 45.6405C55.6699 48.3105 55.9299 51.0105 55.9899 53.7305C57.6499 53.1105 59.4699 52.9205 61.2299 53.1605C60.7399 52.9005 60.7699 52.2105 60.7099 51.6605C60.6999 51.5405 60.6699 51.4205 60.5999 51.3405C60.5199 51.2505 60.3899 51.2205 60.2599 51.2005C59.6599 51.1305 59.0699 51.3105 58.4999 51.5205C57.6399 51.8405 56.8099 52.2405 56.0199 52.7005C57.3199 51.7205 59.0699 51.3605 60.6499 51.7405C60.1799 51.7105 59.7099 51.5805 59.2899 51.3505C59.4999 51.2405 59.7399 51.2105 59.9699 51.2405C60.3699 51.3105 59.7199 47.5605 59.6499 47.2805C59.3199 46.1105 58.9499 45.0005 58.7399 43.8005C58.5999 42.9405 58.3699 42.3805 57.4799 42.0805C56.1999 41.6505 55.1199 42.4005 54.9799 43.7205L54.9899 43.7305Z" stroke="#194A88" stroke-width="0.48" stroke-linecap="round" stroke-linejoin="round"/>
<path d="M60.5801 53.3809C61.9601 55.8209 63.2601 58.3109 64.4601 60.8409" stroke="#194A88" stroke-width="0.48" stroke-linecap="round" stroke-linejoin="round"/>
<path d="M56.6099 53.7305C58.8499 56.9005 61.4099 59.8505 64.2299 62.5305C64.1899 62.5205 64.1499 62.5505 64.1199 62.5705C64.2999 62.7205 64.5999 62.7805 64.7199 62.9805C65.0999 63.6105 65.4899 64.2405 66.0399 64.7205C66.7199 65.3005 67.5999 65.6005 68.4599 65.8505C68.7099 65.9205 68.9599 65.9905 69.2099 66.0305C69.4999 66.0705 69.8499 66.0405 69.9899 65.7905C70.0799 65.6305 70.0499 65.4205 69.9899 65.2405C69.9799 65.2005 69.9699 65.1705 69.9399 65.1405C69.9099 65.1105 69.8699 65.1105 69.8299 65.1105C69.2199 65.1005 68.6099 65.0505 68.0399 64.8305C67.4699 64.6105 66.9599 64.2105 66.7199 63.6505C67.0099 63.9805 67.3399 64.2605 67.7099 64.5005C67.8499 64.5905 67.9999 64.6705 68.1599 64.6705C68.3199 64.6705 68.4899 64.5405 68.4799 64.3805C67.9499 63.8805 67.3899 63.3305 67.2499 62.6105C67.2199 62.4505 67.2099 62.2805 67.0999 62.1705C67.0399 62.1105 66.9699 62.0705 66.8899 62.0305C66.1999 61.6905 65.5199 61.3505 64.8299 61.0105C64.7099 60.9505 64.5999 60.9405 64.4699 60.9305C64.4099 60.9205 64.3299 60.8905 64.3199 60.8305C64.3599 60.8105 64.3999 60.7905 64.4299 60.7705" stroke="#194A88" stroke-width="0.48" stroke-linecap="round" stroke-linejoin="round"/>
<path d="M141.99 46.3891L68.5999 64.7291L63.4199 43.8891L136.81 25.5391L141.99 46.3891Z" stroke="#194A88" stroke-width="0.48" stroke-linecap="round" stroke-linejoin="round"/>
<path d="M139.43 35.8006C140.18 35.5706 140.83 35.1106 141.54 34.7806C142.17 34.4906 142.83 34.3106 143.49 34.1406" stroke="#194A88" stroke-width="0.48" stroke-linecap="round" stroke-linejoin="round"/>
<path d="M140.1 38.7896C141.77 38.3196 143.18 38.0896 144.86 37.5996" stroke="#194A88" stroke-width="0.48" stroke-linecap="round" stroke-linejoin="round"/>
<path d="M104.33 79.8995L102.38 81.0895C101.91 81.0895 104.15 80.3995 104.15 79.9295L104.38 57.8795C104.38 57.4095 104.76 57.0195 105.23 57.0195H105.37C105.84 57.0195 106.22 57.3995 106.22 57.8795V79.8695C106.22 80.3395 104.8 79.9095 104.32 79.9095L104.33 79.8995Z" stroke="#194A88" stroke-width="0.48" stroke-miterlimit="10"/>
<path d="M17.3599 118.281C50.0099 107.011 59.3499 104.421 85.5399 101.681C84.3899 100.371 83.6199 98.6608 83.3599 96.9308C84.5699 98.2408 85.2999 99.9808 85.3999 101.771C86.1699 99.7108 85.0599 97.1908 86.1999 95.3008C86.7199 95.6208 86.9099 96.2808 86.9699 96.8908C87.1299 98.5508 86.5599 100.271 85.4399 101.511C86.0799 101.321 86.3699 100.601 86.6699 100.001C86.9699 99.4008 87.5599 98.7608 88.1999 98.9808C88.3599 99.6308 88.0299 100.321 87.5299 100.771C87.0299 101.221 86.3899 101.471 85.7699 101.711C88.3199 101.841 90.6999 100.571 93.1399 99.7808C97.6899 98.3108 102.59 98.5308 107.37 98.7608" stroke="#194A88" stroke-width="0.48" stroke-linecap="round" stroke-linejoin="round"/>
<path d="M114.4 115.491C152.47 107.791 196.57 100.161 232.59 101.811" stroke="#194A88" stroke-width="0.48" stroke-linecap="round" stroke-linejoin="round"/>
<path d="M195.91 72.9294C196.69 73.0994 196.96 74.0694 197.03 74.8594C197.19 76.6894 197.1 78.5494 196.78 80.3594C202.81 81.3594 208.92 81.8194 215.03 81.7294C214.57 79.4594 214.36 77.1394 214.41 74.8294C208.37 73.4694 201.92 74.5994 195.98 72.8594C197.43 73.0994 198.39 74.6094 198.5 76.0694C198.61 77.5294 198.07 78.9594 197.51 80.3094" stroke="#194A88" stroke-width="0.48" stroke-miterlimit="10"/>
<path d="M107.23 85.8303C107.23 86.2203 107.24 86.6703 107.56 86.9003C107.76 87.0403 108.02 87.0502 108.26 87.0602C109.79 87.0802 111.32 87.1102 112.85 87.1302C113.12 87.1302 113.4 87.1303 113.63 87.0103C113.96 86.8303 114.11 86.4502 114.21 86.0902C114.32 85.6902 114.38 85.2702 114.39 84.8502C114.39 84.7402 114.39 84.6303 114.34 84.5403C114.26 84.4203 114.11 84.3702 113.97 84.3402C113.16 84.1602 112.32 84.1503 111.49 84.1503C110.4 84.1503 109.29 84.0803 108.2 84.1503C107.07 84.2203 107.25 84.8502 107.23 85.8502V85.8303Z" stroke="#194A88" stroke-width="0.48" stroke-miterlimit="10"/>
<path d="M161.58 85.8303C161.58 86.2203 161.59 86.6703 161.91 86.9003C162.11 87.0403 162.37 87.0502 162.61 87.0602C164.14 87.0802 165.67 87.1102 167.2 87.1302C167.47 87.1302 167.75 87.1303 167.98 87.0103C168.31 86.8303 168.46 86.4502 168.56 86.0902C168.67 85.6902 168.73 85.2702 168.74 84.8502C168.74 84.7402 168.74 84.6303 168.69 84.5403C168.61 84.4203 168.46 84.3702 168.32 84.3402C167.51 84.1602 166.67 84.1503 165.83 84.1503C164.74 84.1503 163.63 84.0803 162.54 84.1503C161.41 84.2203 161.59 84.8502 161.57 85.8502L161.58 85.8303Z" stroke="#194A88" stroke-width="0.48" stroke-miterlimit="10"/>
</g>
<defs>
<clipPath id="clip0_21_307">
<rect width="232.83" height="118.52" fill="white"/>
</clipPath>
</defs>
</svg>
