<svg width="186" height="68" viewBox="0 0 186 68" fill="none" xmlns="http://www.w3.org/2000/svg">
<path d="M92.7538 0.843647C86.9572 0.843647 85.7919 3.87489 85.6332 4.80683L84.2399 12.64C84.6019 11.4628 86.0696 8.99073 91.3009 8.99073H102.418C108.2 8.99073 109.365 5.95948 109.524 5.02264L110.268 0.838742H92.7587L92.7538 0.843647Z" fill="url(#paint0_linear_1_11626)"/>
<path d="M73.8368 28.1788C74.0549 26.9869 74.9128 25.9372 75.9888 25.3879C77.0499 24.8582 78.5028 24.4805 80.5358 24.4805H99.6413C105.438 24.4805 106.603 21.4492 106.762 20.5026L108.155 12.6694C107.808 13.8319 106.34 16.3187 101.094 16.3187H81.9887C76.1921 16.3187 75.0417 19.3646 74.8681 20.3015L72.0665 36.0659C71.893 37.0027 71.9624 40.034 77.764 40.034H103.281L104.749 31.8869H79.2168C77.1987 31.8869 75.8599 31.5141 75.002 30.9844C74.1045 30.4351 73.6235 29.3903 73.8417 28.1788H73.8368Z" fill="url(#paint1_linear_1_11626)"/>
<path d="M13.8378 40.9316C8.56189 40.9316 3.12728 40.2989 0.677734 39.6661L1.82317 33.2309C5.19005 33.4957 8.80486 33.8636 13.9717 33.8636C18.4543 33.8636 20.5567 32.5442 21.0823 29.5914C21.479 27.3744 20.6757 26.4817 17.2245 24.8974L11.899 22.4695C6.66771 20.0955 3.64793 17.2997 4.80328 10.8105C6.19169 3.05577 12.1767 0 22.198 0C27.4789 0 31.8177 0.789693 34.0689 1.31942L32.9383 7.65168C29.3136 7.33777 25.907 7.01895 21.484 7.01895C17.4278 7.01895 15.1568 7.81354 14.6758 10.5014C14.3188 12.5076 15.0329 13.2973 18.3948 14.7736L23.5914 17.0446C29.7252 19.7325 32.2639 22.8471 31.1631 29.0175C29.7152 37.1401 23.4377 40.9365 13.8378 40.9365V40.9316Z" fill="#00AA4E"/>
<path d="M46.5496 16.6964L49.376 0.843647H39.3498L32.3631 40.0389H42.3894L45.2158 24.1862H58.004L59.3378 16.6964H46.5496Z" fill="#00AA4E"/>
<path d="M67.2418 40.0389H57.2701L64.2568 0.843647H74.2285L67.2418 40.0389Z" fill="#00AA4E"/>
<path fill-rule="evenodd" clip-rule="evenodd" d="M125.451 26.0599L131.064 40.0389H141.14L141.138 40.034H147.184L151.721 30.1702H164.971L166.017 40.034H175.736L171.58 0.843653H154.969L139.237 35.0499L135.105 24.2156C139.389 22.3174 142.29 19.2028 143.326 13.4003L143.391 13.0324C145.31 2.26608 137.222 0.367873 127.251 0.367873C123.061 0.367873 119.537 0.56121 116.113 0.749055C115.53 0.781074 114.949 0.812935 114.368 0.843651L107.387 40.0389H116.986L119.481 26.0599H125.451ZM126.259 7.75469C132.125 7.75469 134.505 8.7602 133.717 13.1893H133.722L133.657 13.5572C132.894 17.8294 130.251 19.2028 124.33 19.2028H120.7L122.733 7.80864C124.023 7.75469 124.98 7.75469 126.259 7.75469ZM161.901 8.02937L154.969 23.1022H164.217L162.615 8.02937H161.901Z" fill="#00AA4E"/>
<path d="M109.757 3.67869C109.757 3.67869 109.752 3.69831 109.747 3.70322C109.38 4.87549 107.927 7.26419 102.854 7.30343C102.815 7.30343 91.6183 7.30343 91.6183 7.30343C86.5407 7.30343 84.9787 9.63327 84.5572 10.8497L84.2399 12.64C84.6019 11.4628 86.0696 8.99073 91.3009 8.99073H102.418C108.2 8.99073 109.365 5.95948 109.524 5.02264L109.762 3.67379L109.757 3.67869Z" fill="#005A24"/>
<path d="M110.01 2.25136L110.258 0.843647H92.7488C86.9522 0.843647 85.787 3.87489 85.6283 4.80683L85.3903 6.15078C85.5936 5.14527 86.863 2.25136 92.5306 2.25136H110.01Z" fill="#28B361"/>
<path d="M78.0218 38.5576C73.3657 38.5576 72.3244 36.6005 72.1905 35.3449L72.0616 36.0659C71.888 37.0028 71.9575 40.034 77.759 40.034H103.276L103.544 38.5576H78.0218Z" fill="#005A24"/>
<path d="M74.8681 20.3064L74.7442 21.0127C75.3243 19.757 77.0499 17.7705 81.7358 17.7705C81.7358 17.7705 100.921 17.7705 100.96 17.7705C105.919 17.7313 107.446 15.4505 107.858 14.2537C107.873 14.2096 107.887 14.1654 107.897 14.1262L108.155 12.6792C107.808 13.8417 106.34 16.3285 101.094 16.3285H81.9887C76.1921 16.3285 75.0417 19.3745 74.8681 20.3113V20.3064Z" fill="#00AA4E"/>
<path d="M107.02 19.0556C107.02 19.0556 107.015 19.0851 107.01 19.0998C106.787 20.1396 105.522 22.9305 100.043 22.9747C99.9983 22.9747 80.8036 22.9747 80.8036 22.9747C78.7656 22.9747 77.3177 23.3474 76.2565 23.8821C75.1805 24.4265 74.3227 25.4762 74.1045 26.6681L73.8368 28.1837C74.0549 26.9918 74.9128 25.9421 75.9888 25.3928C77.0499 24.8631 78.5028 24.4854 80.5358 24.4854H99.6413C105.438 24.4854 106.603 21.4541 106.762 20.5075L107.02 19.0507C107.02 19.0507 107.02 19.0556 107.02 19.0605V19.0556Z" fill="#00672C"/>
<path d="M73.6087 29.4492C73.3905 30.6558 73.8715 31.7054 74.769 32.2548C75.6268 32.7845 76.9607 33.1573 78.9838 33.1573H104.511L104.739 31.8869H79.2069C77.1888 31.8869 75.8499 31.5141 74.9921 30.9844C74.0946 30.4351 73.6136 29.3903 73.8318 28.1788L73.6087 29.4492Z" fill="#00893F"/>
<path d="M178.215 1.56958V6.31754H177.417V1.56958H175.741V0.843647H179.871V1.56958H178.215ZM182.807 5.42975L181.651 2.89881C181.587 2.75166 181.527 2.60942 181.503 2.48189V6.31754H180.684V0.843647H181.567L183.184 4.51744L184.84 0.843647H185.678V6.31754H184.879V2.48189C184.84 2.60452 184.795 2.75166 184.731 2.89881L183.575 5.42975H182.802H182.807Z" fill="#00AA4E"/>
<path d="M9.06271 61.2429C9.06271 63.9602 7.9024 65.7064 4.93716 65.7064C4.00991 65.7064 3.27108 65.6377 1.71904 65.4709V52.6789H2.15539C2.87935 52.6789 3.14711 52.9094 3.14711 53.7138V58.0939L3.1967 58.1283C3.73718 56.9952 4.71403 56.2448 6.17681 56.2448C7.63959 56.2448 9.05775 56.9952 9.05775 59.894V61.2429H9.06271ZM7.62968 59.894C7.62968 58.2116 7.07431 57.5642 5.89417 57.5642C4.39668 57.5642 3.15207 58.7806 3.15207 60.5807V64.3428C3.57355 64.3918 4.31238 64.3919 4.71898 64.3919C6.92556 64.3919 7.62968 63.3275 7.62968 61.2429V59.894Z" fill="#231F20"/>
<path d="M12.7817 62.1601C12.7817 63.661 13.2874 64.3428 14.3981 64.3428C15.9304 64.3428 16.9915 63.2931 16.9915 61.3459V56.4164H18.4245V65.5102H17.9882C17.2642 65.5102 16.9965 65.211 16.9965 64.4752V63.8278L16.9469 63.7934C16.5105 64.8921 15.6824 65.6573 14.2345 65.6573C12.5684 65.6573 11.3536 64.7891 11.3536 62.3612V56.4164H12.7866V62.165L12.7817 62.1601Z" fill="#231F20"/>
<path d="M21.9104 52.7672C22.6492 52.7672 22.9021 53.032 22.9021 53.7825C22.9021 54.5329 22.6492 54.7831 21.9104 54.7831C21.1716 54.7831 20.9484 54.5329 20.9484 53.7825C20.9484 53.032 21.1666 52.7672 21.9104 52.7672ZM22.6344 56.4164V65.4758H21.2013V56.4164H22.6344Z" fill="#231F20"/>
<path d="M26.9434 52.6838V65.4758H25.5104V52.6838H26.9434Z" fill="#231F20"/>
<path d="M36.7911 65.5053H36.2705C35.7845 65.5053 35.5118 65.3238 35.4821 64.8235L35.4127 64.024L35.3631 64.0093C34.892 65.0736 33.8309 65.6769 32.6706 65.6769C30.7665 65.6769 29.3533 64.6616 29.3533 61.7971V60.4336C29.3533 57.6868 30.5334 56.284 32.5515 56.284C33.7962 56.284 34.6738 56.7009 35.3135 57.2993L35.3631 57.265V52.6838H35.7994C36.5234 52.6838 36.7911 52.9143 36.7911 53.7187V65.5102V65.5053ZM30.7813 61.7922C30.7813 63.5433 31.421 64.3575 32.8689 64.3575C34.3168 64.3575 35.3631 63.3226 35.3631 61.5274V58.398C34.773 57.9468 34.0838 57.5838 33.0573 57.5838C31.54 57.5838 30.7863 58.452 30.7863 60.4336V61.7971L30.7813 61.7922Z" fill="#231F20"/>
<path d="M51.538 61.2429C51.538 63.9602 50.3777 65.7064 47.4124 65.7064C46.4852 65.7064 45.7464 65.6377 44.1943 65.4709V52.6789H44.6307C45.3546 52.6789 45.6224 52.9094 45.6224 53.7138V58.0939L45.672 58.1283C46.2125 56.9952 47.1843 56.2448 48.6521 56.2448C50.1198 56.2448 51.533 56.9952 51.533 59.894V61.2429H51.538ZM50.105 59.894C50.105 58.2116 49.5496 57.5642 48.3694 57.5642C46.872 57.5642 45.6273 58.7806 45.6273 60.5807V64.3428C46.0488 64.3918 46.7877 64.3919 47.1943 64.3919C49.4008 64.3919 50.105 63.3275 50.105 61.2429V59.894Z" fill="#231F20"/>
<path d="M60.4436 64.4409L60.5973 65.157C59.5858 65.4758 58.356 65.6426 57.4139 65.6426C54.771 65.6426 53.4917 64.0583 53.4917 61.6108V60.2962C53.4917 57.9124 54.6718 56.2497 57.161 56.2497C59.8387 56.2497 60.88 57.8977 60.88 60.5611L60.0221 61.6255H54.9197C54.9197 63.3422 55.49 64.3575 57.5627 64.3575C58.8767 64.3575 59.5312 64.1074 60.037 64.1074C60.275 64.1074 60.3891 64.1908 60.4387 64.4409H60.4436ZM57.28 57.4955C55.5098 57.4955 54.9247 58.5108 54.9247 60.2962V61.2772C55.2123 60.7622 55.6635 60.463 56.5908 60.463H59.4717C59.4717 58.6972 59.1345 57.4955 57.285 57.4955H57.28Z" fill="#231F20"/>
<path d="M67.584 64.2104L67.822 65.3091C67.3013 65.4758 66.6617 65.5936 66.1906 65.5936C64.103 65.5936 63.751 64.0779 63.751 62.6604V57.5985H62.2039V56.7156L63.751 56.4164L64.2072 53.8021H65.184V56.4164H67.6732V57.5985H65.184V62.6604C65.184 63.4746 65.2336 64.3575 66.2799 64.3575C66.6319 64.3575 67.103 64.3085 67.5939 64.2055L67.584 64.2104Z" fill="#231F20"/>
<path d="M73.8814 64.2104L74.1194 65.3091C73.5987 65.4758 72.9591 65.5936 72.488 65.5936C70.4005 65.5936 70.0484 64.0779 70.0484 62.6604V57.5985H68.5013V56.7156L70.0484 56.4164L70.5046 53.8021H71.4814V56.4164H73.9706V57.5985H71.4814V62.6604C71.4814 63.4746 71.531 64.3575 72.5773 64.3575C72.9293 64.3575 73.4004 64.3085 73.8913 64.2055L73.8814 64.2104Z" fill="#231F20"/>
<path d="M82.1771 64.4409L82.3308 65.157C81.3193 65.4758 80.0945 65.6426 79.1474 65.6426C76.5045 65.6426 75.2252 64.0583 75.2252 61.6108V60.2962C75.2252 57.9124 76.4053 56.2497 78.8945 56.2497C81.5722 56.2497 82.6135 57.8977 82.6135 60.5611L81.7556 61.6255H76.6532C76.6532 63.3422 77.2235 64.3575 79.2962 64.3575C80.6102 64.3575 81.2647 64.1074 81.7705 64.1074C82.0085 64.1074 82.1226 64.1908 82.1721 64.4409H82.1771ZM79.0135 57.4955C77.2433 57.4955 76.6582 58.5108 76.6582 60.2962V61.2772C76.9458 60.7622 77.397 60.463 78.3243 60.463H81.2052C81.2052 58.6972 80.868 57.4955 79.0185 57.4955H79.0135Z" fill="#231F20"/>
<path d="M86.3721 58.0645L86.4217 58.0792C86.8084 57.3288 87.7506 56.4115 89.5208 56.4115L89.7737 57.78C87.6167 57.78 86.3423 58.398 86.3423 60.1295V65.4758H84.9093V56.4164H85.6184C86.1093 56.4164 86.3423 56.6666 86.3423 57.1326L86.377 58.0645H86.3721Z" fill="#231F20"/>
<path d="M90.4282 67.1239L91.6431 63.7934H93.443L91.5042 67.1239H90.4282Z" fill="#231F20"/>
<path d="M101.709 52.6838V65.4758H100.276V52.6838H101.709Z" fill="#231F20"/>
<path d="M105.279 52.7672C106.018 52.7672 106.271 53.032 106.271 53.7825C106.271 54.5329 106.018 54.7831 105.279 54.7831C104.54 54.7831 104.322 54.5329 104.322 53.7825C104.322 53.032 104.54 52.7672 105.279 52.7672ZM106.003 56.4164V65.4758H104.57V56.4164H106.003Z" fill="#231F20"/>
<path d="M110.684 60.9927L111.458 64.1074H111.507L112.266 60.9927L113.813 56.4115H115.276L112.281 65.4709H110.679L107.684 56.4115H109.152L110.684 60.9927Z" fill="#231F20"/>
<path d="M123.274 64.4409L123.428 65.157C122.416 65.4758 121.191 65.6426 120.244 65.6426C117.601 65.6426 116.322 64.0583 116.322 61.6108V60.2962C116.322 57.9124 117.502 56.2497 119.991 56.2497C122.669 56.2497 123.71 57.8977 123.71 60.5611L122.852 61.6255H117.75C117.75 63.3422 118.32 64.3575 120.393 64.3575C121.707 64.3575 122.362 64.1074 122.867 64.1074C123.1 64.1074 123.219 64.1908 123.269 64.4409H123.274ZM120.11 57.4955C118.345 57.4955 117.755 58.5108 117.755 60.2962V61.2772C118.043 60.7622 118.499 60.463 119.421 60.463H122.302C122.302 58.6972 121.965 57.4955 120.115 57.4955H120.11Z" fill="#231F20"/>
<path d="M138.055 61.2429C138.055 63.9602 136.895 65.7064 133.93 65.7064C133.003 65.7064 132.264 65.6377 130.712 65.4709V52.6789H131.148C131.872 52.6789 132.14 52.9094 132.14 53.7138V58.0939L132.189 58.1283C132.73 56.9952 133.707 56.2448 135.17 56.2448C136.632 56.2448 138.046 56.9952 138.046 59.894V61.2429H138.055ZM136.622 59.894C136.622 58.2116 136.067 57.5642 134.887 57.5642C133.389 57.5642 132.145 58.7806 132.145 60.5807V64.3428C132.566 64.3918 133.305 64.3919 133.712 64.3919C135.918 64.3919 136.622 63.3275 136.622 61.2429V59.894Z" fill="#231F20"/>
<path d="M146.961 64.4409L147.115 65.157C146.103 65.4758 144.878 65.6426 143.931 65.6426C141.288 65.6426 140.009 64.0583 140.009 61.6108V60.2962C140.009 57.9124 141.189 56.2497 143.678 56.2497C146.356 56.2497 147.397 57.8977 147.397 60.5611L146.54 61.6255H141.437C141.437 63.3422 142.007 64.3575 144.08 64.3575C145.394 64.3575 146.049 64.1074 146.554 64.1074C146.792 64.1074 146.907 64.1908 146.956 64.4409H146.961ZM143.797 57.4955C142.032 57.4955 141.442 58.5108 141.442 60.2962V61.2772C141.73 60.7622 142.181 60.463 143.108 60.463H145.989C145.989 58.6972 145.652 57.4955 143.802 57.4955H143.797Z" fill="#231F20"/>
<path d="M154.101 64.2104L154.339 65.3091C153.819 65.4758 153.179 65.5936 152.708 65.5936C150.621 65.5936 150.268 64.0779 150.268 62.6604V57.5985H148.721V56.7156L150.268 56.4164L150.725 53.8021H151.701V56.4164H154.191V57.5985H151.701V62.6604C151.701 63.4746 151.751 64.3575 152.797 64.3575C153.149 64.3575 153.62 64.3085 154.111 64.2055L154.101 64.2104Z" fill="#231F20"/>
<path d="M160.399 64.2104L160.637 65.3091C160.116 65.4758 159.477 65.5936 159.005 65.5936C156.918 65.5936 156.566 64.0779 156.566 62.6604V57.5985H155.019V56.7156L156.566 56.4164L157.022 53.8021H157.999V56.4164H160.493V57.5985H157.999V62.6604C157.999 63.4746 158.048 64.3575 159.095 64.3575C159.447 64.3575 159.918 64.3085 160.409 64.2055L160.399 64.2104Z" fill="#231F20"/>
<path d="M168.7 64.4409L168.853 65.157C167.842 65.4758 166.617 65.6426 165.67 65.6426C163.027 65.6426 161.748 64.0583 161.748 61.6108V60.2962C161.748 57.9124 162.928 56.2497 165.417 56.2497C168.095 56.2497 169.136 57.8977 169.136 60.5611L168.278 61.6255H163.176C163.176 63.3422 163.746 64.3575 165.819 64.3575C167.133 64.3575 167.787 64.1074 168.293 64.1074C168.531 64.1074 168.645 64.1908 168.695 64.4409H168.7ZM165.536 57.4955C163.771 57.4955 163.181 58.5108 163.181 60.2962V61.2772C163.468 60.7622 163.919 60.463 164.847 60.463H167.728C167.728 58.6972 167.39 57.4955 165.541 57.4955H165.536Z" fill="#231F20"/>
<path d="M172.89 58.0645L172.939 58.0792C173.326 57.3288 174.268 56.4115 176.038 56.4115L176.291 57.78C174.134 57.78 172.855 58.398 172.855 60.1295V65.4758H171.422V56.4164H172.131C172.617 56.4164 172.855 56.6666 172.855 57.1326L172.89 58.0645Z" fill="#231F20"/>
<defs>
<linearGradient id="paint0_linear_1_11626" x1="93.1601" y1="0.0278985" x2="93.1601" y2="46.3395" gradientUnits="userSpaceOnUse">
<stop stop-color="#00AA4E"/>
<stop offset="1" stop-color="#006E30"/>
</linearGradient>
<linearGradient id="paint1_linear_1_11626" x1="93.1623" y1="4.199" x2="93.1623" y2="63.5265" gradientUnits="userSpaceOnUse">
<stop stop-color="#00893F"/>
<stop offset="1" stop-color="#00672C"/>
</linearGradient>
</defs>
</svg>
