<svg width="200" height="109" viewBox="0 0 200 109" fill="none" xmlns="http://www.w3.org/2000/svg">
<path d="M99.711 18.7262C93.4757 18.7262 92.2223 21.9777 92.0516 22.9773L90.5528 31.3795C90.9421 30.1168 92.5209 27.4651 98.1481 27.4651H110.107C116.326 27.4651 117.579 24.2137 117.75 23.2088L118.55 18.721H99.7163L99.711 18.7262Z" fill="white"/>
<path d="M79.3624 48.0471C79.5971 46.7686 80.5198 45.6427 81.6773 45.0534C82.8187 44.4852 84.3815 44.0801 86.5684 44.0801H107.12C113.355 44.0801 114.608 40.8287 114.779 39.8132L116.278 31.4111C115.904 32.658 114.326 35.3254 108.682 35.3254H88.1312C81.8959 35.3254 80.6585 38.5926 80.4718 39.5975L77.4582 56.5071C77.2715 57.512 77.3462 60.7635 83.5868 60.7635H111.035L112.613 52.0246H85.1496C82.9787 52.0246 81.5386 51.6247 80.6158 51.0565C79.6504 50.4672 79.133 49.3466 79.3677 48.0471H79.3624Z" fill="white"/>
<path d="M14.823 61.7263C9.14779 61.7263 3.30191 61.0476 0.666992 60.3689L1.89911 53.4662C5.52078 53.7503 9.40915 54.1449 14.967 54.1449C19.7888 54.1449 22.0503 52.7296 22.6157 49.5623C23.0424 47.1842 22.1783 46.2267 18.466 44.5273L12.7375 41.923C7.11026 39.3766 3.86196 36.3777 5.10474 29.4171C6.59822 21.099 13.0362 17.8213 23.8158 17.8213C29.4964 17.8213 34.1635 18.6683 36.585 19.2366L35.3689 26.0288C31.4699 25.6921 27.8055 25.3501 23.0478 25.3501C18.6847 25.3501 16.2418 26.2024 15.7244 29.0856C15.3404 31.2374 16.1084 32.0845 19.7248 33.6681L25.3146 36.1041C31.9126 38.9872 34.6435 42.3281 33.4594 48.9468C31.9019 57.6594 25.1493 61.7316 14.823 61.7316V61.7263Z" fill="white"/>
<path d="M140.92 60.7687L134.882 45.7742H128.46L125.777 60.7687H115.451L122.961 18.7262C127.25 18.5 131.543 18.2159 136.818 18.2159C147.545 18.2159 156.244 20.252 154.18 31.8004L154.111 32.195C152.996 38.419 149.876 41.7599 145.267 43.796L151.758 60.7687H140.915H140.92ZM143.774 31.9687C144.622 27.2179 142.062 26.1393 135.752 26.1393C134.376 26.1393 133.346 26.1393 131.959 26.1972L129.772 38.419H133.677C140.045 38.419 142.888 36.9459 143.71 32.3633L143.779 31.9687H143.774Z" fill="white"/>
<path d="M50.0103 35.7305L53.0506 18.7262H42.2656L34.7502 60.7687H45.5352L48.5755 43.7644H62.3314L63.7662 35.7305H50.0103Z" fill="white"/>
<path d="M72.2684 60.7687H61.542L69.0574 18.7262H79.7837L72.2684 60.7687Z" fill="white"/>
<path d="M184.503 18.7262H166.635L147.246 60.7635H158.26L163.141 50.1831H177.393L178.518 60.7635H188.973L184.503 18.7262ZM166.635 42.6017L174.091 26.4339H174.859L176.582 42.6017H166.635Z" fill="white"/>
<path d="M118.001 21.7672C118.001 21.7672 117.995 21.7883 117.99 21.7935C117.595 23.051 116.032 25.6132 110.576 25.6553C110.533 25.6553 98.4895 25.6553 98.4895 25.6553C93.0277 25.6553 91.3475 28.1544 90.8941 29.4591L90.5528 31.3795C90.9421 30.1168 92.5209 27.4651 98.1481 27.4651H110.107C116.326 27.4651 117.579 24.2137 117.75 23.2088L118.006 21.762L118.001 21.7672Z" fill="white"/>
<path d="M118.273 20.2362L118.539 18.7262H99.7056C93.4704 18.7262 92.2169 21.9777 92.0462 22.9773L91.7902 24.4189C92.0089 23.3403 93.3744 20.2362 99.4709 20.2362H118.273Z" fill="white"/>
<path d="M83.8641 59.1799C78.8557 59.1799 77.7356 57.0806 77.5915 55.7337L77.4529 56.5071C77.2662 57.512 77.3409 60.7635 83.5814 60.7635H111.029L111.317 59.1799H83.8641Z" fill="white"/>
<path d="M80.4718 39.6028L80.3385 40.3604C80.9625 39.0135 82.8187 36.8827 87.8592 36.8827C87.8592 36.8827 108.496 36.8827 108.538 36.8827C113.872 36.8407 115.515 34.3942 115.958 33.1104C115.974 33.0631 115.99 33.0157 116 32.9736L116.278 31.4216C115.904 32.6685 114.326 35.3359 108.682 35.3359H88.1312C81.8959 35.3359 80.6585 38.6032 80.4718 39.6081V39.6028Z" fill="white"/>
<path d="M115.056 38.2612C115.056 38.2612 115.051 38.2928 115.046 38.3085C114.806 39.4239 113.446 42.4176 107.552 42.4649C107.504 42.4649 86.8564 42.4649 86.8564 42.4649C84.6642 42.4649 83.1067 42.8648 81.9653 43.4382C80.8078 44.0222 79.8851 45.1481 79.6504 46.4266L79.3624 48.0523C79.5971 46.7739 80.5198 45.648 81.6773 45.0587C82.8187 44.4905 84.3815 44.0854 86.5684 44.0854H107.12C113.355 44.0854 114.608 40.8339 114.779 39.8185L115.056 38.2559C115.056 38.2559 115.056 38.2612 115.056 38.2664V38.2612Z" fill="white"/>
<path d="M79.117 49.4097C78.8823 50.704 79.3997 51.8299 80.3651 52.4192C81.2879 52.9874 82.7227 53.3872 84.8989 53.3872H112.357L112.603 52.0246H85.1389C82.968 52.0246 81.5279 51.6247 80.6052 51.0565C79.6397 50.4673 79.1224 49.3466 79.357 48.0471L79.117 49.4097Z" fill="white"/>
<path d="M191.64 19.5049V24.5978H190.781V19.5049H188.978V18.7262H193.421V19.5049H191.64ZM196.579 23.6455L195.336 20.9307C195.267 20.7728 195.203 20.6203 195.176 20.4835V24.5978H194.296V18.7262H195.245L196.984 22.6669L198.766 18.7262H199.667V24.5978H198.808V20.4835C198.766 20.615 198.718 20.7728 198.648 20.9307L197.405 23.6455H196.573H196.579Z" fill="white"/>
<path d="M9.68651 83.5131C9.68651 86.4278 8.43839 88.3008 5.24876 88.3008C4.25133 88.3008 3.45659 88.2271 1.7871 88.0482V74.327H2.25647C3.03521 74.327 3.32324 74.5742 3.32324 75.4371V80.1354L3.37658 80.1722C3.95797 78.9568 5.00873 78.1519 6.58221 78.1519C8.15569 78.1519 9.68117 78.9568 9.68117 82.0662V83.5131H9.68651ZM8.14503 82.0662C8.14503 80.2616 7.54764 79.5671 6.27819 79.5671C4.66737 79.5671 3.32858 80.8719 3.32858 82.8028V86.8382C3.78195 86.8908 4.57669 86.8908 5.01407 86.8908C7.38762 86.8908 8.14503 85.7491 8.14503 83.5131V82.0662Z" fill="white"/>
<path d="M13.6869 84.4969C13.6869 86.1069 14.2309 86.8382 15.4257 86.8382C17.0739 86.8382 18.2153 85.7123 18.2153 83.6236V78.336H19.7568V88.0903H19.2874C18.5087 88.0903 18.2206 87.7694 18.2206 86.9802V86.2857L18.1673 86.2489C17.6979 87.4274 16.8072 88.2482 15.2497 88.2482C13.4575 88.2482 12.1507 87.3169 12.1507 84.7126V78.336H13.6922V84.5022L13.6869 84.4969Z" fill="white"/>
<path d="M23.5065 74.4217C24.3012 74.4217 24.5732 74.7058 24.5732 75.5107C24.5732 76.3157 24.3012 76.584 23.5065 76.584C22.7117 76.584 22.4717 76.3157 22.4717 75.5107C22.4717 74.7058 22.7064 74.4217 23.5065 74.4217ZM24.2852 78.336V88.0535H22.7437V78.336H24.2852Z" fill="white"/>
<path d="M28.9203 74.3322V88.0535H27.3788V74.3322H28.9203Z" fill="white"/>
<path d="M39.5133 88.0851H38.9533C38.4305 88.0851 38.1372 87.8904 38.1052 87.3538L38.0305 86.4962L37.9772 86.4804C37.4704 87.6221 36.329 88.2692 35.0809 88.2692C33.0327 88.2692 31.5126 87.1801 31.5126 84.1076V82.645C31.5126 79.6987 32.782 78.194 34.9529 78.194C36.2917 78.194 37.2358 78.6412 37.9238 79.283L37.9772 79.2462V74.3322H38.4465C39.2253 74.3322 39.5133 74.5795 39.5133 75.4423V88.0903V88.0851ZM33.0487 84.1023C33.0487 85.9806 33.7368 86.854 35.2942 86.854C36.8517 86.854 37.9772 85.7438 37.9772 83.8182V80.4615C37.3424 79.9775 36.601 79.5882 35.4969 79.5882C33.8648 79.5882 33.054 80.5194 33.054 82.645V84.1076L33.0487 84.1023Z" fill="white"/>
<path d="M55.3761 83.5131C55.3761 86.4278 54.128 88.3008 50.9384 88.3008C49.9409 88.3008 49.1462 88.2271 47.4767 88.0482V74.327H47.9461C48.7248 74.327 49.0129 74.5742 49.0129 75.4371V80.1354L49.0662 80.1722C49.6476 78.9568 50.693 78.1519 52.2718 78.1519C53.8506 78.1519 55.3708 78.9568 55.3708 82.0662V83.5131H55.3761ZM53.8346 82.0662C53.8346 80.2616 53.2373 79.5671 51.9678 79.5671C50.357 79.5671 49.0182 80.8719 49.0182 82.8028V86.8382C49.4716 86.8908 50.2663 86.8908 50.7037 86.8908C53.0772 86.8908 53.8346 85.7491 53.8346 83.5131V82.0662Z" fill="white"/>
<path d="M64.9557 86.9434L65.121 87.7115C64.0329 88.0535 62.7101 88.2324 61.6967 88.2324C58.8538 88.2324 57.4777 86.533 57.4777 83.9077V82.4977C57.4777 79.9407 58.7471 78.1571 61.4247 78.1571C64.305 78.1571 65.4251 79.9249 65.4251 82.7818L64.5023 83.9234H59.0138C59.0138 85.7649 59.6272 86.854 61.8567 86.854C63.2702 86.854 63.9743 86.5856 64.5183 86.5856C64.7743 86.5856 64.897 86.6751 64.9504 86.9434H64.9557ZM61.5527 79.4935C59.6485 79.4935 59.0191 80.5826 59.0191 82.4977V83.5499C59.3285 82.9975 59.8139 82.6765 60.8113 82.6765H63.9103C63.9103 80.7825 63.5476 79.4935 61.558 79.4935H61.5527Z" fill="white"/>
<path d="M72.6364 86.6961L72.8924 87.8746C72.3324 88.0535 71.6443 88.1798 71.1376 88.1798C68.8921 88.1798 68.5134 86.5541 68.5134 85.0336V79.604H66.8492V78.6569L68.5134 78.336L69.0041 75.5318H70.0548V78.336H72.7324V79.604H70.0548V85.0336C70.0548 85.9069 70.1082 86.854 71.2336 86.854C71.6123 86.854 72.119 86.8013 72.6471 86.6908L72.6364 86.6961Z" fill="white"/>
<path d="M79.4104 86.6961L79.6664 87.8746C79.1064 88.0535 78.4183 88.1798 77.9116 88.1798C75.666 88.1798 75.2873 86.5541 75.2873 85.0336V79.604H73.6232V78.6569L75.2873 78.336L75.778 75.5318H76.8288V78.336H79.5064V79.604H76.8288V85.0336C76.8288 85.9069 76.8821 86.854 78.0076 86.854C78.3863 86.854 78.893 86.8013 79.421 86.6908L79.4104 86.6961Z" fill="white"/>
<path d="M88.3339 86.9434L88.4992 87.7115C87.4111 88.0535 86.0937 88.2324 85.0749 88.2324C82.232 88.2324 80.8558 86.533 80.8558 83.9077V82.4977C80.8558 79.9407 82.1253 78.1571 84.8029 78.1571C87.6832 78.1571 88.8033 79.9249 88.8033 82.7818L87.8805 83.9234H82.392C82.392 85.7649 83.0054 86.854 85.2349 86.854C86.6484 86.854 87.3525 86.5856 87.8965 86.5856C88.1525 86.5856 88.2752 86.6751 88.3286 86.9434H88.3339ZM84.9309 79.4935C83.0267 79.4935 82.3973 80.5826 82.3973 82.4977V83.5499C82.7067 82.9975 83.1921 82.6765 84.1895 82.6765H87.2884C87.2884 80.7825 86.9258 79.4935 84.9362 79.4935H84.9309Z" fill="white"/>
<path d="M92.8463 80.1038L92.8996 80.1196C93.3157 79.3146 94.3291 78.3307 96.2333 78.3307L96.5053 79.7986C94.1851 79.7986 92.8143 80.4615 92.8143 82.3188V88.0535H91.2728V78.336H92.0356C92.5636 78.336 92.8143 78.6043 92.8143 79.1042L92.8516 80.1038H92.8463Z" fill="white"/>
<path d="M97.2094 89.8213L98.5162 86.2489H100.452L98.3668 89.8213H97.2094Z" fill="white"/>
<path d="M109.344 74.3322V88.0535H107.802V74.3322H109.344Z" fill="white"/>
<path d="M113.184 74.4217C113.979 74.4217 114.251 74.7058 114.251 75.5107C114.251 76.3157 113.979 76.584 113.184 76.584C112.389 76.584 112.155 76.3157 112.155 75.5107C112.155 74.7058 112.389 74.4217 113.184 74.4217ZM113.963 78.336V88.0535H112.421V78.336H113.963Z" fill="white"/>
<path d="M118.998 83.2447L119.83 86.5856H119.884L120.7 83.2447L122.364 78.3307H123.937L120.716 88.0482H118.993L115.771 78.3307H117.35L118.998 83.2447Z" fill="white"/>
<path d="M132.541 86.9434L132.706 87.7115C131.618 88.0535 130.3 88.2324 129.282 88.2324C126.439 88.2324 125.063 86.533 125.063 83.9077V82.4977C125.063 79.9407 126.332 78.1571 129.01 78.1571C131.89 78.1571 133.01 79.9249 133.01 82.7818L132.087 83.9234H126.599C126.599 85.7649 127.212 86.854 129.442 86.854C130.855 86.854 131.559 86.5856 132.103 86.5856C132.354 86.5856 132.482 86.6751 132.535 86.9434H132.541ZM129.138 79.4935C127.239 79.4935 126.604 80.5826 126.604 82.4977V83.5499C126.914 82.9975 127.404 82.6765 128.396 82.6765H131.495C131.495 80.7825 131.133 79.4935 129.143 79.4935H129.138Z" fill="white"/>
<path d="M148.441 83.5131C148.441 86.4278 147.193 88.3008 144.003 88.3008C143.006 88.3008 142.211 88.2271 140.541 88.0482V74.327H141.011C141.79 74.327 142.078 74.5742 142.078 75.4371V80.1354L142.131 80.1722C142.712 78.9568 143.763 78.1519 145.337 78.1519C146.91 78.1519 148.43 78.9568 148.43 82.0662V83.5131H148.441ZM146.899 82.0662C146.899 80.2616 146.302 79.5671 145.033 79.5671C143.422 79.5671 142.083 80.8719 142.083 82.8028V86.8382C142.536 86.8908 143.331 86.8908 143.768 86.8908C146.142 86.8908 146.899 85.7491 146.899 83.5131V82.0662Z" fill="white"/>
<path d="M158.02 86.9434L158.186 87.7115C157.098 88.0535 155.78 88.2324 154.761 88.2324C151.919 88.2324 150.542 86.533 150.542 83.9077V82.4977C150.542 79.9407 151.812 78.1571 154.489 78.1571C157.37 78.1571 158.49 79.9249 158.49 82.7818L157.567 83.9234H152.079C152.079 85.7649 152.692 86.854 154.921 86.854C156.335 86.854 157.039 86.5856 157.583 86.5856C157.839 86.5856 157.962 86.6751 158.015 86.9434H158.02ZM154.617 79.4935C152.719 79.4935 152.084 80.5826 152.084 82.4977V83.5499C152.393 82.9975 152.879 82.6765 153.876 82.6765H156.975C156.975 80.7825 156.612 79.4935 154.623 79.4935H154.617Z" fill="white"/>
<path d="M165.701 86.6961L165.957 87.8746C165.397 88.0535 164.709 88.1798 164.202 88.1798C161.957 88.1798 161.578 86.5541 161.578 85.0336V79.604H159.914V78.6569L161.578 78.336L162.069 75.5318H163.12V78.336H165.797V79.604H163.12V85.0336C163.12 85.9069 163.173 86.854 164.298 86.854C164.677 86.854 165.184 86.8013 165.712 86.6908L165.701 86.6961Z" fill="white"/>
<path d="M172.475 86.6961L172.731 87.8746C172.171 88.0535 171.483 88.1798 170.976 88.1798C168.731 88.1798 168.352 86.5541 168.352 85.0336V79.604H166.688V78.6569L168.352 78.336L168.843 75.5318H169.894V78.336H172.576V79.604H169.894V85.0336C169.894 85.9069 169.947 86.854 171.072 86.854C171.451 86.854 171.958 86.8013 172.486 86.6908L172.475 86.6961Z" fill="white"/>
<path d="M181.404 86.9434L181.569 87.7115C180.481 88.0535 179.164 88.2324 178.145 88.2324C175.302 88.2324 173.926 86.533 173.926 83.9077V82.4977C173.926 79.9407 175.195 78.1571 177.873 78.1571C180.753 78.1571 181.873 79.9249 181.873 82.7818L180.951 83.9234H175.462C175.462 85.7649 176.075 86.854 178.305 86.854C179.718 86.854 180.423 86.5856 180.967 86.5856C181.223 86.5856 181.345 86.6751 181.399 86.9434H181.404ZM178.001 79.4935C176.102 79.4935 175.467 80.5826 175.467 82.4977V83.5499C175.777 82.9975 176.262 82.6765 177.26 82.6765H180.359C180.359 80.7825 179.996 79.4935 178.006 79.4935H178.001Z" fill="white"/>
<path d="M185.911 80.1038L185.964 80.1196C186.38 79.3146 187.394 78.3307 189.298 78.3307L189.57 79.7986C187.25 79.7986 185.874 80.4615 185.874 82.3188V88.0535H184.332V78.336H185.095C185.618 78.336 185.874 78.6043 185.874 79.1042L185.911 80.1038Z" fill="white"/>
</svg>
